<svg width="1312" height="609" viewBox="0 0 1312 609" fill="none" xmlns="http://www.w3.org/2000/svg">
<path d="M744.3 324.339C744.3 321.688 742.151 319.539 739.5 319.539C736.849 319.539 734.7 321.688 734.7 324.339C734.7 326.99 736.849 329.139 739.5 329.139C742.151 329.139 744.3 326.99 744.3 324.339ZM283 296.839L291.927 302.159L292.071 291.768L283 296.839ZM733.581 327.026C733.157 327.284 733.022 327.838 733.281 328.262C733.539 328.687 734.093 328.822 734.517 328.563L733.581 327.026ZM723.177 335.057C723.615 334.821 723.778 334.275 723.542 333.838C723.306 333.4 722.76 333.237 722.322 333.473L723.177 335.057ZM710.774 339.354C710.326 339.569 710.137 340.107 710.352 340.555C710.567 341.003 711.104 341.192 711.552 340.978L710.774 339.354ZM699.65 346.319C700.109 346.127 700.325 345.6 700.133 345.141C699.941 344.683 699.414 344.466 698.956 344.658L699.65 346.319ZM686.888 349.317C686.419 349.482 686.173 349.996 686.339 350.465C686.504 350.934 687.019 351.179 687.487 351.014L686.888 349.317ZM675.04 354.973C675.518 354.838 675.797 354.341 675.662 353.863C675.527 353.384 675.03 353.106 674.551 353.24L675.04 354.973ZM661.991 356.283C661.504 356.381 661.188 356.855 661.286 357.342C661.384 357.83 661.858 358.145 662.346 358.047L661.991 356.283ZM649.424 360.054C649.918 360.001 650.276 359.558 650.223 359.063C650.17 358.569 649.726 358.212 649.232 358.265L649.424 360.054ZM636.358 358.954C635.861 358.952 635.456 359.353 635.455 359.851C635.453 360.348 635.854 360.752 636.351 360.754L636.358 358.954ZM623.275 359.858C623.767 359.926 624.222 359.582 624.29 359.09C624.358 358.598 624.013 358.143 623.521 358.075L623.275 359.858ZM611.618 355.36C611.152 355.186 610.634 355.423 610.46 355.888C610.286 356.354 610.523 356.873 610.989 357.046L611.618 355.36ZM601.048 350.182C601.348 350.578 601.912 350.657 602.309 350.357C602.705 350.058 602.784 349.493 602.484 349.097L601.048 350.182ZM599.415 338.6C599.42 338.103 599.022 337.695 598.525 337.69C598.028 337.685 597.62 338.084 597.615 338.581L599.415 338.6ZM599.608 326.789C599.472 327.267 599.749 327.765 600.227 327.901C600.705 328.038 601.203 327.761 601.339 327.283L599.608 326.789ZM605.114 316.217C605.289 315.752 605.054 315.233 604.588 315.058C604.123 314.883 603.604 315.119 603.429 315.584L605.114 316.217ZM607.513 304.572C607.351 305.041 607.6 305.554 608.07 305.716C608.54 305.878 609.052 305.629 609.214 305.159L607.513 304.572ZM612.222 293.635C612.288 293.142 611.942 292.69 611.449 292.624C610.957 292.558 610.504 292.904 610.438 293.397L612.222 293.635ZM608.519 282.806C608.819 283.203 609.383 283.282 609.78 282.983C610.177 282.684 610.256 282.119 609.957 281.723L608.519 282.806ZM599.308 275.963C598.821 275.864 598.346 276.179 598.247 276.666C598.149 277.153 598.464 277.628 598.951 277.727L599.308 275.963ZM587.432 276.922C587.929 276.911 588.322 276.498 588.31 276.001C588.299 275.504 587.887 275.111 587.39 275.123L587.432 276.922ZM575.132 276.011C574.637 276.061 574.277 276.503 574.327 276.997C574.377 277.492 574.818 277.852 575.313 277.802L575.132 276.011ZM562.898 279.361C563.389 279.285 563.726 278.826 563.651 278.335C563.576 277.844 563.116 277.506 562.625 277.582L562.898 279.361ZM550.166 279.935C549.681 280.046 549.379 280.529 549.49 281.014C549.601 281.498 550.084 281.801 550.569 281.69L550.166 279.935ZM538.575 285.077C539.045 284.916 539.295 284.404 539.134 283.934C538.973 283.464 538.461 283.213 537.991 283.375L538.575 285.077ZM526.307 288.257C525.862 288.479 525.682 289.019 525.903 289.464C526.125 289.909 526.666 290.089 527.111 289.867L526.307 288.257ZM516.265 296.043C516.687 295.781 516.816 295.226 516.554 294.804C516.291 294.382 515.736 294.252 515.314 294.515L516.265 296.043ZM504.625 301.061C504.193 301.308 504.043 301.858 504.29 302.289C504.537 302.721 505.087 302.871 505.518 302.624L504.625 301.061ZM494.16 308.244C494.619 308.053 494.836 307.526 494.645 307.067C494.453 306.608 493.927 306.392 493.468 306.583L494.16 308.244ZM481.702 310.657C481.224 310.793 480.947 311.29 481.082 311.768C481.218 312.247 481.716 312.524 482.194 312.388L481.702 310.657ZM469.889 315.289C470.377 315.195 470.696 314.722 470.602 314.234C470.507 313.746 470.035 313.427 469.547 313.522L469.889 315.289ZM457.722 315.438C457.229 315.503 456.883 315.956 456.948 316.448C457.013 316.941 457.466 317.288 457.958 317.222L457.722 315.438ZM446.498 318.316C446.995 318.291 447.376 317.868 447.351 317.371C447.325 316.875 446.902 316.493 446.406 316.518L446.498 318.316ZM435.141 316.404C434.646 316.364 434.211 316.733 434.171 317.228C434.131 317.724 434.5 318.158 434.996 318.198L435.141 316.404ZM423.624 316.374C424.108 316.488 424.592 316.188 424.706 315.704C424.82 315.221 424.52 314.736 424.037 314.622L423.624 316.374ZM413.098 311.574C412.623 311.43 412.12 311.699 411.977 312.175C411.833 312.651 412.103 313.153 412.579 313.297L413.098 311.574ZM401.652 310.09C402.131 310.222 402.626 309.941 402.759 309.462C402.891 308.983 402.611 308.487 402.132 308.355L401.652 310.09ZM391.066 305.561C390.581 305.451 390.099 305.754 389.989 306.239C389.878 306.724 390.182 307.206 390.666 307.316L391.066 305.561ZM379.527 305.04C380.016 305.13 380.485 304.805 380.574 304.316C380.663 303.827 380.339 303.359 379.85 303.27L379.527 305.04ZM368.572 301.431C368.08 301.36 367.623 301.701 367.552 302.193C367.481 302.685 367.822 303.141 368.314 303.213L368.572 301.431ZM356.951 301.742C357.445 301.799 357.892 301.445 357.948 300.951C358.005 300.457 357.651 300.011 357.157 299.954L356.951 301.742ZM345.863 298.797C345.368 298.752 344.93 299.117 344.885 299.612C344.84 300.107 345.205 300.545 345.7 300.59L345.863 298.797ZM334.35 299.677C334.846 299.713 335.277 299.339 335.312 298.843C335.347 298.347 334.973 297.917 334.477 297.882L334.35 299.677ZM323.062 297.174C322.565 297.147 322.141 297.528 322.114 298.025C322.088 298.521 322.468 298.945 322.965 298.972L323.062 297.174ZM311.576 298.443C312.073 298.462 312.491 298.075 312.511 297.579C312.531 297.082 312.144 296.664 311.647 296.644L311.576 298.443ZM300.243 296.266C299.746 296.252 299.333 296.644 299.319 297.141C299.306 297.638 299.697 298.052 300.194 298.065L300.243 296.266ZM288.812 297.819C289.309 297.827 289.719 297.431 289.727 296.934C289.735 296.437 289.339 296.028 288.842 296.019L288.812 297.819ZM739.5 324.339C738.994 323.594 738.994 323.594 738.994 323.594C738.994 323.594 738.994 323.594 738.994 323.594C738.994 323.594 738.994 323.594 738.994 323.594C738.994 323.594 738.994 323.595 738.993 323.595C738.993 323.595 738.991 323.596 738.99 323.597C738.986 323.6 738.981 323.603 738.974 323.608C738.959 323.618 738.937 323.633 738.908 323.652C738.849 323.692 738.761 323.751 738.644 323.829C738.409 323.984 738.06 324.214 737.6 324.51C736.682 325.104 735.326 325.963 733.581 327.026L734.049 327.794L734.517 328.563C736.277 327.492 737.646 326.624 738.577 326.022C739.042 325.722 739.398 325.488 739.638 325.329C739.758 325.249 739.85 325.188 739.911 325.147C739.942 325.126 739.965 325.111 739.981 325.1C739.989 325.095 739.995 325.091 739.999 325.088C740.001 325.087 740.003 325.085 740.004 325.085C740.004 325.084 740.005 325.084 740.005 325.084C740.005 325.084 740.005 325.084 740.005 325.084C740.005 325.083 740.006 325.083 740.006 325.083C740.006 325.083 740.006 325.083 739.5 324.339ZM722.75 334.265L722.322 333.473C718.889 335.327 715.012 337.324 710.774 339.354L711.163 340.166L711.552 340.978C715.818 338.933 719.721 336.923 723.177 335.057L722.75 334.265ZM699.303 345.488L698.956 344.658C695.103 346.269 691.067 347.84 686.888 349.317L687.187 350.165L687.487 351.014C691.701 349.525 695.77 347.941 699.65 346.319L699.303 345.488ZM674.795 354.107L674.551 353.24C670.44 354.399 666.241 355.428 661.991 356.283L662.168 357.165L662.346 358.047C666.645 357.183 670.888 356.143 675.04 354.973L674.795 354.107ZM649.328 359.16L649.232 358.265C644.945 358.725 640.643 358.969 636.358 358.954L636.355 359.854L636.351 360.754C640.709 360.77 645.078 360.521 649.424 360.054L649.328 359.16ZM623.398 358.967L623.521 358.075C621.396 357.782 619.284 357.412 617.19 356.959L617 357.839L616.81 358.719C618.95 359.181 621.107 359.559 623.275 359.858L623.398 358.967ZM617 357.839L617.19 356.959C615.117 356.511 613.266 355.974 611.618 355.36L611.303 356.203L610.989 357.046C612.728 357.695 614.664 358.254 616.81 358.719L617 357.839ZM601.766 349.639L602.484 349.097C600.25 346.141 599.373 342.591 599.415 338.6L598.515 338.59L597.615 338.581C597.57 342.85 598.511 346.824 601.048 350.182L601.766 349.639ZM600.474 327.036L601.339 327.283C602.371 323.669 603.714 319.946 605.114 316.217L604.272 315.9L603.429 315.584C602.026 319.32 600.661 323.1 599.608 326.789L600.474 327.036ZM608.363 304.865L609.214 305.159C610.607 301.125 611.744 297.218 612.222 293.635L611.33 293.516L610.438 293.397C609.983 296.801 608.893 300.573 607.513 304.572L608.363 304.865ZM609.238 282.264L609.957 281.723C607.872 278.958 604.428 277 599.308 275.963L599.13 276.845L598.951 277.727C603.806 278.711 606.787 280.508 608.519 282.806L609.238 282.264ZM587.411 276.022L587.39 275.123C585.53 275.166 583.545 275.271 581.428 275.442L581.5 276.339L581.572 277.236C583.66 277.068 585.61 276.964 587.432 276.922L587.411 276.022ZM581.5 276.339L581.428 275.442C579.254 275.617 577.157 275.807 575.132 276.011L575.222 276.907L575.313 277.802C577.325 277.599 579.41 277.41 581.572 277.236L581.5 276.339ZM562.761 278.471L562.625 277.582C558.053 278.282 553.925 279.072 550.166 279.935L550.367 280.812L550.569 281.69C554.281 280.837 558.365 280.056 562.898 279.361L562.761 278.471ZM538.283 284.226L537.991 283.375C533.563 284.895 529.752 286.538 526.307 288.257L526.709 289.062L527.111 289.867C530.489 288.182 534.227 286.57 538.575 285.077L538.283 284.226ZM515.79 295.279L515.314 294.515C511.774 296.717 508.377 298.916 504.625 301.061L505.072 301.843L505.518 302.624C509.309 300.457 512.759 298.224 516.265 296.043L515.79 295.279ZM493.814 307.413L493.468 306.583C490.009 308.024 486.147 309.393 481.702 310.657L481.948 311.522L482.194 312.388C486.705 311.106 490.635 309.713 494.16 308.244L493.814 307.413ZM469.718 314.405L469.547 313.522C467.58 313.903 465.519 314.266 463.358 314.611L463.5 315.5L463.642 316.389C465.822 316.041 467.901 315.674 469.889 315.289L469.718 314.405ZM463.5 315.5L463.358 314.611C461.388 314.926 459.512 315.201 457.722 315.438L457.84 316.33L457.958 317.222C459.766 316.983 461.657 316.706 463.642 316.389L463.5 315.5ZM446.452 317.417L446.406 316.518C442.194 316.735 438.518 316.677 435.141 316.404L435.068 317.301L434.996 318.198C438.459 318.479 442.215 318.536 446.498 318.316L446.452 317.417ZM423.83 315.498L424.037 314.622C420.501 313.79 416.988 312.747 413.098 311.574L412.839 312.435L412.579 313.297C416.465 314.469 420.028 315.527 423.624 316.374L423.83 315.498ZM401.892 309.222L402.132 308.355C398.811 307.436 395.165 306.495 391.066 305.561L390.866 306.439L390.666 307.316C394.735 308.243 398.354 309.177 401.652 310.09L401.892 309.222ZM379.689 304.155L379.85 303.27C376.38 302.637 372.635 302.021 368.572 301.431L368.443 302.322L368.314 303.213C372.356 303.799 376.079 304.412 379.527 305.04L379.689 304.155ZM357.054 300.848L357.157 299.954C353.606 299.546 349.848 299.159 345.863 298.797L345.781 299.694L345.7 300.59C349.672 300.95 353.416 301.336 356.951 301.742L357.054 300.848ZM334.414 298.78L334.477 297.882C330.842 297.625 327.04 297.388 323.062 297.174L323.013 298.073L322.965 298.972C326.934 299.185 330.725 299.421 334.35 299.677L334.414 298.78ZM311.612 297.543L311.647 296.644C307.983 296.499 304.184 296.373 300.243 296.266L300.219 297.166L300.194 298.065C304.128 298.172 307.92 298.298 311.576 298.443L311.612 297.543Z" fill="white"/>
<rect x="949" y="126" width="363" height="483" rx="24" fill="#FFC254"/>
<rect y="429" width="1080" height="180" rx="24" fill="#B07100"/>
<path d="M81.84 511.94V516H65.56V511.94H71.32V496.06C71.32 495.713 71.3267 495.36 71.34 495C71.3533 494.64 71.3733 494.273 71.4 493.9L67.6 497.06C67.3333 497.26 67.0733 497.387 66.82 497.44C66.5667 497.493 66.3267 497.5 66.1 497.46C65.8733 497.407 65.6733 497.327 65.5 497.22C65.3267 497.1 65.1933 496.98 65.1 496.86L63.36 494.52L72.28 486.96H76.82V511.94H81.84ZM106.503 501.48C106.503 504.013 106.23 506.213 105.683 508.08C105.136 509.947 104.383 511.493 103.423 512.72C102.463 513.933 101.323 514.84 100.003 515.44C98.6965 516.027 97.2831 516.32 95.7631 516.32C94.2431 516.32 92.8298 516.027 91.5231 515.44C90.2165 514.84 89.0898 513.933 88.1431 512.72C87.1965 511.493 86.4498 509.947 85.9031 508.08C85.3698 506.213 85.1031 504.013 85.1031 501.48C85.1031 498.947 85.3698 496.753 85.9031 494.9C86.4498 493.033 87.1965 491.493 88.1431 490.28C89.0898 489.053 90.2165 488.147 91.5231 487.56C92.8298 486.96 94.2431 486.66 95.7631 486.66C97.2831 486.66 98.6965 486.96 100.003 487.56C101.323 488.147 102.463 489.053 103.423 490.28C104.383 491.493 105.136 493.033 105.683 494.9C106.23 496.753 106.503 498.947 106.503 501.48ZM100.803 501.48C100.803 499.427 100.656 497.733 100.363 496.4C100.083 495.067 99.7098 494.013 99.2431 493.24C98.7765 492.467 98.2365 491.927 97.6231 491.62C97.0231 491.313 96.4031 491.16 95.7631 491.16C95.1231 491.16 94.5031 491.313 93.9031 491.62C93.3165 491.927 92.7898 492.467 92.3231 493.24C91.8698 494.013 91.5031 495.067 91.2231 496.4C90.9431 497.733 90.8031 499.427 90.8031 501.48C90.8031 503.547 90.9431 505.247 91.2231 506.58C91.5031 507.913 91.8698 508.967 92.3231 509.74C92.7898 510.513 93.3165 511.053 93.9031 511.36C94.5031 511.667 95.1231 511.82 95.7631 511.82C96.4031 511.82 97.0231 511.667 97.6231 511.36C98.2365 511.053 98.7765 510.513 99.2431 509.74C99.7098 508.967 100.083 507.913 100.363 506.58C100.656 505.247 100.803 503.547 100.803 501.48ZM109.666 520.92C109.52 520.8 109.413 520.68 109.346 520.56C109.293 520.44 109.266 520.293 109.266 520.12C109.266 520 109.306 519.867 109.386 519.72C109.48 519.587 109.586 519.46 109.706 519.34C109.853 519.18 110.033 518.98 110.246 518.74C110.46 518.513 110.673 518.253 110.886 517.96C111.1 517.68 111.293 517.367 111.466 517.02C111.653 516.673 111.793 516.307 111.886 515.92C111.446 515.907 111.046 515.813 110.686 515.64C110.326 515.467 110.02 515.24 109.766 514.96C109.513 514.68 109.313 514.353 109.166 513.98C109.033 513.593 108.966 513.18 108.966 512.74C108.966 512.34 109.04 511.967 109.186 511.62C109.333 511.273 109.54 510.973 109.806 510.72C110.086 510.467 110.413 510.267 110.786 510.12C111.173 509.973 111.6 509.9 112.066 509.9C112.613 509.9 113.086 510 113.486 510.2C113.9 510.387 114.24 510.64 114.506 510.96C114.773 511.28 114.973 511.66 115.106 512.1C115.24 512.527 115.306 512.98 115.306 513.46C115.306 514.113 115.206 514.807 115.006 515.54C114.806 516.26 114.506 516.987 114.106 517.72C113.706 518.453 113.213 519.167 112.626 519.86C112.053 520.567 111.386 521.207 110.626 521.78L109.666 520.92ZM139.159 501.48C139.159 504.013 138.886 506.213 138.339 508.08C137.793 509.947 137.039 511.493 136.079 512.72C135.119 513.933 133.979 514.84 132.659 515.44C131.353 516.027 129.939 516.32 128.419 516.32C126.899 516.32 125.486 516.027 124.179 515.44C122.873 514.84 121.746 513.933 120.799 512.72C119.853 511.493 119.106 509.947 118.559 508.08C118.026 506.213 117.759 504.013 117.759 501.48C117.759 498.947 118.026 496.753 118.559 494.9C119.106 493.033 119.853 491.493 120.799 490.28C121.746 489.053 122.873 488.147 124.179 487.56C125.486 486.96 126.899 486.66 128.419 486.66C129.939 486.66 131.353 486.96 132.659 487.56C133.979 488.147 135.119 489.053 136.079 490.28C137.039 491.493 137.793 493.033 138.339 494.9C138.886 496.753 139.159 498.947 139.159 501.48ZM133.459 501.48C133.459 499.427 133.313 497.733 133.019 496.4C132.739 495.067 132.366 494.013 131.899 493.24C131.433 492.467 130.893 491.927 130.279 491.62C129.679 491.313 129.059 491.16 128.419 491.16C127.779 491.16 127.159 491.313 126.559 491.62C125.973 491.927 125.446 492.467 124.979 493.24C124.526 494.013 124.159 495.067 123.879 496.4C123.599 497.733 123.459 499.427 123.459 501.48C123.459 503.547 123.599 505.247 123.879 506.58C124.159 507.913 124.526 508.967 124.979 509.74C125.446 510.513 125.973 511.053 126.559 511.36C127.159 511.667 127.779 511.82 128.419 511.82C129.059 511.82 129.679 511.667 130.279 511.36C130.893 511.053 131.433 510.513 131.899 509.74C132.366 508.967 132.739 507.913 133.019 506.58C133.313 505.247 133.459 503.547 133.459 501.48ZM162.363 501.48C162.363 504.013 162.089 506.213 161.543 508.08C160.996 509.947 160.243 511.493 159.283 512.72C158.323 513.933 157.183 514.84 155.863 515.44C154.556 516.027 153.143 516.32 151.623 516.32C150.103 516.32 148.689 516.027 147.383 515.44C146.076 514.84 144.949 513.933 144.003 512.72C143.056 511.493 142.309 509.947 141.763 508.08C141.229 506.213 140.963 504.013 140.963 501.48C140.963 498.947 141.229 496.753 141.763 494.9C142.309 493.033 143.056 491.493 144.003 490.28C144.949 489.053 146.076 488.147 147.383 487.56C148.689 486.96 150.103 486.66 151.623 486.66C153.143 486.66 154.556 486.96 155.863 487.56C157.183 488.147 158.323 489.053 159.283 490.28C160.243 491.493 160.996 493.033 161.543 494.9C162.089 496.753 162.363 498.947 162.363 501.48ZM156.663 501.48C156.663 499.427 156.516 497.733 156.223 496.4C155.943 495.067 155.569 494.013 155.103 493.24C154.636 492.467 154.096 491.927 153.483 491.62C152.883 491.313 152.263 491.16 151.623 491.16C150.983 491.16 150.363 491.313 149.763 491.62C149.176 491.927 148.649 492.467 148.183 493.24C147.729 494.013 147.363 495.067 147.083 496.4C146.803 497.733 146.663 499.427 146.663 501.48C146.663 503.547 146.803 505.247 147.083 506.58C147.363 507.913 147.729 508.967 148.183 509.74C148.649 510.513 149.176 511.053 149.763 511.36C150.363 511.667 150.983 511.82 151.623 511.82C152.263 511.82 152.883 511.667 153.483 511.36C154.096 511.053 154.636 510.513 155.103 509.74C155.569 508.967 155.943 507.913 156.223 506.58C156.516 505.247 156.663 503.547 156.663 501.48ZM185.566 501.48C185.566 504.013 185.292 506.213 184.746 508.08C184.199 509.947 183.446 511.493 182.486 512.72C181.526 513.933 180.386 514.84 179.066 515.44C177.759 516.027 176.346 516.32 174.826 516.32C173.306 516.32 171.892 516.027 170.586 515.44C169.279 514.84 168.152 513.933 167.206 512.72C166.259 511.493 165.512 509.947 164.966 508.08C164.432 506.213 164.166 504.013 164.166 501.48C164.166 498.947 164.432 496.753 164.966 494.9C165.512 493.033 166.259 491.493 167.206 490.28C168.152 489.053 169.279 488.147 170.586 487.56C171.892 486.96 173.306 486.66 174.826 486.66C176.346 486.66 177.759 486.96 179.066 487.56C180.386 488.147 181.526 489.053 182.486 490.28C183.446 491.493 184.199 493.033 184.746 494.9C185.292 496.753 185.566 498.947 185.566 501.48ZM179.866 501.48C179.866 499.427 179.719 497.733 179.426 496.4C179.146 495.067 178.772 494.013 178.306 493.24C177.839 492.467 177.299 491.927 176.686 491.62C176.086 491.313 175.466 491.16 174.826 491.16C174.186 491.16 173.566 491.313 172.966 491.62C172.379 491.927 171.852 492.467 171.386 493.24C170.932 494.013 170.566 495.067 170.286 496.4C170.006 497.733 169.866 499.427 169.866 501.48C169.866 503.547 170.006 505.247 170.286 506.58C170.566 507.913 170.932 508.967 171.386 509.74C171.852 510.513 172.379 511.053 172.966 511.36C173.566 511.667 174.186 511.82 174.826 511.82C175.466 511.82 176.086 511.667 176.686 511.36C177.299 511.053 177.839 510.513 178.306 509.74C178.772 508.967 179.146 507.913 179.426 506.58C179.719 505.247 179.866 503.547 179.866 501.48ZM207.889 504.58H200.289V512.68H195.809V504.58H188.249V500.56H195.809V492.48H200.289V500.56H207.889V504.58Z" fill="white"/>
<path d="M69.9895 538.455V553H68.2282V538.455H69.9895ZM74.97 546.438V553H73.2939V542.091H74.9132V543.795H75.0552C75.3109 543.241 75.6992 542.796 76.22 542.46C76.7408 542.119 77.4132 541.949 78.237 541.949C78.9757 541.949 79.622 542.1 80.176 542.403C80.7299 542.702 81.1608 543.156 81.4686 543.767C81.7763 544.373 81.9302 545.14 81.9302 546.068V553H80.2541V546.182C80.2541 545.325 80.0315 544.657 79.5865 544.179C79.1414 543.696 78.5306 543.455 77.7541 543.455C77.219 543.455 76.7408 543.571 76.3194 543.803C75.9028 544.035 75.5737 544.373 75.3322 544.818C75.0907 545.263 74.97 545.803 74.97 546.438ZM89.7374 542.091V543.511H84.084V542.091H89.7374ZM85.7317 539.477H87.4078V549.875C87.4078 550.348 87.4765 550.704 87.6138 550.94C87.7559 551.172 87.9358 551.329 88.1536 551.409C88.3761 551.485 88.6105 551.523 88.8567 551.523C89.0414 551.523 89.1929 551.513 89.3113 551.494C89.4296 551.471 89.5243 551.452 89.5953 551.438L89.9363 552.943C89.8226 552.986 89.664 553.028 89.4604 553.071C89.2568 553.118 88.9988 553.142 88.6863 553.142C88.2128 553.142 87.7488 553.04 87.2942 552.837C86.8444 552.633 86.4703 552.323 86.1721 551.906C85.8785 551.49 85.7317 550.964 85.7317 550.33V539.477ZM96.7154 553.227C95.6642 553.227 94.7575 552.995 93.9952 552.531C93.2376 552.062 92.6529 551.409 92.2409 550.571C91.8337 549.728 91.6301 548.748 91.6301 547.631C91.6301 546.513 91.8337 545.528 92.2409 544.676C92.6529 543.819 93.2258 543.152 93.9597 542.673C94.6983 542.19 95.5601 541.949 96.5449 541.949C97.1131 541.949 97.6742 542.044 98.2282 542.233C98.7821 542.422 99.2864 542.73 99.7409 543.156C100.195 543.578 100.558 544.136 100.828 544.832C101.097 545.528 101.232 546.385 101.232 547.403V548.114H92.8233V546.665H99.5279C99.5279 546.049 99.4048 545.5 99.1586 545.017C98.9171 544.534 98.5714 544.153 98.1216 543.874C97.6766 543.594 97.151 543.455 96.5449 543.455C95.8773 543.455 95.2997 543.62 94.812 543.952C94.329 544.278 93.9573 544.705 93.6969 545.23C93.4365 545.756 93.3063 546.319 93.3063 546.92V547.886C93.3063 548.71 93.4483 549.409 93.7324 549.982C94.0212 550.55 94.4213 550.983 94.9327 551.281C95.4441 551.575 96.0383 551.722 96.7154 551.722C97.1557 551.722 97.5534 551.66 97.9086 551.537C98.2684 551.409 98.5785 551.22 98.839 550.969C99.0994 550.713 99.3006 550.396 99.4426 550.017L101.062 550.472C100.892 551.021 100.605 551.504 100.203 551.92C99.8001 552.332 99.303 552.654 98.7111 552.886C98.1193 553.114 97.454 553.227 96.7154 553.227ZM103.782 553V542.091H105.401V543.739H105.515C105.714 543.199 106.074 542.761 106.595 542.425C107.115 542.089 107.703 541.92 108.356 541.92C108.479 541.92 108.633 541.923 108.818 541.928C109.002 541.932 109.142 541.939 109.237 541.949V543.653C109.18 543.639 109.05 543.618 108.846 543.589C108.647 543.556 108.436 543.54 108.214 543.54C107.684 543.54 107.21 543.651 106.794 543.874C106.382 544.091 106.055 544.394 105.813 544.783C105.577 545.166 105.458 545.604 105.458 546.097V553H103.782ZM111.224 553V542.091H112.9V553H111.224ZM112.076 540.273C111.749 540.273 111.467 540.161 111.231 539.939C110.999 539.716 110.883 539.449 110.883 539.136C110.883 538.824 110.999 538.556 111.231 538.334C111.467 538.111 111.749 538 112.076 538C112.403 538 112.682 538.111 112.914 538.334C113.151 538.556 113.269 538.824 113.269 539.136C113.269 539.449 113.151 539.716 112.914 539.939C112.682 540.161 112.403 540.273 112.076 540.273ZM120.401 553.227C119.417 553.227 118.552 552.993 117.809 552.524C117.07 552.055 116.493 551.4 116.076 550.557C115.664 549.714 115.458 548.729 115.458 547.602C115.458 546.466 115.664 545.474 116.076 544.626C116.493 543.779 117.07 543.121 117.809 542.652C118.552 542.183 119.417 541.949 120.401 541.949C121.386 541.949 122.248 542.183 122.987 542.652C123.73 543.121 124.308 543.779 124.72 544.626C125.136 545.474 125.345 546.466 125.345 547.602C125.345 548.729 125.136 549.714 124.72 550.557C124.308 551.4 123.73 552.055 122.987 552.524C122.248 552.993 121.386 553.227 120.401 553.227ZM120.401 551.722C121.15 551.722 121.765 551.53 122.248 551.146C122.731 550.763 123.088 550.259 123.32 549.634C123.552 549.009 123.669 548.331 123.669 547.602C123.669 546.873 123.552 546.194 123.32 545.564C123.088 544.934 122.731 544.425 122.248 544.037C121.765 543.649 121.15 543.455 120.401 543.455C119.653 543.455 119.038 543.649 118.555 544.037C118.072 544.425 117.714 544.934 117.482 545.564C117.25 546.194 117.134 546.873 117.134 547.602C117.134 548.331 117.25 549.009 117.482 549.634C117.714 550.259 118.072 550.763 118.555 551.146C119.038 551.53 119.653 551.722 120.401 551.722ZM127.903 553V542.091H129.523V543.739H129.636C129.835 543.199 130.195 542.761 130.716 542.425C131.237 542.089 131.824 541.92 132.477 541.92C132.6 541.92 132.754 541.923 132.939 541.928C133.123 541.932 133.263 541.939 133.358 541.949V543.653C133.301 543.639 133.171 543.618 132.967 543.589C132.768 543.556 132.558 543.54 132.335 543.54C131.805 543.54 131.331 543.651 130.915 543.874C130.503 544.091 130.176 544.394 129.934 544.783C129.698 545.166 129.579 545.604 129.579 546.097V553H127.903ZM145.686 553H141.197V538.455H145.884C147.295 538.455 148.503 538.746 149.507 539.328C150.51 539.906 151.28 540.737 151.815 541.821C152.35 542.901 152.617 544.193 152.617 545.699C152.617 547.214 152.347 548.518 151.808 549.612C151.268 550.701 150.482 551.539 149.45 552.126C148.418 552.709 147.163 553 145.686 553ZM142.958 551.438H145.572C146.775 551.438 147.771 551.205 148.562 550.741C149.353 550.277 149.942 549.617 150.33 548.76C150.719 547.903 150.913 546.883 150.913 545.699C150.913 544.525 150.721 543.514 150.338 542.666C149.954 541.814 149.381 541.161 148.619 540.706C147.856 540.247 146.907 540.017 145.771 540.017H142.958V551.438ZM159.919 553.227C158.867 553.227 157.961 552.995 157.198 552.531C156.441 552.062 155.856 551.409 155.444 550.571C155.037 549.728 154.833 548.748 154.833 547.631C154.833 546.513 155.037 545.528 155.444 544.676C155.856 543.819 156.429 543.152 157.163 542.673C157.901 542.19 158.763 541.949 159.748 541.949C160.316 541.949 160.877 542.044 161.431 542.233C161.985 542.422 162.49 542.73 162.944 543.156C163.399 543.578 163.761 544.136 164.031 544.832C164.301 545.528 164.436 546.385 164.436 547.403V548.114H156.026V546.665H162.731C162.731 546.049 162.608 545.5 162.362 545.017C162.12 544.534 161.775 544.153 161.325 543.874C160.88 543.594 160.354 543.455 159.748 543.455C159.08 543.455 158.503 543.62 158.015 543.952C157.532 544.278 157.16 544.705 156.9 545.23C156.64 545.756 156.509 546.319 156.509 546.92V547.886C156.509 548.71 156.651 549.409 156.936 549.982C157.224 550.55 157.624 550.983 158.136 551.281C158.647 551.575 159.241 551.722 159.919 551.722C160.359 551.722 160.757 551.66 161.112 551.537C161.472 551.409 161.782 551.22 162.042 550.969C162.302 550.713 162.504 550.396 162.646 550.017L164.265 550.472C164.095 551.021 163.808 551.504 163.406 551.92C163.003 552.332 162.506 552.654 161.914 552.886C161.322 553.114 160.657 553.227 159.919 553.227ZM174.713 544.534L173.207 544.96C173.112 544.709 172.972 544.465 172.788 544.229C172.608 543.987 172.362 543.788 172.049 543.632C171.737 543.476 171.337 543.398 170.849 543.398C170.181 543.398 169.625 543.552 169.18 543.859C168.74 544.162 168.519 544.548 168.519 545.017C168.519 545.434 168.671 545.763 168.974 546.004C169.277 546.246 169.75 546.447 170.394 546.608L172.014 547.006C172.989 547.242 173.716 547.605 174.194 548.092C174.672 548.575 174.911 549.198 174.911 549.96C174.911 550.585 174.731 551.144 174.372 551.636C174.017 552.129 173.519 552.517 172.88 552.801C172.241 553.085 171.498 553.227 170.65 553.227C169.537 553.227 168.616 552.986 167.887 552.503C167.158 552.02 166.696 551.314 166.502 550.386L168.093 549.989C168.245 550.576 168.531 551.016 168.953 551.31C169.379 551.603 169.935 551.75 170.622 551.75C171.403 551.75 172.023 551.584 172.482 551.253C172.946 550.917 173.178 550.514 173.178 550.045C173.178 549.667 173.046 549.349 172.781 549.094C172.516 548.833 172.108 548.639 171.559 548.511L169.741 548.085C168.742 547.848 168.008 547.482 167.539 546.984C167.075 546.482 166.843 545.855 166.843 545.102C166.843 544.487 167.016 543.942 167.362 543.469C167.712 542.995 168.188 542.624 168.789 542.354C169.395 542.084 170.082 541.949 170.849 541.949C171.928 541.949 172.776 542.186 173.392 542.659C174.012 543.133 174.452 543.758 174.713 544.534ZM177.434 553V542.091H179.111V553H177.434ZM178.287 540.273C177.96 540.273 177.678 540.161 177.442 539.939C177.21 539.716 177.094 539.449 177.094 539.136C177.094 538.824 177.21 538.556 177.442 538.334C177.678 538.111 177.96 538 178.287 538C178.613 538 178.893 538.111 179.125 538.334C179.362 538.556 179.48 538.824 179.48 539.136C179.48 539.449 179.362 539.716 179.125 539.939C178.893 540.161 178.613 540.273 178.287 540.273ZM186.584 557.318C185.774 557.318 185.078 557.214 184.496 557.006C183.914 556.802 183.428 556.532 183.04 556.196C182.656 555.865 182.351 555.509 182.124 555.131L183.459 554.193C183.61 554.392 183.802 554.619 184.034 554.875C184.266 555.135 184.584 555.36 184.986 555.55C185.393 555.744 185.926 555.841 186.584 555.841C187.465 555.841 188.191 555.628 188.764 555.202C189.337 554.776 189.624 554.108 189.624 553.199V550.983H189.482C189.359 551.182 189.183 551.428 188.956 551.722C188.734 552.01 188.412 552.268 187.99 552.496C187.574 552.718 187.01 552.83 186.3 552.83C185.419 552.83 184.628 552.621 183.928 552.205C183.232 551.788 182.68 551.182 182.273 550.386C181.87 549.591 181.669 548.625 181.669 547.489C181.669 546.371 181.866 545.398 182.259 544.57C182.652 543.736 183.199 543.092 183.899 542.638C184.6 542.179 185.41 541.949 186.328 541.949C187.039 541.949 187.602 542.067 188.019 542.304C188.44 542.536 188.762 542.801 188.985 543.099C189.212 543.393 189.387 543.634 189.51 543.824H189.681V542.091H191.3V553.312C191.3 554.25 191.087 555.012 190.661 555.599C190.239 556.191 189.671 556.625 188.956 556.899C188.246 557.179 187.455 557.318 186.584 557.318ZM186.527 551.324C187.2 551.324 187.768 551.17 188.232 550.862C188.696 550.554 189.048 550.112 189.29 549.534C189.531 548.956 189.652 548.265 189.652 547.46C189.652 546.674 189.534 545.981 189.297 545.379C189.06 544.778 188.71 544.307 188.246 543.966C187.782 543.625 187.209 543.455 186.527 543.455C185.817 543.455 185.225 543.634 184.752 543.994C184.283 544.354 183.93 544.837 183.693 545.443C183.461 546.049 183.345 546.722 183.345 547.46C183.345 548.218 183.464 548.888 183.7 549.47C183.942 550.048 184.297 550.502 184.766 550.834C185.239 551.161 185.826 551.324 186.527 551.324ZM196.044 546.438V553H194.368V542.091H195.987V543.795H196.129C196.385 543.241 196.773 542.796 197.294 542.46C197.815 542.119 198.487 541.949 199.311 541.949C200.05 541.949 200.696 542.1 201.25 542.403C201.804 542.702 202.235 543.156 202.543 543.767C202.851 544.373 203.004 545.14 203.004 546.068V553H201.328V546.182C201.328 545.325 201.106 544.657 200.661 544.179C200.216 543.696 199.605 543.455 198.828 543.455C198.293 543.455 197.815 543.571 197.394 543.803C196.977 544.035 196.648 544.373 196.406 544.818C196.165 545.263 196.044 545.803 196.044 546.438Z" fill="white"/>
<path d="M377.074 498.16C377.287 496.747 377.687 495.507 378.274 494.44C378.86 493.373 379.594 492.487 380.474 491.78C381.354 491.073 382.354 490.547 383.474 490.2C384.607 489.84 385.827 489.66 387.134 489.66C388.52 489.66 389.76 489.86 390.854 490.26C391.96 490.647 392.894 491.18 393.654 491.86C394.414 492.54 394.994 493.333 395.394 494.24C395.807 495.147 396.014 496.12 396.014 497.16C396.014 498.08 395.914 498.893 395.714 499.6C395.527 500.293 395.24 500.9 394.854 501.42C394.48 501.94 394.014 502.38 393.454 502.74C392.907 503.1 392.274 503.4 391.554 503.64C394.887 504.733 396.554 506.953 396.554 510.3C396.554 511.78 396.28 513.087 395.734 514.22C395.187 515.34 394.454 516.28 393.534 517.04C392.614 517.8 391.54 518.373 390.314 518.76C389.1 519.133 387.827 519.32 386.494 519.32C385.08 519.32 383.834 519.16 382.754 518.84C381.674 518.52 380.72 518.04 379.894 517.4C379.08 516.76 378.38 515.96 377.794 515C377.207 514.027 376.694 512.893 376.254 511.6L378.694 510.6C379.334 510.333 379.927 510.26 380.474 510.38C381.034 510.5 381.434 510.793 381.674 511.26C381.94 511.767 382.22 512.233 382.514 512.66C382.82 513.087 383.16 513.46 383.534 513.78C383.907 514.087 384.327 514.327 384.794 514.5C385.274 514.673 385.82 514.76 386.434 514.76C387.207 514.76 387.88 514.633 388.454 514.38C389.027 514.127 389.507 513.8 389.894 513.4C390.28 512.987 390.567 512.527 390.754 512.02C390.954 511.5 391.054 510.987 391.054 510.48C391.054 509.813 390.994 509.213 390.874 508.68C390.754 508.133 390.474 507.673 390.034 507.3C389.607 506.913 388.967 506.62 388.114 506.42C387.274 506.207 386.127 506.1 384.674 506.1V502.22C385.887 502.22 386.88 502.12 387.654 501.92C388.427 501.72 389.034 501.44 389.474 501.08C389.914 500.72 390.214 500.287 390.374 499.78C390.547 499.273 390.634 498.72 390.634 498.12C390.634 496.853 390.3 495.887 389.634 495.22C388.98 494.553 388.047 494.22 386.834 494.22C386.3 494.22 385.807 494.3 385.354 494.46C384.914 494.607 384.514 494.813 384.154 495.08C383.807 495.347 383.507 495.66 383.254 496.02C383 496.38 382.814 496.773 382.694 497.2C382.44 497.867 382.114 498.313 381.714 498.54C381.314 498.753 380.734 498.8 379.974 498.68L377.074 498.16ZM420.597 504.48C420.597 507.013 420.324 509.213 419.777 511.08C419.23 512.947 418.477 514.493 417.517 515.72C416.557 516.933 415.417 517.84 414.097 518.44C412.79 519.027 411.377 519.32 409.857 519.32C408.337 519.32 406.924 519.027 405.617 518.44C404.31 517.84 403.184 516.933 402.237 515.72C401.29 514.493 400.544 512.947 399.997 511.08C399.464 509.213 399.197 507.013 399.197 504.48C399.197 501.947 399.464 499.753 399.997 497.9C400.544 496.033 401.29 494.493 402.237 493.28C403.184 492.053 404.31 491.147 405.617 490.56C406.924 489.96 408.337 489.66 409.857 489.66C411.377 489.66 412.79 489.96 414.097 490.56C415.417 491.147 416.557 492.053 417.517 493.28C418.477 494.493 419.23 496.033 419.777 497.9C420.324 499.753 420.597 501.947 420.597 504.48ZM414.897 504.48C414.897 502.427 414.75 500.733 414.457 499.4C414.177 498.067 413.804 497.013 413.337 496.24C412.87 495.467 412.33 494.927 411.717 494.62C411.117 494.313 410.497 494.16 409.857 494.16C409.217 494.16 408.597 494.313 407.997 494.62C407.41 494.927 406.884 495.467 406.417 496.24C405.964 497.013 405.597 498.067 405.317 499.4C405.037 500.733 404.897 502.427 404.897 504.48C404.897 506.547 405.037 508.247 405.317 509.58C405.597 510.913 405.964 511.967 406.417 512.74C406.884 513.513 407.41 514.053 407.997 514.36C408.597 514.667 409.217 514.82 409.857 514.82C410.497 514.82 411.117 514.667 411.717 514.36C412.33 514.053 412.87 513.513 413.337 512.74C413.804 511.967 414.177 510.913 414.457 509.58C414.75 508.247 414.897 506.547 414.897 504.48ZM443.8 504.48C443.8 507.013 443.527 509.213 442.98 511.08C442.433 512.947 441.68 514.493 440.72 515.72C439.76 516.933 438.62 517.84 437.3 518.44C435.993 519.027 434.58 519.32 433.06 519.32C431.54 519.32 430.127 519.027 428.82 518.44C427.513 517.84 426.387 516.933 425.44 515.72C424.493 514.493 423.747 512.947 423.2 511.08C422.667 509.213 422.4 507.013 422.4 504.48C422.4 501.947 422.667 499.753 423.2 497.9C423.747 496.033 424.493 494.493 425.44 493.28C426.387 492.053 427.513 491.147 428.82 490.56C430.127 489.96 431.54 489.66 433.06 489.66C434.58 489.66 435.993 489.96 437.3 490.56C438.62 491.147 439.76 492.053 440.72 493.28C441.68 494.493 442.433 496.033 442.98 497.9C443.527 499.753 443.8 501.947 443.8 504.48ZM438.1 504.48C438.1 502.427 437.953 500.733 437.66 499.4C437.38 498.067 437.007 497.013 436.54 496.24C436.073 495.467 435.533 494.927 434.92 494.62C434.32 494.313 433.7 494.16 433.06 494.16C432.42 494.16 431.8 494.313 431.2 494.62C430.613 494.927 430.087 495.467 429.62 496.24C429.167 497.013 428.8 498.067 428.52 499.4C428.24 500.733 428.1 502.427 428.1 504.48C428.1 506.547 428.24 508.247 428.52 509.58C428.8 510.913 429.167 511.967 429.62 512.74C430.087 513.513 430.613 514.053 431.2 514.36C431.8 514.667 432.42 514.82 433.06 514.82C433.7 514.82 434.32 514.667 434.92 514.36C435.533 514.053 436.073 513.513 436.54 512.74C437.007 511.967 437.38 510.913 437.66 509.58C437.953 508.247 438.1 506.547 438.1 504.48ZM466.123 507.58H458.523V515.68H454.043V507.58H446.483V503.56H454.043V495.48H458.523V503.56H466.123V507.58Z" fill="white"/>
<path d="M346.734 556H342.246V541.455H346.933C348.344 541.455 349.552 541.746 350.555 542.328C351.559 542.906 352.329 543.737 352.864 544.821C353.399 545.901 353.666 547.193 353.666 548.699C353.666 550.214 353.396 551.518 352.857 552.612C352.317 553.701 351.531 554.539 350.499 555.126C349.466 555.709 348.212 556 346.734 556ZM344.007 554.438H346.621C347.823 554.438 348.82 554.205 349.611 553.741C350.402 553.277 350.991 552.617 351.379 551.76C351.768 550.903 351.962 549.883 351.962 548.699C351.962 547.525 351.77 546.514 351.386 545.666C351.003 544.814 350.43 544.161 349.668 543.706C348.905 543.247 347.956 543.017 346.82 543.017H344.007V554.438ZM360.967 556.227C359.916 556.227 359.009 555.995 358.247 555.531C357.49 555.062 356.905 554.409 356.493 553.571C356.086 552.728 355.882 551.748 355.882 550.631C355.882 549.513 356.086 548.528 356.493 547.676C356.905 546.819 357.478 546.152 358.212 545.673C358.95 545.19 359.812 544.949 360.797 544.949C361.365 544.949 361.926 545.044 362.48 545.233C363.034 545.422 363.538 545.73 363.993 546.156C364.447 546.578 364.81 547.136 365.08 547.832C365.349 548.528 365.484 549.385 365.484 550.403V551.114H357.075V549.665H363.78C363.78 549.049 363.657 548.5 363.411 548.017C363.169 547.534 362.823 547.153 362.374 546.874C361.929 546.594 361.403 546.455 360.797 546.455C360.129 546.455 359.552 546.62 359.064 546.952C358.581 547.278 358.209 547.705 357.949 548.23C357.688 548.756 357.558 549.319 357.558 549.92V550.886C357.558 551.71 357.7 552.409 357.984 552.982C358.273 553.55 358.673 553.983 359.185 554.281C359.696 554.575 360.29 554.722 360.967 554.722C361.408 554.722 361.805 554.66 362.161 554.537C362.52 554.409 362.83 554.22 363.091 553.969C363.351 553.713 363.553 553.396 363.695 553.017L365.314 553.472C365.143 554.021 364.857 554.504 364.455 554.92C364.052 555.332 363.555 555.654 362.963 555.886C362.371 556.114 361.706 556.227 360.967 556.227ZM375.761 547.534L374.256 547.96C374.161 547.709 374.021 547.465 373.837 547.229C373.657 546.987 373.411 546.788 373.098 546.632C372.786 546.476 372.385 546.398 371.898 546.398C371.23 546.398 370.674 546.552 370.229 546.859C369.788 547.162 369.568 547.548 369.568 548.017C369.568 548.434 369.72 548.763 370.023 549.004C370.326 549.246 370.799 549.447 371.443 549.608L373.062 550.006C374.038 550.242 374.765 550.605 375.243 551.092C375.721 551.575 375.96 552.198 375.96 552.96C375.96 553.585 375.78 554.144 375.42 554.636C375.065 555.129 374.568 555.517 373.929 555.801C373.29 556.085 372.546 556.227 371.699 556.227C370.586 556.227 369.665 555.986 368.936 555.503C368.207 555.02 367.745 554.314 367.551 553.386L369.142 552.989C369.294 553.576 369.58 554.016 370.001 554.31C370.428 554.603 370.984 554.75 371.67 554.75C372.452 554.75 373.072 554.584 373.531 554.253C373.995 553.917 374.227 553.514 374.227 553.045C374.227 552.667 374.095 552.349 373.83 552.094C373.564 551.833 373.157 551.639 372.608 551.511L370.79 551.085C369.791 550.848 369.057 550.482 368.588 549.984C368.124 549.482 367.892 548.855 367.892 548.102C367.892 547.487 368.065 546.942 368.411 546.469C368.761 545.995 369.237 545.624 369.838 545.354C370.444 545.084 371.131 544.949 371.898 544.949C372.977 544.949 373.825 545.186 374.44 545.659C375.061 546.133 375.501 546.758 375.761 547.534ZM378.483 556V545.091H380.159V556H378.483ZM379.336 543.273C379.009 543.273 378.727 543.161 378.49 542.939C378.258 542.716 378.142 542.449 378.142 542.136C378.142 541.824 378.258 541.556 378.49 541.334C378.727 541.111 379.009 541 379.336 541C379.662 541 379.942 541.111 380.174 541.334C380.41 541.556 380.529 541.824 380.529 542.136C380.529 542.449 380.41 542.716 380.174 542.939C379.942 543.161 379.662 543.273 379.336 543.273ZM387.633 560.318C386.823 560.318 386.127 560.214 385.545 560.006C384.962 559.802 384.477 559.532 384.089 559.196C383.705 558.865 383.4 558.509 383.173 558.131L384.508 557.193C384.659 557.392 384.851 557.619 385.083 557.875C385.315 558.135 385.632 558.36 386.035 558.55C386.442 558.744 386.975 558.841 387.633 558.841C388.513 558.841 389.24 558.628 389.813 558.202C390.386 557.776 390.673 557.108 390.673 556.199V553.983H390.531C390.407 554.182 390.232 554.428 390.005 554.722C389.782 555.01 389.46 555.268 389.039 555.496C388.622 555.718 388.059 555.83 387.349 555.83C386.468 555.83 385.677 555.621 384.977 555.205C384.281 554.788 383.729 554.182 383.322 553.386C382.919 552.591 382.718 551.625 382.718 550.489C382.718 549.371 382.915 548.398 383.308 547.57C383.701 546.736 384.247 546.092 384.948 545.638C385.649 545.179 386.459 544.949 387.377 544.949C388.087 544.949 388.651 545.067 389.067 545.304C389.489 545.536 389.811 545.801 390.033 546.099C390.261 546.393 390.436 546.634 390.559 546.824H390.729V545.091H392.349V556.312C392.349 557.25 392.136 558.012 391.71 558.599C391.288 559.191 390.72 559.625 390.005 559.899C389.295 560.179 388.504 560.318 387.633 560.318ZM387.576 554.324C388.248 554.324 388.817 554.17 389.281 553.862C389.745 553.554 390.097 553.112 390.339 552.534C390.58 551.956 390.701 551.265 390.701 550.46C390.701 549.674 390.583 548.981 390.346 548.379C390.109 547.778 389.759 547.307 389.295 546.966C388.831 546.625 388.258 546.455 387.576 546.455C386.866 546.455 386.274 546.634 385.8 546.994C385.332 547.354 384.979 547.837 384.742 548.443C384.51 549.049 384.394 549.722 384.394 550.46C384.394 551.218 384.513 551.888 384.749 552.47C384.991 553.048 385.346 553.502 385.815 553.834C386.288 554.161 386.875 554.324 387.576 554.324ZM397.093 549.438V556H395.417V545.091H397.036V546.795H397.178C397.434 546.241 397.822 545.796 398.343 545.46C398.864 545.119 399.536 544.949 400.36 544.949C401.099 544.949 401.745 545.1 402.299 545.403C402.853 545.702 403.284 546.156 403.592 546.767C403.899 547.373 404.053 548.14 404.053 549.068V556H402.377V549.182C402.377 548.325 402.155 547.657 401.71 547.179C401.264 546.696 400.654 546.455 399.877 546.455C399.342 546.455 398.864 546.571 398.442 546.803C398.026 547.035 397.697 547.373 397.455 547.818C397.214 548.263 397.093 548.803 397.093 549.438ZM411.69 556.227C410.639 556.227 409.732 555.995 408.97 555.531C408.212 555.062 407.627 554.409 407.216 553.571C406.808 552.728 406.605 551.748 406.605 550.631C406.605 549.513 406.808 548.528 407.216 547.676C407.627 546.819 408.2 546.152 408.934 545.673C409.673 545.19 410.535 544.949 411.52 544.949C412.088 544.949 412.649 545.044 413.203 545.233C413.757 545.422 414.261 545.73 414.716 546.156C415.17 546.578 415.532 547.136 415.802 547.832C416.072 548.528 416.207 549.385 416.207 550.403V551.114H407.798V549.665H414.502C414.502 549.049 414.379 548.5 414.133 548.017C413.892 547.534 413.546 547.153 413.096 546.874C412.651 546.594 412.126 546.455 411.52 546.455C410.852 546.455 410.274 546.62 409.787 546.952C409.304 547.278 408.932 547.705 408.672 548.23C408.411 548.756 408.281 549.319 408.281 549.92V550.886C408.281 551.71 408.423 552.409 408.707 552.982C408.996 553.55 409.396 553.983 409.907 554.281C410.419 554.575 411.013 554.722 411.69 554.722C412.13 554.722 412.528 554.66 412.883 554.537C413.243 554.409 413.553 554.22 413.814 553.969C414.074 553.713 414.275 553.396 414.417 553.017L416.037 553.472C415.866 554.021 415.58 554.504 415.177 554.92C414.775 555.332 414.278 555.654 413.686 555.886C413.094 556.114 412.429 556.227 411.69 556.227ZM418.757 556V545.091H420.376V546.739H420.49C420.689 546.199 421.048 545.761 421.569 545.425C422.09 545.089 422.677 544.92 423.331 544.92C423.454 544.92 423.608 544.923 423.792 544.928C423.977 544.932 424.117 544.939 424.211 544.949V546.653C424.154 546.639 424.024 546.618 423.821 546.589C423.622 546.556 423.411 546.54 423.189 546.54C422.658 546.54 422.185 546.651 421.768 546.874C421.356 547.091 421.029 547.394 420.788 547.783C420.551 548.166 420.433 548.604 420.433 549.097V556H418.757ZM432.05 556V541.455H440.829V543.017H433.812V547.932H440.374V549.494H433.812V554.438H440.942V556H432.05ZM445.026 545.091L447.64 549.551L450.254 545.091H452.185L448.663 550.545L452.185 556H450.254L447.64 551.767L445.026 556H443.094L446.56 550.545L443.094 545.091H445.026ZM454.577 560.091V545.091H456.196V546.824H456.395C456.518 546.634 456.689 546.393 456.907 546.099C457.129 545.801 457.446 545.536 457.858 545.304C458.275 545.067 458.838 544.949 459.549 544.949C460.467 544.949 461.277 545.179 461.978 545.638C462.678 546.097 463.225 546.748 463.618 547.591C464.011 548.434 464.208 549.428 464.208 550.574C464.208 551.729 464.011 552.731 463.618 553.578C463.225 554.421 462.681 555.074 461.985 555.538C461.289 555.998 460.486 556.227 459.577 556.227C458.876 556.227 458.315 556.111 457.894 555.879C457.472 555.643 457.148 555.375 456.921 555.077C456.694 554.774 456.518 554.523 456.395 554.324H456.253V560.091H454.577ZM456.225 550.545C456.225 551.369 456.346 552.096 456.587 552.726C456.828 553.351 457.181 553.841 457.645 554.196C458.109 554.546 458.677 554.722 459.35 554.722C460.051 554.722 460.635 554.537 461.104 554.168C461.578 553.794 461.933 553.292 462.169 552.662C462.411 552.027 462.532 551.322 462.532 550.545C462.532 549.778 462.413 549.087 462.176 548.472C461.944 547.851 461.592 547.361 461.118 547.001C460.65 546.637 460.06 546.455 459.35 546.455C458.668 546.455 458.095 546.627 457.631 546.973C457.167 547.314 456.817 547.792 456.58 548.408C456.343 549.018 456.225 549.731 456.225 550.545ZM471.338 556.227C470.287 556.227 469.381 555.995 468.618 555.531C467.861 555.062 467.276 554.409 466.864 553.571C466.457 552.728 466.253 551.748 466.253 550.631C466.253 549.513 466.457 548.528 466.864 547.676C467.276 546.819 467.849 546.152 468.583 545.673C469.321 545.19 470.183 544.949 471.168 544.949C471.736 544.949 472.297 545.044 472.851 545.233C473.405 545.422 473.909 545.73 474.364 546.156C474.819 546.578 475.181 547.136 475.451 547.832C475.721 548.528 475.855 549.385 475.855 550.403V551.114H467.446V549.665H474.151C474.151 549.049 474.028 548.5 473.782 548.017C473.54 547.534 473.194 547.153 472.745 546.874C472.3 546.594 471.774 546.455 471.168 546.455C470.5 546.455 469.923 546.62 469.435 546.952C468.952 547.278 468.58 547.705 468.32 548.23C468.06 548.756 467.929 549.319 467.929 549.92V550.886C467.929 551.71 468.071 552.409 468.355 552.982C468.644 553.55 469.044 553.983 469.556 554.281C470.067 554.575 470.661 554.722 471.338 554.722C471.779 554.722 472.176 554.66 472.532 554.537C472.891 554.409 473.202 554.22 473.462 553.969C473.722 553.713 473.924 553.396 474.066 553.017L475.685 553.472C475.515 554.021 475.228 554.504 474.826 554.92C474.423 555.332 473.926 555.654 473.334 555.886C472.742 556.114 472.077 556.227 471.338 556.227ZM478.405 556V545.091H480.025V546.739H480.138C480.337 546.199 480.697 545.761 481.218 545.425C481.739 545.089 482.326 544.92 482.979 544.92C483.102 544.92 483.256 544.923 483.441 544.928C483.625 544.932 483.765 544.939 483.86 544.949V546.653C483.803 546.639 483.673 546.618 483.469 546.589C483.27 546.556 483.06 546.54 482.837 546.54C482.307 546.54 481.833 546.651 481.417 546.874C481.005 547.091 480.678 547.394 480.436 547.783C480.2 548.166 480.081 548.604 480.081 549.097V556H478.405ZM491.275 545.091V546.511H485.621V545.091H491.275ZM487.269 542.477H488.945V552.875C488.945 553.348 489.014 553.704 489.151 553.94C489.293 554.172 489.473 554.329 489.691 554.409C489.913 554.485 490.148 554.523 490.394 554.523C490.578 554.523 490.73 554.513 490.848 554.494C490.967 554.471 491.061 554.452 491.132 554.438L491.473 555.943C491.36 555.986 491.201 556.028 490.998 556.071C490.794 556.118 490.536 556.142 490.223 556.142C489.75 556.142 489.286 556.04 488.831 555.837C488.382 555.633 488.007 555.323 487.709 554.906C487.416 554.49 487.269 553.964 487.269 553.33V542.477ZM501.328 547.534L499.822 547.96C499.727 547.709 499.588 547.465 499.403 547.229C499.223 546.987 498.977 546.788 498.664 546.632C498.352 546.476 497.952 546.398 497.464 546.398C496.797 546.398 496.24 546.552 495.795 546.859C495.355 547.162 495.135 547.548 495.135 548.017C495.135 548.434 495.286 548.763 495.589 549.004C495.892 549.246 496.366 549.447 497.01 549.608L498.629 550.006C499.604 550.242 500.331 550.605 500.809 551.092C501.288 551.575 501.527 552.198 501.527 552.96C501.527 553.585 501.347 554.144 500.987 554.636C500.632 555.129 500.135 555.517 499.495 555.801C498.856 556.085 498.113 556.227 497.265 556.227C496.153 556.227 495.232 555.986 494.502 555.503C493.773 555.02 493.312 554.314 493.118 553.386L494.708 552.989C494.86 553.576 495.146 554.016 495.568 554.31C495.994 554.603 496.55 554.75 497.237 554.75C498.018 554.75 498.638 554.584 499.098 554.253C499.562 553.917 499.794 553.514 499.794 553.045C499.794 552.667 499.661 552.349 499.396 552.094C499.131 551.833 498.724 551.639 498.174 551.511L496.356 551.085C495.357 550.848 494.623 550.482 494.154 549.984C493.69 549.482 493.458 548.855 493.458 548.102C493.458 547.487 493.631 546.942 493.977 546.469C494.327 545.995 494.803 545.624 495.404 545.354C496.011 545.084 496.697 544.949 497.464 544.949C498.544 544.949 499.391 545.186 500.007 545.659C500.627 546.133 501.067 546.758 501.328 547.534Z" fill="white"/>
<path d="M653.84 517.94V522H637.56V517.94H643.32V502.06C643.32 501.713 643.327 501.36 643.34 501C643.353 500.64 643.373 500.273 643.4 499.9L639.6 503.06C639.333 503.26 639.073 503.387 638.82 503.44C638.567 503.493 638.327 503.5 638.1 503.46C637.873 503.407 637.673 503.327 637.5 503.22C637.327 503.1 637.193 502.98 637.1 502.86L635.36 500.52L644.28 492.96H648.82V517.94H653.84ZM675.783 516.94C676.383 516.94 676.85 517.107 677.183 517.44C677.53 517.773 677.703 518.213 677.703 518.76V522H657.583V520.2C657.583 519.853 657.656 519.48 657.803 519.08C657.95 518.667 658.196 518.293 658.543 517.96L667.143 509.34C667.876 508.607 668.523 507.907 669.083 507.24C669.643 506.56 670.11 505.9 670.483 505.26C670.856 504.607 671.136 503.947 671.323 503.28C671.51 502.613 671.603 501.913 671.603 501.18C671.603 499.887 671.27 498.907 670.603 498.24C669.936 497.56 668.996 497.22 667.783 497.22C667.25 497.22 666.756 497.3 666.303 497.46C665.863 497.607 665.463 497.813 665.103 498.08C664.756 498.347 664.456 498.66 664.203 499.02C663.95 499.38 663.763 499.773 663.643 500.2C663.403 500.867 663.076 501.313 662.663 501.54C662.263 501.753 661.69 501.8 660.943 501.68L658.023 501.16C658.236 499.747 658.636 498.507 659.223 497.44C659.81 496.373 660.543 495.487 661.423 494.78C662.303 494.073 663.31 493.547 664.443 493.2C665.576 492.84 666.796 492.66 668.103 492.66C669.476 492.66 670.723 492.867 671.843 493.28C672.976 493.68 673.943 494.247 674.743 494.98C675.543 495.7 676.163 496.573 676.603 497.6C677.043 498.627 677.263 499.76 677.263 501C677.263 502.067 677.11 503.053 676.803 503.96C676.496 504.867 676.076 505.733 675.543 506.56C675.023 507.373 674.416 508.167 673.723 508.94C673.03 509.713 672.296 510.493 671.523 511.28L665.363 517.58C666.043 517.38 666.716 517.227 667.383 517.12C668.05 517 668.676 516.94 669.263 516.94H675.783Z" fill="white"/>
<path d="M643.677 548.091C643.592 547.371 643.246 546.812 642.64 546.415C642.034 546.017 641.29 545.818 640.41 545.818C639.766 545.818 639.202 545.922 638.719 546.131C638.241 546.339 637.867 546.625 637.597 546.99C637.332 547.355 637.2 547.769 637.2 548.233C637.2 548.621 637.292 548.955 637.477 549.234C637.666 549.509 637.907 549.739 638.201 549.923C638.495 550.103 638.802 550.252 639.124 550.371C639.446 550.484 639.742 550.577 640.012 550.648L641.489 551.045C641.868 551.145 642.29 551.282 642.754 551.457C643.222 551.633 643.67 551.872 644.096 552.175C644.527 552.473 644.882 552.857 645.161 553.325C645.441 553.794 645.58 554.369 645.58 555.051C645.58 555.837 645.374 556.547 644.962 557.182C644.555 557.816 643.959 558.321 643.173 558.695C642.391 559.069 641.442 559.256 640.325 559.256C639.283 559.256 638.381 559.088 637.619 558.751C636.861 558.415 636.264 557.946 635.829 557.345C635.398 556.744 635.154 556.045 635.097 555.25H636.915C636.963 555.799 637.147 556.254 637.469 556.614C637.796 556.969 638.208 557.234 638.705 557.409C639.207 557.58 639.747 557.665 640.325 557.665C640.997 557.665 641.601 557.556 642.136 557.338C642.671 557.116 643.094 556.808 643.407 556.415C643.719 556.017 643.876 555.553 643.876 555.023C643.876 554.54 643.741 554.147 643.471 553.844C643.201 553.541 642.846 553.295 642.406 553.105C641.965 552.916 641.489 552.75 640.978 552.608L639.188 552.097C638.052 551.77 637.152 551.304 636.489 550.697C635.826 550.091 635.495 549.298 635.495 548.318C635.495 547.504 635.715 546.794 636.156 546.188C636.601 545.577 637.197 545.103 637.945 544.767C638.698 544.426 639.539 544.256 640.467 544.256C641.404 544.256 642.237 544.424 642.967 544.76C643.696 545.091 644.273 545.546 644.7 546.124C645.13 546.701 645.358 547.357 645.381 548.091H643.677ZM652.993 548.091V549.511H647.34V548.091H652.993ZM648.988 545.477H650.664V555.875C650.664 556.348 650.732 556.704 650.87 556.94C651.012 557.172 651.192 557.329 651.409 557.409C651.632 557.485 651.866 557.523 652.113 557.523C652.297 557.523 652.449 557.513 652.567 557.494C652.685 557.471 652.78 557.452 652.851 557.438L653.192 558.943C653.078 558.986 652.92 559.028 652.716 559.071C652.513 559.118 652.255 559.142 651.942 559.142C651.469 559.142 651.005 559.04 650.55 558.837C650.1 558.633 649.726 558.323 649.428 557.906C649.134 557.49 648.988 556.964 648.988 556.33V545.477ZM658.725 559.256C658.033 559.256 657.406 559.125 656.843 558.865C656.279 558.6 655.832 558.219 655.5 557.722C655.169 557.22 655.003 556.614 655.003 555.903C655.003 555.278 655.126 554.772 655.373 554.384C655.619 553.991 655.948 553.683 656.36 553.46C656.772 553.238 657.226 553.072 657.723 552.963C658.225 552.849 658.73 552.759 659.236 552.693C659.899 552.608 660.436 552.544 660.848 552.501C661.265 552.454 661.568 552.376 661.757 552.267C661.952 552.158 662.049 551.969 662.049 551.699V551.642C662.049 550.941 661.857 550.397 661.473 550.009C661.095 549.62 660.519 549.426 659.748 549.426C658.947 549.426 658.32 549.601 657.865 549.952C657.411 550.302 657.091 550.676 656.907 551.074L655.316 550.506C655.6 549.843 655.979 549.327 656.452 548.957C656.93 548.583 657.451 548.323 658.015 548.176C658.583 548.025 659.141 547.949 659.691 547.949C660.041 547.949 660.444 547.991 660.898 548.077C661.357 548.157 661.8 548.325 662.226 548.581C662.657 548.837 663.015 549.223 663.299 549.739C663.583 550.255 663.725 550.946 663.725 551.812V559H662.049V557.523H661.963C661.85 557.759 661.66 558.013 661.395 558.283C661.13 558.553 660.777 558.782 660.337 558.972C659.897 559.161 659.359 559.256 658.725 559.256ZM658.98 557.75C659.643 557.75 660.202 557.62 660.657 557.359C661.116 557.099 661.462 556.763 661.694 556.351C661.93 555.939 662.049 555.506 662.049 555.051V553.517C661.978 553.602 661.821 553.68 661.58 553.751C661.343 553.818 661.069 553.877 660.756 553.929C660.448 553.976 660.148 554.019 659.854 554.057C659.565 554.09 659.331 554.118 659.151 554.142C658.715 554.199 658.308 554.291 657.929 554.419C657.555 554.542 657.252 554.729 657.02 554.98C656.793 555.226 656.679 555.562 656.679 555.989C656.679 556.571 656.895 557.011 657.326 557.31C657.761 557.603 658.313 557.75 658.98 557.75ZM671.528 548.091V549.511H665.875V548.091H671.528ZM667.523 545.477H669.199V555.875C669.199 556.348 669.268 556.704 669.405 556.94C669.547 557.172 669.727 557.329 669.945 557.409C670.167 557.485 670.402 557.523 670.648 557.523C670.832 557.523 670.984 557.513 671.102 557.494C671.221 557.471 671.315 557.452 671.386 557.438L671.727 558.943C671.614 558.986 671.455 559.028 671.251 559.071C671.048 559.118 670.79 559.142 670.477 559.142C670.004 559.142 669.54 559.04 669.085 558.837C668.635 558.633 668.261 558.323 667.963 557.906C667.67 557.49 667.523 556.964 667.523 556.33V545.477ZM678.506 559.227C677.455 559.227 676.549 558.995 675.786 558.531C675.029 558.062 674.444 557.409 674.032 556.571C673.625 555.728 673.421 554.748 673.421 553.631C673.421 552.513 673.625 551.528 674.032 550.676C674.444 549.819 675.017 549.152 675.751 548.673C676.489 548.19 677.351 547.949 678.336 547.949C678.904 547.949 679.465 548.044 680.019 548.233C680.573 548.422 681.077 548.73 681.532 549.156C681.987 549.578 682.349 550.136 682.619 550.832C682.888 551.528 683.023 552.385 683.023 553.403V554.114H674.614V552.665H681.319C681.319 552.049 681.196 551.5 680.95 551.017C680.708 550.534 680.362 550.153 679.913 549.874C679.468 549.594 678.942 549.455 678.336 549.455C677.668 549.455 677.091 549.62 676.603 549.952C676.12 550.278 675.748 550.705 675.488 551.23C675.228 551.756 675.097 552.319 675.097 552.92V553.886C675.097 554.71 675.239 555.409 675.523 555.982C675.812 556.55 676.212 556.983 676.724 557.281C677.235 557.575 677.829 557.722 678.506 557.722C678.947 557.722 679.344 557.66 679.7 557.537C680.059 557.409 680.37 557.22 680.63 556.969C680.89 556.713 681.092 556.396 681.234 556.017L682.853 556.472C682.683 557.021 682.396 557.504 681.994 557.92C681.591 558.332 681.094 558.654 680.502 558.886C679.91 559.114 679.245 559.227 678.506 559.227Z" fill="white"/>
<path d="M848.58 516.94C849.18 516.94 849.647 517.107 849.98 517.44C850.327 517.773 850.5 518.213 850.5 518.76V522H830.38V520.2C830.38 519.853 830.453 519.48 830.6 519.08C830.747 518.667 830.993 518.293 831.34 517.96L839.94 509.34C840.673 508.607 841.32 507.907 841.88 507.24C842.44 506.56 842.907 505.9 843.28 505.26C843.653 504.607 843.933 503.947 844.12 503.28C844.307 502.613 844.4 501.913 844.4 501.18C844.4 499.887 844.067 498.907 843.4 498.24C842.733 497.56 841.793 497.22 840.58 497.22C840.047 497.22 839.553 497.3 839.1 497.46C838.66 497.607 838.26 497.813 837.9 498.08C837.553 498.347 837.253 498.66 837 499.02C836.747 499.38 836.56 499.773 836.44 500.2C836.2 500.867 835.873 501.313 835.46 501.54C835.06 501.753 834.487 501.8 833.74 501.68L830.82 501.16C831.033 499.747 831.433 498.507 832.02 497.44C832.607 496.373 833.34 495.487 834.22 494.78C835.1 494.073 836.107 493.547 837.24 493.2C838.373 492.84 839.593 492.66 840.9 492.66C842.273 492.66 843.52 492.867 844.64 493.28C845.773 493.68 846.74 494.247 847.54 494.98C848.34 495.7 848.96 496.573 849.4 497.6C849.84 498.627 850.06 499.76 850.06 501C850.06 502.067 849.907 503.053 849.6 503.96C849.293 504.867 848.873 505.733 848.34 506.56C847.82 507.373 847.213 508.167 846.52 508.94C845.827 509.713 845.093 510.493 844.32 511.28L838.16 517.58C838.84 517.38 839.513 517.227 840.18 517.12C840.847 517 841.473 516.94 842.06 516.94H848.58ZM869.535 492.18V522H864.015V492.18H869.535ZM884.912 513.38C883.565 513.447 882.445 513.567 881.552 513.74C880.658 513.9 879.945 514.113 879.412 514.38C878.892 514.647 878.518 514.953 878.292 515.3C878.078 515.633 877.972 516 877.972 516.4C877.972 517.2 878.192 517.767 878.632 518.1C879.085 518.433 879.712 518.6 880.512 518.6C881.432 518.6 882.225 518.44 882.892 518.12C883.572 517.787 884.245 517.273 884.912 516.58V513.38ZM873.672 504.24C874.885 503.147 876.225 502.333 877.692 501.8C879.158 501.253 880.745 500.98 882.452 500.98C883.678 500.98 884.772 501.18 885.732 501.58C886.705 501.98 887.525 502.54 888.192 503.26C888.872 503.967 889.392 504.813 889.752 505.8C890.112 506.787 890.292 507.867 890.292 509.04V522H887.772C887.252 522 886.852 521.927 886.572 521.78C886.305 521.633 886.085 521.327 885.912 520.86L885.472 519.54C884.952 519.993 884.445 520.393 883.952 520.74C883.472 521.087 882.972 521.38 882.452 521.62C881.932 521.847 881.372 522.02 880.772 522.14C880.185 522.26 879.525 522.32 878.792 522.32C877.885 522.32 877.058 522.2 876.312 521.96C875.565 521.72 874.918 521.367 874.372 520.9C873.838 520.42 873.425 519.827 873.132 519.12C872.838 518.413 872.692 517.6 872.692 516.68C872.692 515.92 872.885 515.16 873.272 514.4C873.658 513.64 874.318 512.953 875.252 512.34C876.198 511.713 877.452 511.2 879.012 510.8C880.585 510.387 882.552 510.153 884.912 510.1V509.04C884.912 507.747 884.638 506.8 884.092 506.2C883.545 505.587 882.758 505.28 881.732 505.28C880.972 505.28 880.338 505.373 879.832 505.56C879.325 505.733 878.878 505.927 878.492 506.14C878.118 506.34 877.765 506.533 877.432 506.72C877.098 506.893 876.712 506.98 876.272 506.98C875.885 506.98 875.558 506.887 875.292 506.7C875.038 506.5 874.825 506.267 874.652 506L873.672 504.24ZM900.12 492.18V509.1H901.04C901.387 509.1 901.66 509.053 901.86 508.96C902.06 508.853 902.26 508.667 902.46 508.4L907.02 502.32C907.247 502.013 907.5 501.78 907.78 501.62C908.074 501.46 908.44 501.38 908.88 501.38H913.92L908 508.9C907.534 509.527 906.994 510.02 906.38 510.38C906.687 510.593 906.954 510.84 907.18 511.12C907.407 511.4 907.627 511.713 907.84 512.06L914.22 522H909.26C908.834 522 908.467 521.933 908.16 521.8C907.854 521.653 907.6 521.4 907.4 521.04L902.76 513.46C902.574 513.14 902.38 512.933 902.18 512.84C901.98 512.747 901.68 512.7 901.28 512.7H900.12V522H894.6V492.18H900.12ZM921.956 503.4C922.343 503.053 922.743 502.74 923.156 502.46C923.583 502.167 924.03 501.92 924.496 501.72C924.976 501.507 925.483 501.347 926.016 501.24C926.563 501.12 927.15 501.06 927.776 501.06C928.896 501.06 929.89 501.253 930.756 501.64C931.623 502.027 932.35 502.567 932.936 503.26C933.536 503.953 933.983 504.78 934.276 505.74C934.583 506.7 934.736 507.753 934.736 508.9V522H929.236V508.9C929.236 507.753 928.97 506.867 928.436 506.24C927.903 505.6 927.116 505.28 926.076 505.28C925.303 505.28 924.576 505.447 923.896 505.78C923.216 506.113 922.57 506.58 921.956 507.18V522H916.436V492.18H921.956V503.4ZM958.272 510.58H950.672V518.68H946.192V510.58H938.632V506.56H946.192V498.48H950.672V506.56H958.272V510.58Z" fill="white"/>
<path d="M835.25 559H830.761V544.455H835.449C836.86 544.455 838.067 544.746 839.071 545.328C840.075 545.906 840.844 546.737 841.379 547.821C841.914 548.901 842.182 550.193 842.182 551.699C842.182 553.214 841.912 554.518 841.372 555.612C840.832 556.701 840.046 557.539 839.014 558.126C837.982 558.709 836.727 559 835.25 559ZM832.523 557.438H835.136C836.339 557.438 837.336 557.205 838.126 556.741C838.917 556.277 839.507 555.617 839.895 554.76C840.283 553.903 840.477 552.883 840.477 551.699C840.477 550.525 840.286 549.514 839.902 548.666C839.518 547.814 838.946 547.161 838.183 546.706C837.421 546.247 836.472 546.017 835.335 546.017H832.523V557.438ZM849.483 559.227C848.432 559.227 847.525 558.995 846.763 558.531C846.005 558.062 845.42 557.409 845.009 556.571C844.601 555.728 844.398 554.748 844.398 553.631C844.398 552.513 844.601 551.528 845.009 550.676C845.42 549.819 845.993 549.152 846.727 548.673C847.466 548.19 848.328 547.949 849.312 547.949C849.881 547.949 850.442 548.044 850.996 548.233C851.55 548.422 852.054 548.73 852.509 549.156C852.963 549.578 853.325 550.136 853.595 550.832C853.865 551.528 854 552.385 854 553.403V554.114H845.591V552.665H852.295C852.295 552.049 852.172 551.5 851.926 551.017C851.685 550.534 851.339 550.153 850.889 549.874C850.444 549.594 849.919 549.455 849.312 549.455C848.645 549.455 848.067 549.62 847.58 549.952C847.097 550.278 846.725 550.705 846.464 551.23C846.204 551.756 846.074 552.319 846.074 552.92V553.886C846.074 554.71 846.216 555.409 846.5 555.982C846.789 556.55 847.189 556.983 847.7 557.281C848.212 557.575 848.806 557.722 849.483 557.722C849.923 557.722 850.321 557.66 850.676 557.537C851.036 557.409 851.346 557.22 851.607 556.969C851.867 556.713 852.068 556.396 852.21 556.017L853.83 556.472C853.659 557.021 853.373 557.504 852.97 557.92C852.568 558.332 852.071 558.654 851.479 558.886C850.887 559.114 850.222 559.227 849.483 559.227ZM864.277 550.534L862.771 550.96C862.677 550.709 862.537 550.465 862.352 550.229C862.172 549.987 861.926 549.788 861.614 549.632C861.301 549.476 860.901 549.398 860.413 549.398C859.746 549.398 859.189 549.552 858.744 549.859C858.304 550.162 858.084 550.548 858.084 551.017C858.084 551.434 858.235 551.763 858.538 552.004C858.841 552.246 859.315 552.447 859.959 552.608L861.578 553.006C862.554 553.242 863.28 553.605 863.759 554.092C864.237 554.575 864.476 555.198 864.476 555.96C864.476 556.585 864.296 557.144 863.936 557.636C863.581 558.129 863.084 558.517 862.445 558.801C861.805 559.085 861.062 559.227 860.214 559.227C859.102 559.227 858.181 558.986 857.452 558.503C856.723 558.02 856.261 557.314 856.067 556.386L857.658 555.989C857.809 556.576 858.096 557.016 858.517 557.31C858.943 557.603 859.5 557.75 860.186 557.75C860.967 557.75 861.588 557.584 862.047 557.253C862.511 556.917 862.743 556.514 862.743 556.045C862.743 555.667 862.61 555.349 862.345 555.094C862.08 554.833 861.673 554.639 861.124 554.511L859.305 554.085C858.306 553.848 857.572 553.482 857.104 552.984C856.64 552.482 856.408 551.855 856.408 551.102C856.408 550.487 856.58 549.942 856.926 549.469C857.277 548.995 857.752 548.624 858.354 548.354C858.96 548.084 859.646 547.949 860.413 547.949C861.493 547.949 862.34 548.186 862.956 548.659C863.576 549.133 864.017 549.758 864.277 550.534ZM866.999 559V548.091H868.675V559H866.999ZM867.851 546.273C867.525 546.273 867.243 546.161 867.006 545.939C866.774 545.716 866.658 545.449 866.658 545.136C866.658 544.824 866.774 544.556 867.006 544.334C867.243 544.111 867.525 544 867.851 544C868.178 544 868.457 544.111 868.689 544.334C868.926 544.556 869.044 544.824 869.044 545.136C869.044 545.449 868.926 545.716 868.689 545.939C868.457 546.161 868.178 546.273 867.851 546.273ZM876.148 563.318C875.339 563.318 874.643 563.214 874.06 563.006C873.478 562.802 872.993 562.532 872.604 562.196C872.221 561.865 871.915 561.509 871.688 561.131L873.023 560.193C873.175 560.392 873.367 560.619 873.599 560.875C873.831 561.135 874.148 561.36 874.55 561.55C874.958 561.744 875.49 561.841 876.148 561.841C877.029 561.841 877.756 561.628 878.329 561.202C878.902 560.776 879.188 560.108 879.188 559.199V556.983H879.046C878.923 557.182 878.748 557.428 878.521 557.722C878.298 558.01 877.976 558.268 877.555 558.496C877.138 558.718 876.575 558.83 875.864 558.83C874.984 558.83 874.193 558.621 873.492 558.205C872.796 557.788 872.245 557.182 871.837 556.386C871.435 555.591 871.234 554.625 871.234 553.489C871.234 552.371 871.43 551.398 871.823 550.57C872.216 549.736 872.763 549.092 873.464 548.638C874.165 548.179 874.974 547.949 875.893 547.949C876.603 547.949 877.166 548.067 877.583 548.304C878.004 548.536 878.326 548.801 878.549 549.099C878.776 549.393 878.951 549.634 879.075 549.824H879.245V548.091H880.864V559.312C880.864 560.25 880.651 561.012 880.225 561.599C879.804 562.191 879.236 562.625 878.521 562.899C877.81 563.179 877.02 563.318 876.148 563.318ZM876.092 557.324C876.764 557.324 877.332 557.17 877.796 556.862C878.26 556.554 878.613 556.112 878.854 555.534C879.096 554.956 879.217 554.265 879.217 553.46C879.217 552.674 879.098 551.981 878.862 551.379C878.625 550.778 878.274 550.307 877.81 549.966C877.346 549.625 876.773 549.455 876.092 549.455C875.381 549.455 874.79 549.634 874.316 549.994C873.847 550.354 873.495 550.837 873.258 551.443C873.026 552.049 872.91 552.722 872.91 553.46C872.91 554.218 873.028 554.888 873.265 555.47C873.506 556.048 873.862 556.502 874.33 556.834C874.804 557.161 875.391 557.324 876.092 557.324ZM885.609 552.438V559H883.933V548.091H885.552V549.795H885.694C885.95 549.241 886.338 548.796 886.859 548.46C887.379 548.119 888.052 547.949 888.876 547.949C889.614 547.949 890.261 548.1 890.815 548.403C891.369 548.702 891.799 549.156 892.107 549.767C892.415 550.373 892.569 551.14 892.569 552.068V559H890.893V552.182C890.893 551.325 890.67 550.657 890.225 550.179C889.78 549.696 889.169 549.455 888.393 549.455C887.858 549.455 887.379 549.571 886.958 549.803C886.541 550.035 886.212 550.373 885.971 550.818C885.729 551.263 885.609 551.803 885.609 552.438ZM905.689 559.227C904.704 559.227 903.84 558.993 903.096 558.524C902.358 558.055 901.78 557.4 901.363 556.557C900.951 555.714 900.745 554.729 900.745 553.602C900.745 552.466 900.951 551.474 901.363 550.626C901.78 549.779 902.358 549.121 903.096 548.652C903.84 548.183 904.704 547.949 905.689 547.949C906.673 547.949 907.535 548.183 908.274 548.652C909.017 549.121 909.595 549.779 910.007 550.626C910.423 551.474 910.632 552.466 910.632 553.602C910.632 554.729 910.423 555.714 910.007 556.557C909.595 557.4 909.017 558.055 908.274 558.524C907.535 558.993 906.673 559.227 905.689 559.227ZM905.689 557.722C906.437 557.722 907.052 557.53 907.535 557.146C908.018 556.763 908.376 556.259 908.608 555.634C908.84 555.009 908.956 554.331 908.956 553.602C908.956 552.873 908.84 552.194 908.608 551.564C908.376 550.934 908.018 550.425 907.535 550.037C907.052 549.649 906.437 549.455 905.689 549.455C904.94 549.455 904.325 549.649 903.842 550.037C903.359 550.425 903.002 550.934 902.77 551.564C902.538 552.194 902.422 552.873 902.422 553.602C902.422 554.331 902.538 555.009 902.77 555.634C903.002 556.259 903.359 556.763 903.842 557.146C904.325 557.53 904.94 557.722 905.689 557.722ZM913.19 563.091V548.091H914.81V549.824H915.009C915.132 549.634 915.302 549.393 915.52 549.099C915.742 548.801 916.06 548.536 916.472 548.304C916.888 548.067 917.452 547.949 918.162 547.949C919.08 547.949 919.89 548.179 920.591 548.638C921.292 549.097 921.839 549.748 922.232 550.591C922.625 551.434 922.821 552.428 922.821 553.574C922.821 554.729 922.625 555.731 922.232 556.578C921.839 557.421 921.294 558.074 920.598 558.538C919.902 558.998 919.099 559.227 918.19 559.227C917.49 559.227 916.929 559.111 916.507 558.879C916.086 558.643 915.761 558.375 915.534 558.077C915.307 557.774 915.132 557.523 915.009 557.324H914.866V563.091H913.19ZM914.838 553.545C914.838 554.369 914.959 555.096 915.2 555.726C915.442 556.351 915.795 556.841 916.259 557.196C916.723 557.546 917.291 557.722 917.963 557.722C918.664 557.722 919.249 557.537 919.717 557.168C920.191 556.794 920.546 556.292 920.783 555.662C921.024 555.027 921.145 554.322 921.145 553.545C921.145 552.778 921.027 552.087 920.79 551.472C920.558 550.851 920.205 550.361 919.732 550.001C919.263 549.637 918.673 549.455 917.963 549.455C917.281 549.455 916.708 549.627 916.244 549.973C915.78 550.314 915.43 550.792 915.193 551.408C914.956 552.018 914.838 552.731 914.838 553.545ZM930.122 548.091V549.511H924.469V548.091H930.122ZM926.116 545.477H927.793V555.875C927.793 556.348 927.861 556.704 927.999 556.94C928.141 557.172 928.321 557.329 928.538 557.409C928.761 557.485 928.995 557.523 929.241 557.523C929.426 557.523 929.578 557.513 929.696 557.494C929.814 557.471 929.909 557.452 929.98 557.438L930.321 558.943C930.207 558.986 930.049 559.028 929.845 559.071C929.642 559.118 929.384 559.142 929.071 559.142C928.598 559.142 928.134 559.04 927.679 558.837C927.229 558.633 926.855 558.323 926.557 557.906C926.263 557.49 926.116 556.964 926.116 556.33V545.477ZM932.643 559V548.091H934.32V559H932.643ZM933.496 546.273C933.169 546.273 932.887 546.161 932.651 545.939C932.419 545.716 932.303 545.449 932.303 545.136C932.303 544.824 932.419 544.556 932.651 544.334C932.887 544.111 933.169 544 933.496 544C933.822 544 934.102 544.111 934.334 544.334C934.571 544.556 934.689 544.824 934.689 545.136C934.689 545.449 934.571 545.716 934.334 545.939C934.102 546.161 933.822 546.273 933.496 546.273ZM941.821 559.227C940.837 559.227 939.972 558.993 939.229 558.524C938.49 558.055 937.913 557.4 937.496 556.557C937.084 555.714 936.878 554.729 936.878 553.602C936.878 552.466 937.084 551.474 937.496 550.626C937.913 549.779 938.49 549.121 939.229 548.652C939.972 548.183 940.837 547.949 941.821 547.949C942.806 547.949 943.668 548.183 944.407 548.652C945.15 549.121 945.728 549.779 946.14 550.626C946.556 551.474 946.765 552.466 946.765 553.602C946.765 554.729 946.556 555.714 946.14 556.557C945.728 557.4 945.15 558.055 944.407 558.524C943.668 558.993 942.806 559.227 941.821 559.227ZM941.821 557.722C942.569 557.722 943.185 557.53 943.668 557.146C944.151 556.763 944.508 556.259 944.74 555.634C944.972 555.009 945.088 554.331 945.088 553.602C945.088 552.873 944.972 552.194 944.74 551.564C944.508 550.934 944.151 550.425 943.668 550.037C943.185 549.649 942.569 549.455 941.821 549.455C941.073 549.455 940.458 549.649 939.975 550.037C939.492 550.425 939.134 550.934 938.902 551.564C938.67 552.194 938.554 552.873 938.554 553.602C938.554 554.331 938.67 555.009 938.902 555.634C939.134 556.259 939.492 556.763 939.975 557.146C940.458 557.53 941.073 557.722 941.821 557.722ZM950.999 552.438V559H949.323V548.091H950.942V549.795H951.085C951.34 549.241 951.728 548.796 952.249 548.46C952.77 548.119 953.442 547.949 954.266 547.949C955.005 547.949 955.651 548.1 956.205 548.403C956.759 548.702 957.19 549.156 957.498 549.767C957.806 550.373 957.96 551.14 957.96 552.068V559H956.283V552.182C956.283 551.325 956.061 550.657 955.616 550.179C955.171 549.696 954.56 549.455 953.783 549.455C953.248 549.455 952.77 549.571 952.349 549.803C951.932 550.035 951.603 550.373 951.362 550.818C951.12 551.263 950.999 551.803 950.999 552.438Z" fill="white"/>
</svg>
