<svg width="1024" height="477" viewBox="0 0 1024 477" fill="none" xmlns="http://www.w3.org/2000/svg">
<path d="M580.917 253.984C580.917 251.915 579.24 250.238 577.171 250.238C575.102 250.238 573.425 251.915 573.425 253.984C573.425 256.053 575.102 257.73 577.171 257.73C579.24 257.73 580.917 256.053 580.917 253.984ZM286 270.5L292.728 275.03L293.287 266.938L286 270.5ZM453.854 216.521L453.91 217.221L453.854 216.521ZM572.551 256.081C572.22 256.283 572.115 256.715 572.317 257.046C572.519 257.378 572.951 257.483 573.282 257.281L572.551 256.081ZM564.431 262.35C564.773 262.165 564.9 261.739 564.716 261.398C564.531 261.056 564.105 260.929 563.764 261.113L564.431 262.35ZM554.751 265.703C554.401 265.871 554.253 266.291 554.421 266.64C554.589 266.99 555.008 267.138 555.358 266.97L554.751 265.703ZM546.068 271.139C546.426 270.989 546.595 270.578 546.446 270.22C546.296 269.862 545.884 269.693 545.527 269.843L546.068 271.139ZM536.108 273.479C535.742 273.608 535.55 274.009 535.679 274.375C535.808 274.741 536.21 274.933 536.576 274.804L536.108 273.479ZM526.86 277.894C527.234 277.788 527.451 277.4 527.346 277.027C527.241 276.654 526.853 276.436 526.479 276.541L526.86 277.894ZM516.676 278.916C516.296 278.992 516.049 279.362 516.126 279.743C516.202 280.123 516.573 280.369 516.953 280.293L516.676 278.916ZM506.868 281.86C507.253 281.818 507.532 281.472 507.491 281.086C507.45 280.7 507.103 280.421 506.718 280.463L506.868 281.86ZM496.67 281.001C496.282 280.999 495.966 281.312 495.965 281.7C495.963 282.088 496.277 282.404 496.665 282.405L496.67 281.001ZM486.459 281.707C486.843 281.76 487.198 281.491 487.251 281.107C487.304 280.722 487.035 280.368 486.651 280.315L486.459 281.707ZM477.36 278.195C476.997 278.06 476.592 278.245 476.457 278.608C476.321 278.972 476.506 279.376 476.869 279.512L477.36 278.195ZM469.111 274.154C469.345 274.464 469.785 274.525 470.095 274.291C470.404 274.057 470.465 273.617 470.232 273.307L469.111 274.154ZM467.836 265.114C467.84 264.726 467.529 264.409 467.141 264.405C466.753 264.4 466.436 264.712 466.431 265.1L467.836 265.114ZM467.987 255.896C467.881 256.269 468.097 256.658 468.47 256.764C468.843 256.871 469.231 256.655 469.338 256.282L467.987 255.896ZM472.285 247.645C472.421 247.282 472.237 246.877 471.874 246.74C471.511 246.604 471.106 246.788 470.969 247.151L472.285 247.645ZM474.156 238.556C474.03 238.923 474.225 239.322 474.591 239.449C474.958 239.576 475.358 239.381 475.484 239.014L474.156 238.556ZM477.832 230.02C477.883 229.635 477.613 229.282 477.229 229.231C476.844 229.179 476.491 229.449 476.44 229.834L477.832 230.02ZM474.942 221.568C475.176 221.878 475.616 221.94 475.926 221.706C476.236 221.473 476.297 221.032 476.064 220.722L474.942 221.568ZM467.753 216.227C467.373 216.15 467.002 216.396 466.925 216.776C466.848 217.156 467.094 217.527 467.474 217.604L467.753 216.227ZM458.483 216.976C458.871 216.967 459.178 216.645 459.169 216.257C459.16 215.869 458.839 215.562 458.451 215.571L458.483 216.976ZM448.868 216.244C448.481 216.279 448.197 216.621 448.232 217.007C448.267 217.393 448.609 217.678 448.995 217.643L448.868 216.244ZM439.203 218.659C439.588 218.614 439.864 218.265 439.819 217.879C439.773 217.494 439.424 217.218 439.039 217.263L439.203 218.659ZM429.241 218.569C428.857 218.627 428.593 218.984 428.651 219.368C428.709 219.752 429.067 220.016 429.45 219.958L429.241 218.569ZM419.748 221.625C420.129 221.551 420.378 221.182 420.303 220.801C420.229 220.42 419.86 220.172 419.479 220.246L419.748 221.625ZM409.821 222.406C409.445 222.502 409.218 222.884 409.314 223.26C409.41 223.636 409.793 223.863 410.169 223.767L409.821 222.406ZM400.762 226.53C401.13 226.406 401.327 226.008 401.203 225.64C401.08 225.272 400.681 225.075 400.314 225.198L400.762 226.53ZM391.066 228.78C390.711 228.936 390.551 229.351 390.708 229.706C390.865 230.061 391.28 230.221 391.634 230.064L391.066 228.78ZM382.879 234.446C383.218 234.257 383.339 233.829 383.15 233.49C382.961 233.151 382.533 233.03 382.194 233.219L382.879 234.446ZM373.728 238.353C373.402 238.564 373.308 238.998 373.518 239.324C373.729 239.65 374.164 239.744 374.49 239.534L373.728 238.353ZM366.267 244.964C366.59 244.75 366.679 244.314 366.464 243.99C366.25 243.667 365.814 243.579 365.491 243.793L366.267 244.964ZM357.103 249.32C356.781 249.537 356.696 249.973 356.912 250.295C357.129 250.617 357.565 250.702 357.887 250.486L357.103 249.32ZM349.435 256.222C349.757 256.006 349.843 255.569 349.627 255.247C349.411 254.925 348.975 254.839 348.653 255.055L349.435 256.222ZM340.057 260.468C339.72 260.661 339.604 261.09 339.797 261.427C339.99 261.763 340.42 261.879 340.756 261.686L340.057 260.468ZM331.525 266.247C331.884 266.1 332.056 265.69 331.909 265.331C331.762 264.972 331.351 264.8 330.992 264.948L331.525 266.247ZM321.393 268.055C321.016 268.147 320.785 268.527 320.877 268.904C320.968 269.281 321.348 269.512 321.725 269.42L321.393 268.055ZM311.584 271.175C311.97 271.132 312.248 270.785 312.205 270.4C312.163 270.014 311.816 269.736 311.43 269.779L311.584 271.175ZM301.306 270.379C300.918 270.385 300.608 270.703 300.613 271.091C300.618 271.479 300.937 271.789 301.325 271.784L301.306 270.379ZM291.075 271.554C291.462 271.576 291.793 271.279 291.815 270.892C291.836 270.504 291.539 270.173 291.152 270.152L291.075 271.554ZM577.171 253.984C576.776 253.403 576.776 253.403 576.776 253.403C576.776 253.403 576.776 253.403 576.776 253.403C576.776 253.403 576.776 253.403 576.776 253.403C576.776 253.403 576.776 253.403 576.776 253.403C576.775 253.404 576.774 253.404 576.773 253.405C576.77 253.407 576.766 253.41 576.76 253.414C576.749 253.421 576.732 253.433 576.709 253.448C576.663 253.479 576.594 253.525 576.503 253.586C576.32 253.707 576.047 253.886 575.688 254.118C574.972 254.581 573.913 255.252 572.551 256.081L572.917 256.681L573.282 257.281C574.655 256.445 575.724 255.767 576.451 255.298C576.814 255.063 577.091 254.881 577.279 254.757C577.373 254.695 577.444 254.647 577.492 254.615C577.516 254.599 577.534 254.586 577.546 254.578C577.552 254.574 577.557 254.571 577.56 254.569C577.562 254.568 577.563 254.567 577.564 254.566C577.564 254.566 577.565 254.566 577.565 254.565C577.565 254.565 577.565 254.565 577.565 254.565C577.565 254.565 577.565 254.565 577.565 254.565C577.566 254.565 577.566 254.565 577.171 253.984ZM564.098 261.731L563.764 261.113C561.084 262.56 558.058 264.118 554.751 265.703L555.054 266.337L555.358 266.97C558.688 265.375 561.734 263.806 564.431 262.35L564.098 261.731ZM545.798 270.491L545.527 269.843C542.52 271.1 539.369 272.327 536.108 273.479L536.342 274.141L536.576 274.804C539.864 273.642 543.04 272.405 546.068 271.139L545.798 270.491ZM526.67 277.217L526.479 276.541C523.27 277.446 519.993 278.249 516.676 278.916L516.814 279.604L516.953 280.293C520.309 279.618 523.62 278.807 526.86 277.894L526.67 277.217ZM506.793 281.161L506.718 280.463C503.372 280.822 500.014 281.013 496.67 281.001L496.667 281.703L496.665 282.405C500.066 282.418 503.476 282.224 506.868 281.86L506.793 281.161ZM486.555 281.011L486.651 280.315C484.992 280.086 483.344 279.797 481.71 279.444L481.561 280.13L481.413 280.817C483.083 281.178 484.766 281.473 486.459 281.707L486.555 281.011ZM481.561 280.13L481.71 279.444C480.091 279.094 478.647 278.675 477.36 278.195L477.115 278.854L476.869 279.512C478.227 280.018 479.738 280.455 481.413 280.817L481.561 280.13ZM469.671 273.731L470.232 273.307C468.488 271 467.803 268.229 467.836 265.114L467.134 265.107L466.431 265.1C466.396 268.432 467.13 271.534 469.111 274.154L469.671 273.731ZM468.663 256.089L469.338 256.282C470.143 253.461 471.191 250.555 472.285 247.645L471.627 247.398L470.969 247.151C469.874 250.067 468.809 253.017 467.987 255.896L468.663 256.089ZM474.82 238.785L475.484 239.014C476.571 235.866 477.459 232.817 477.832 230.02L477.136 229.927L476.44 229.834C476.085 232.491 475.234 235.435 474.156 238.556L474.82 238.785ZM475.503 221.145L476.064 220.722C474.437 218.565 471.749 217.037 467.753 216.227L467.613 216.916L467.474 217.604C471.263 218.372 473.59 219.775 474.942 221.568L475.503 221.145ZM458.467 216.273L458.451 215.571C457 215.605 455.45 215.687 453.797 215.82L453.854 216.521L453.91 217.221C455.539 217.09 457.062 217.009 458.483 216.976L458.467 216.273ZM453.854 216.521L453.797 215.82C452.116 215.956 450.473 216.097 448.868 216.244L448.932 216.943L448.995 217.643C450.596 217.496 452.234 217.356 453.91 217.221L453.854 216.521ZM439.121 217.961L439.039 217.263C435.585 217.668 432.325 218.104 429.241 218.569L429.346 219.263L429.45 219.958C432.518 219.496 435.763 219.062 439.203 218.659L439.121 217.961ZM419.614 220.936L419.479 220.246C416.021 220.921 412.814 221.642 409.821 222.406L409.995 223.086L410.169 223.767C413.134 223.01 416.314 222.295 419.748 221.625L419.614 220.936ZM400.538 225.864L400.314 225.198C396.967 226.325 393.913 227.521 391.066 228.78L391.35 229.422L391.634 230.064C394.441 228.823 397.455 227.643 400.762 226.53L400.538 225.864ZM382.537 233.833L382.194 233.219C379.261 234.859 376.485 236.574 373.728 238.353L374.109 238.944L374.49 239.534C377.232 237.764 379.981 236.066 382.879 234.446L382.537 233.833ZM365.879 244.379L365.491 243.793C364.15 244.682 362.783 245.583 361.374 246.496L361.756 247.085L362.138 247.675C363.553 246.759 364.925 245.854 366.267 244.964L365.879 244.379ZM361.756 247.085L361.374 246.496C359.905 247.447 358.485 248.39 357.103 249.32L357.495 249.903L357.887 250.486C359.265 249.559 360.677 248.621 362.138 247.675L361.756 247.085ZM349.044 255.638L348.653 255.055C345.772 256.986 342.955 258.804 340.057 260.468L340.407 261.077L340.756 261.686C343.695 259.999 346.543 258.16 349.435 256.222L349.044 255.638ZM331.259 265.597L330.992 264.948C328.024 266.165 324.861 267.213 321.393 268.055L321.559 268.738L321.725 269.42C325.264 268.561 328.493 267.491 331.525 266.247L331.259 265.597ZM311.507 270.477L311.43 269.779C308.309 270.122 304.951 270.328 301.306 270.379L301.315 271.082L301.325 271.784C305.011 271.732 308.415 271.524 311.584 271.175L311.507 270.477Z" fill="white"/>
<rect x="740.683" y="99.183" width="283.317" height="376.976" rx="18.7317" fill="#FFC254"/>
<rect y="335.671" width="842.927" height="140.488" rx="18.7317" fill="#B07100"/>
<path d="M63.5217 401.404V404.573H50.8154V401.404H55.311V389.01C55.311 388.74 55.3162 388.464 55.3266 388.183C55.337 387.902 55.3526 387.616 55.3734 387.324L52.4076 389.791C52.1994 389.947 51.9965 390.046 51.7988 390.087C51.6011 390.129 51.4137 390.134 51.2368 390.103C51.0599 390.061 50.9038 389.999 50.7685 389.916C50.6333 389.822 50.5292 389.728 50.4563 389.635L49.0983 387.808L56.0602 381.908H59.6037V401.404H63.5217ZM82.771 393.241C82.771 395.218 82.5576 396.935 82.131 398.392C81.7043 399.849 81.1163 401.056 80.3671 402.013C79.6178 402.96 78.7281 403.668 77.6978 404.136C76.678 404.594 75.5749 404.823 74.3885 404.823C73.2022 404.823 72.0991 404.594 71.0793 404.136C70.0594 403.668 69.1801 402.96 68.4412 402.013C67.7024 401.056 67.1196 399.849 66.6929 398.392C66.2767 396.935 66.0685 395.218 66.0685 393.241C66.0685 391.263 66.2767 389.551 66.6929 388.105C67.1196 386.648 67.7024 385.446 68.4412 384.499C69.1801 383.542 70.0594 382.834 71.0793 382.376C72.0991 381.908 73.2022 381.674 74.3885 381.674C75.5749 381.674 76.678 381.908 77.6978 382.376C78.7281 382.834 79.6178 383.542 80.3671 384.499C81.1163 385.446 81.7043 386.648 82.131 388.105C82.5576 389.551 82.771 391.263 82.771 393.241ZM78.3222 393.241C78.3222 391.638 78.2077 390.316 77.9788 389.276C77.7602 388.235 77.4689 387.413 77.1046 386.809C76.7404 386.206 76.3189 385.784 75.8402 385.545C75.372 385.306 74.8881 385.186 74.3885 385.186C73.889 385.186 73.4051 385.306 72.9368 385.545C72.4789 385.784 72.0679 386.206 71.7037 386.809C71.3498 387.413 71.0637 388.235 70.8451 389.276C70.6266 390.316 70.5173 391.638 70.5173 393.241C70.5173 394.854 70.6266 396.18 70.8451 397.221C71.0637 398.262 71.3498 399.084 71.7037 399.687C72.0679 400.291 72.4789 400.712 72.9368 400.952C73.4051 401.191 73.889 401.311 74.3885 401.311C74.8881 401.311 75.372 401.191 75.8402 400.952C76.3189 400.712 76.7404 400.291 77.1046 399.687C77.4689 399.084 77.7602 398.262 77.9788 397.221C78.2077 396.18 78.3222 394.854 78.3222 393.241ZM85.2398 408.413C85.1253 408.32 85.042 408.226 84.99 408.132C84.9484 408.039 84.9276 407.924 84.9276 407.789C84.9276 407.695 84.9588 407.591 85.0212 407.477C85.0941 407.373 85.1773 407.274 85.271 407.18C85.3855 407.055 85.5259 406.899 85.6924 406.712C85.8589 406.535 86.0255 406.332 86.192 406.103C86.3585 405.884 86.5094 405.64 86.6446 405.369C86.7903 405.099 86.8996 404.813 86.9724 404.511C86.629 404.5 86.3168 404.428 86.0359 404.292C85.7549 404.157 85.5155 403.98 85.3178 403.762C85.1201 403.543 84.964 403.288 84.8495 402.997C84.7455 402.695 84.6934 402.372 84.6934 402.029C84.6934 401.717 84.7507 401.425 84.8651 401.155C84.9796 400.884 85.1409 400.65 85.349 400.452C85.5676 400.255 85.8225 400.098 86.1139 399.984C86.4157 399.87 86.7487 399.812 87.1129 399.812C87.5396 399.812 87.909 399.89 88.2212 400.046C88.5438 400.192 88.8092 400.39 89.0173 400.64C89.2255 400.889 89.3815 401.186 89.4856 401.529C89.5897 401.862 89.6417 402.216 89.6417 402.591C89.6417 403.101 89.5637 403.642 89.4076 404.214C89.2515 404.776 89.0173 405.343 88.7051 405.916C88.3929 406.488 88.0079 407.045 87.55 407.586C87.1025 408.137 86.5822 408.637 85.989 409.084L85.2398 408.413ZM108.259 393.241C108.259 395.218 108.045 396.935 107.619 398.392C107.192 399.849 106.604 401.056 105.855 402.013C105.106 402.96 104.216 403.668 103.186 404.136C102.166 404.594 101.063 404.823 99.8763 404.823C98.69 404.823 97.5869 404.594 96.5671 404.136C95.5472 403.668 94.6679 402.96 93.929 402.013C93.1902 401.056 92.6074 399.849 92.1807 398.392C91.7645 396.935 91.5563 395.218 91.5563 393.241C91.5563 391.263 91.7645 389.551 92.1807 388.105C92.6074 386.648 93.1902 385.446 93.929 384.499C94.6679 383.542 95.5472 382.834 96.5671 382.376C97.5869 381.908 98.69 381.674 99.8763 381.674C101.063 381.674 102.166 381.908 103.186 382.376C104.216 382.834 105.106 383.542 105.855 384.499C106.604 385.446 107.192 386.648 107.619 388.105C108.045 389.551 108.259 391.263 108.259 393.241ZM103.81 393.241C103.81 391.638 103.696 390.316 103.467 389.276C103.248 388.235 102.957 387.413 102.592 386.809C102.228 386.206 101.807 385.784 101.328 385.545C100.86 385.306 100.376 385.186 99.8763 385.186C99.3768 385.186 98.8929 385.306 98.4246 385.545C97.9668 385.784 97.5557 386.206 97.1915 386.809C96.8376 387.413 96.5515 388.235 96.3329 389.276C96.1144 390.316 96.0051 391.638 96.0051 393.241C96.0051 394.854 96.1144 396.18 96.3329 397.221C96.5515 398.262 96.8376 399.084 97.1915 399.687C97.5557 400.291 97.9668 400.712 98.4246 400.952C98.8929 401.191 99.3768 401.311 99.8763 401.311C100.376 401.311 100.86 401.191 101.328 400.952C101.807 400.712 102.228 400.291 102.592 399.687C102.957 399.084 103.248 398.262 103.467 397.221C103.696 396.18 103.81 394.854 103.81 393.241ZM126.369 393.241C126.369 395.218 126.155 396.935 125.729 398.392C125.302 399.849 124.714 401.056 123.965 402.013C123.215 402.96 122.326 403.668 121.295 404.136C120.276 404.594 119.172 404.823 117.986 404.823C116.8 404.823 115.697 404.594 114.677 404.136C113.657 403.668 112.778 402.96 112.039 402.013C111.3 401.056 110.717 399.849 110.29 398.392C109.874 396.935 109.666 395.218 109.666 393.241C109.666 391.263 109.874 389.551 110.29 388.105C110.717 386.648 111.3 385.446 112.039 384.499C112.778 383.542 113.657 382.834 114.677 382.376C115.697 381.908 116.8 381.674 117.986 381.674C119.172 381.674 120.276 381.908 121.295 382.376C122.326 382.834 123.215 383.542 123.965 384.499C124.714 385.446 125.302 386.648 125.729 388.105C126.155 389.551 126.369 391.263 126.369 393.241ZM121.92 393.241C121.92 391.638 121.805 390.316 121.576 389.276C121.358 388.235 121.066 387.413 120.702 386.809C120.338 386.206 119.917 385.784 119.438 385.545C118.97 385.306 118.486 385.186 117.986 385.186C117.487 385.186 117.003 385.306 116.534 385.545C116.077 385.784 115.665 386.206 115.301 386.809C114.947 387.413 114.661 388.235 114.443 389.276C114.224 390.316 114.115 391.638 114.115 393.241C114.115 394.854 114.224 396.18 114.443 397.221C114.661 398.262 114.947 399.084 115.301 399.687C115.665 400.291 116.077 400.712 116.534 400.952C117.003 401.191 117.487 401.311 117.986 401.311C118.486 401.311 118.97 401.191 119.438 400.952C119.917 400.712 120.338 400.291 120.702 399.687C121.066 399.084 121.358 398.262 121.576 397.221C121.805 396.18 121.92 394.854 121.92 393.241ZM144.478 393.241C144.478 395.218 144.265 396.935 143.838 398.392C143.412 399.849 142.824 401.056 142.074 402.013C141.325 402.96 140.435 403.668 139.405 404.136C138.385 404.594 137.282 404.823 136.096 404.823C134.91 404.823 133.806 404.594 132.787 404.136C131.767 403.668 130.887 402.96 130.149 402.013C129.41 401.056 128.827 399.849 128.4 398.392C127.984 396.935 127.776 395.218 127.776 393.241C127.776 391.263 127.984 389.551 128.4 388.105C128.827 386.648 129.41 385.446 130.149 384.499C130.887 383.542 131.767 382.834 132.787 382.376C133.806 381.908 134.91 381.674 136.096 381.674C137.282 381.674 138.385 381.908 139.405 382.376C140.435 382.834 141.325 383.542 142.074 384.499C142.824 385.446 143.412 386.648 143.838 388.105C144.265 389.551 144.478 391.263 144.478 393.241ZM140.03 393.241C140.03 391.638 139.915 390.316 139.686 389.276C139.468 388.235 139.176 387.413 138.812 386.809C138.448 386.206 138.026 385.784 137.548 385.545C137.079 385.306 136.595 385.186 136.096 385.186C135.596 385.186 135.112 385.306 134.644 385.545C134.186 385.784 133.775 386.206 133.411 386.809C133.057 387.413 132.771 388.235 132.552 389.276C132.334 390.316 132.225 391.638 132.225 393.241C132.225 394.854 132.334 396.18 132.552 397.221C132.771 398.262 133.057 399.084 133.411 399.687C133.775 400.291 134.186 400.712 134.644 400.952C135.112 401.191 135.596 401.311 136.096 401.311C136.595 401.311 137.079 401.191 137.548 400.952C138.026 400.712 138.448 400.291 138.812 399.687C139.176 399.084 139.468 398.262 139.686 397.221C139.915 396.18 140.03 394.854 140.03 393.241ZM161.901 395.66H155.97V401.982H152.473V395.66H146.572V392.523H152.473V386.216H155.97V392.523H161.901V395.66Z" fill="white"/>
<path d="M54.6262 421.221V432.573H53.2515V421.221H54.6262ZM58.5134 427.451V432.573H57.2052V424.059H58.4691V425.389H58.5799C58.7795 424.957 59.0825 424.609 59.489 424.347C59.8955 424.081 60.4203 423.948 61.0633 423.948C61.6398 423.948 62.1442 424.066 62.5766 424.303C63.009 424.536 63.3453 424.89 63.5855 425.367C63.8257 425.84 63.9458 426.439 63.9458 427.163V432.573H62.6376V427.252C62.6376 426.583 62.4639 426.062 62.1165 425.689C61.7691 425.312 61.2924 425.123 60.6864 425.123C60.2688 425.123 59.8955 425.214 59.5666 425.395C59.2414 425.576 58.9846 425.84 58.7961 426.187C58.6077 426.535 58.5134 426.956 58.5134 427.451ZM70.0392 424.059V425.167H65.6268V424.059H70.0392ZM66.9128 422.019H68.221V430.134C68.221 430.504 68.2746 430.781 68.3818 430.966C68.4926 431.147 68.6331 431.269 68.8031 431.332C68.9767 431.391 69.1597 431.42 69.3518 431.42C69.496 431.42 69.6142 431.413 69.7066 431.398C69.799 431.38 69.8729 431.365 69.9283 431.354L70.1944 432.529C70.1057 432.562 69.9819 432.595 69.823 432.629C69.6641 432.666 69.4627 432.684 69.2188 432.684C68.8492 432.684 68.4871 432.605 68.1323 432.446C67.7812 432.287 67.4893 432.045 67.2565 431.72C67.0274 431.394 66.9128 430.984 66.9128 430.489V422.019ZM75.4854 432.751C74.665 432.751 73.9573 432.57 73.3624 432.207C72.7711 431.842 72.3147 431.332 71.9932 430.677C71.6754 430.02 71.5165 429.255 71.5165 428.383C71.5165 427.51 71.6754 426.742 71.9932 426.077C72.3147 425.408 72.7618 424.887 73.3346 424.513C73.9111 424.136 74.5837 423.948 75.3524 423.948C75.7958 423.948 76.2338 424.022 76.6661 424.17C77.0985 424.318 77.4921 424.558 77.8468 424.89C78.2016 425.219 78.4843 425.655 78.695 426.199C78.9056 426.742 79.0109 427.411 79.0109 428.205V428.759H72.4477V427.629H77.6805C77.6805 427.148 77.5845 426.72 77.3923 426.343C77.2038 425.966 76.9341 425.668 76.583 425.45C76.2356 425.232 75.8254 425.123 75.3524 425.123C74.8313 425.123 74.3805 425.252 73.9998 425.511C73.6229 425.766 73.3328 426.099 73.1295 426.509C72.9263 426.919 72.8247 427.359 72.8247 427.828V428.582C72.8247 429.225 72.9355 429.77 73.1573 430.217C73.3827 430.661 73.695 430.999 74.0941 431.232C74.4932 431.461 74.957 431.575 75.4854 431.575C75.8291 431.575 76.1395 431.527 76.4167 431.431C76.6975 431.332 76.9396 431.184 77.1429 430.988C77.3461 430.788 77.5032 430.541 77.614 430.245L78.8779 430.6C78.7448 431.029 78.5213 431.405 78.2072 431.731C77.893 432.052 77.505 432.303 77.0431 432.485C76.5811 432.662 76.0619 432.751 75.4854 432.751ZM81.0009 432.573V424.059H82.2648V425.345H82.3535C82.5087 424.924 82.7896 424.582 83.1961 424.319C83.6026 424.057 84.0608 423.926 84.5708 423.926C84.6669 423.926 84.787 423.928 84.9311 423.931C85.0752 423.935 85.1842 423.941 85.2581 423.948V425.278C85.2138 425.267 85.1122 425.251 84.9533 425.228C84.7981 425.203 84.6336 425.19 84.4599 425.19C84.046 425.19 83.6765 425.276 83.3513 425.45C83.0298 425.62 82.7748 425.857 82.5863 426.16C82.4015 426.459 82.3091 426.801 82.3091 427.185V432.573H81.0009ZM86.8089 432.573V424.059H88.1171V432.573H86.8089ZM87.4741 422.64C87.2191 422.64 86.9992 422.553 86.8144 422.379C86.6333 422.206 86.5428 421.997 86.5428 421.753C86.5428 421.509 86.6333 421.3 86.8144 421.126C86.9992 420.953 87.2191 420.866 87.4741 420.866C87.729 420.866 87.9471 420.953 88.1282 421.126C88.3129 421.3 88.4053 421.509 88.4053 421.753C88.4053 421.997 88.3129 422.206 88.1282 422.379C87.9471 422.553 87.729 422.64 87.4741 422.64ZM93.9721 432.751C93.2035 432.751 92.529 432.568 91.9488 432.202C91.3723 431.836 90.9215 431.324 90.5963 430.666C90.2748 430.009 90.114 429.24 90.114 428.36C90.114 427.473 90.2748 426.699 90.5963 426.038C90.9215 425.376 91.3723 424.863 91.9488 424.497C92.529 424.131 93.2035 423.948 93.9721 423.948C94.7408 423.948 95.4134 424.131 95.9899 424.497C96.57 424.863 97.0209 425.376 97.3424 426.038C97.6676 426.699 97.8302 427.473 97.8302 428.36C97.8302 429.24 97.6676 430.009 97.3424 430.666C97.0209 431.324 96.57 431.836 95.9899 432.202C95.4134 432.568 94.7408 432.751 93.9721 432.751ZM93.9721 431.575C94.556 431.575 95.0364 431.426 95.4134 431.126C95.7903 430.827 96.0693 430.434 96.2504 429.946C96.4315 429.458 96.522 428.929 96.522 428.36C96.522 427.791 96.4315 427.261 96.2504 426.769C96.0693 426.278 95.7903 425.881 95.4134 425.578C95.0364 425.275 94.556 425.123 93.9721 425.123C93.3882 425.123 92.9078 425.275 92.5309 425.578C92.1539 425.881 91.8749 426.278 91.6938 426.769C91.5128 427.261 91.4222 427.791 91.4222 428.36C91.4222 428.929 91.5128 429.458 91.6938 429.946C91.8749 430.434 92.1539 430.827 92.5309 431.126C92.9078 431.426 93.3882 431.575 93.9721 431.575ZM99.8272 432.573V424.059H101.091V425.345H101.18C101.335 424.924 101.616 424.582 102.022 424.319C102.429 424.057 102.887 423.926 103.397 423.926C103.493 423.926 103.613 423.928 103.757 423.931C103.901 423.935 104.01 423.941 104.084 423.948V425.278C104.04 425.267 103.938 425.251 103.779 425.228C103.624 425.203 103.46 425.19 103.286 425.19C102.872 425.19 102.503 425.276 102.177 425.45C101.856 425.62 101.601 425.857 101.413 426.16C101.228 426.459 101.135 426.801 101.135 427.185V432.573H99.8272ZM113.706 432.573H110.203V421.221H113.861C114.963 421.221 115.905 421.448 116.688 421.903C117.472 422.353 118.072 423.002 118.49 423.848C118.907 424.691 119.116 425.7 119.116 426.875C119.116 428.057 118.906 429.075 118.484 429.929C118.063 430.779 117.45 431.433 116.644 431.891C115.838 432.346 114.859 432.573 113.706 432.573ZM111.577 431.354H113.617C114.556 431.354 115.334 431.173 115.951 430.81C116.568 430.448 117.028 429.933 117.331 429.264C117.634 428.595 117.786 427.799 117.786 426.875C117.786 425.958 117.636 425.169 117.337 424.508C117.038 423.843 116.59 423.333 115.995 422.978C115.4 422.619 114.659 422.44 113.773 422.44H111.577V431.354ZM124.815 432.751C123.994 432.751 123.287 432.57 122.692 432.207C122.1 431.842 121.644 431.332 121.322 430.677C121.005 430.02 120.846 429.255 120.846 428.383C120.846 427.51 121.005 426.742 121.322 426.077C121.644 425.408 122.091 424.887 122.664 424.513C123.24 424.136 123.913 423.948 124.682 423.948C125.125 423.948 125.563 424.022 125.995 424.17C126.428 424.318 126.821 424.558 127.176 424.89C127.531 425.219 127.814 425.655 128.024 426.199C128.235 426.742 128.34 427.411 128.34 428.205V428.759H121.777V427.629H127.01C127.01 427.148 126.914 426.72 126.722 426.343C126.533 425.966 126.263 425.668 125.912 425.45C125.565 425.232 125.155 425.123 124.682 425.123C124.161 425.123 123.71 425.252 123.329 425.511C122.952 425.766 122.662 426.099 122.459 426.509C122.256 426.919 122.154 427.359 122.154 427.828V428.582C122.154 429.225 122.265 429.77 122.487 430.217C122.712 430.661 123.024 430.999 123.423 431.232C123.822 431.461 124.286 431.575 124.815 431.575C125.158 431.575 125.469 431.527 125.746 431.431C126.027 431.332 126.269 431.184 126.472 430.988C126.675 430.788 126.832 430.541 126.943 430.245L128.207 430.6C128.074 431.029 127.851 431.405 127.536 431.731C127.222 432.052 126.834 432.303 126.372 432.485C125.91 432.662 125.391 432.751 124.815 432.751ZM136.361 425.966L135.186 426.298C135.112 426.102 135.003 425.912 134.859 425.727C134.719 425.539 134.526 425.384 134.283 425.262C134.039 425.14 133.726 425.079 133.346 425.079C132.825 425.079 132.39 425.199 132.043 425.439C131.699 425.676 131.528 425.977 131.528 426.343C131.528 426.668 131.646 426.925 131.882 427.113C132.119 427.302 132.488 427.459 132.991 427.584L134.255 427.895C135.016 428.08 135.583 428.362 135.957 428.743C136.33 429.12 136.516 429.606 136.516 430.201C136.516 430.689 136.376 431.125 136.095 431.509C135.818 431.893 135.43 432.196 134.931 432.418C134.432 432.64 133.852 432.751 133.191 432.751C132.322 432.751 131.603 432.562 131.034 432.185C130.465 431.808 130.105 431.258 129.953 430.533L131.195 430.223C131.313 430.681 131.537 431.025 131.866 431.254C132.198 431.483 132.633 431.598 133.168 431.598C133.778 431.598 134.262 431.468 134.621 431.21C134.983 430.947 135.164 430.633 135.164 430.267C135.164 429.972 135.06 429.724 134.853 429.524C134.647 429.321 134.329 429.17 133.9 429.07L132.481 428.737C131.701 428.553 131.128 428.266 130.763 427.878C130.4 427.486 130.219 426.997 130.219 426.409C130.219 425.929 130.354 425.504 130.624 425.134C130.897 424.765 131.269 424.475 131.738 424.264C132.211 424.053 132.747 423.948 133.346 423.948C134.188 423.948 134.85 424.133 135.33 424.502C135.814 424.872 136.158 425.36 136.361 425.966ZM138.486 432.573V424.059H139.794V432.573H138.486ZM139.151 422.64C138.896 422.64 138.676 422.553 138.491 422.379C138.31 422.206 138.22 421.997 138.22 421.753C138.22 421.509 138.31 421.3 138.491 421.126C138.676 420.953 138.896 420.866 139.151 420.866C139.406 420.866 139.624 420.953 139.805 421.126C139.99 421.3 140.082 421.509 140.082 421.753C140.082 421.997 139.99 422.206 139.805 422.379C139.624 422.553 139.406 422.64 139.151 422.64ZM145.627 435.944C144.995 435.944 144.452 435.862 143.997 435.7C143.543 435.541 143.164 435.33 142.861 435.068C142.561 434.809 142.323 434.532 142.146 434.236L143.188 433.505C143.306 433.66 143.456 433.837 143.637 434.037C143.818 434.24 144.065 434.415 144.38 434.563C144.697 434.715 145.113 434.791 145.627 434.791C146.314 434.791 146.881 434.624 147.329 434.292C147.776 433.959 147.999 433.438 147.999 432.728V430.999H147.888C147.792 431.154 147.656 431.346 147.478 431.575C147.305 431.801 147.053 432.002 146.724 432.18C146.399 432.353 145.959 432.44 145.405 432.44C144.718 432.44 144.101 432.278 143.554 431.952C143.01 431.627 142.58 431.154 142.262 430.533C141.948 429.912 141.791 429.159 141.791 428.272C141.791 427.4 141.944 426.64 142.251 425.993C142.558 425.343 142.984 424.84 143.531 424.486C144.078 424.127 144.71 423.948 145.427 423.948C145.982 423.948 146.421 424.04 146.747 424.225C147.075 424.406 147.327 424.613 147.5 424.846C147.678 425.075 147.815 425.264 147.911 425.411H148.044V424.059H149.307V432.817C149.307 433.549 149.141 434.144 148.809 434.602C148.48 435.064 148.036 435.402 147.478 435.616C146.924 435.835 146.307 435.944 145.627 435.944ZM145.582 431.265C146.107 431.265 146.551 431.145 146.913 430.905C147.275 430.665 147.55 430.319 147.739 429.868C147.927 429.417 148.021 428.878 148.021 428.25C148.021 427.636 147.929 427.095 147.744 426.625C147.56 426.156 147.286 425.788 146.924 425.522C146.562 425.256 146.115 425.123 145.582 425.123C145.028 425.123 144.566 425.264 144.197 425.544C143.831 425.825 143.555 426.202 143.371 426.675C143.19 427.148 143.099 427.673 143.099 428.25C143.099 428.841 143.191 429.364 143.376 429.818C143.565 430.269 143.842 430.624 144.208 430.883C144.577 431.138 145.035 431.265 145.582 431.265ZM153.01 427.451V432.573H151.702V424.059H152.966V425.389H153.077C153.276 424.957 153.579 424.609 153.986 424.347C154.392 424.081 154.917 423.948 155.56 423.948C156.137 423.948 156.641 424.066 157.074 424.303C157.506 424.536 157.842 424.89 158.082 425.367C158.323 425.84 158.443 426.439 158.443 427.163V432.573H157.135V427.252C157.135 426.583 156.961 426.062 156.613 425.689C156.266 425.312 155.789 425.123 155.183 425.123C154.766 425.123 154.392 425.214 154.064 425.395C153.738 425.576 153.482 425.84 153.293 426.187C153.105 426.535 153.01 426.956 153.01 427.451Z" fill="white"/>
<path d="M294.301 390.527C294.468 389.424 294.78 388.456 295.238 387.624C295.696 386.791 296.268 386.099 296.955 385.548C297.642 384.996 298.422 384.585 299.296 384.315C300.181 384.034 301.133 383.893 302.153 383.893C303.235 383.893 304.203 384.049 305.056 384.362C305.92 384.663 306.649 385.08 307.242 385.61C307.835 386.141 308.288 386.76 308.6 387.468C308.922 388.175 309.084 388.935 309.084 389.747C309.084 390.465 309.006 391.1 308.85 391.651C308.704 392.192 308.48 392.666 308.178 393.072C307.887 393.478 307.523 393.821 307.086 394.102C306.659 394.383 306.165 394.617 305.603 394.804C308.204 395.658 309.505 397.39 309.505 400.002C309.505 401.158 309.292 402.177 308.865 403.062C308.439 403.936 307.866 404.67 307.148 405.263C306.43 405.856 305.592 406.304 304.635 406.605C303.688 406.897 302.694 407.042 301.654 407.042C300.55 407.042 299.577 406.918 298.735 406.668C297.892 406.418 297.148 406.043 296.502 405.544C295.868 405.044 295.321 404.42 294.863 403.671C294.405 402.911 294.005 402.027 293.661 401.017L295.566 400.237C296.065 400.028 296.528 399.971 296.955 400.065C297.392 400.159 297.704 400.388 297.892 400.752C298.1 401.147 298.318 401.511 298.547 401.844C298.787 402.177 299.052 402.469 299.343 402.719C299.635 402.958 299.962 403.145 300.327 403.281C300.701 403.416 301.128 403.483 301.607 403.483C302.21 403.483 302.736 403.385 303.183 403.187C303.631 402.989 304.005 402.734 304.307 402.422C304.609 402.099 304.833 401.74 304.978 401.345C305.135 400.939 305.213 400.538 305.213 400.143C305.213 399.623 305.166 399.154 305.072 398.738C304.978 398.311 304.76 397.952 304.416 397.661C304.083 397.359 303.584 397.13 302.918 396.974C302.262 396.808 301.367 396.724 300.233 396.724V393.696C301.18 393.696 301.955 393.618 302.559 393.462C303.162 393.306 303.636 393.087 303.979 392.806C304.323 392.525 304.557 392.187 304.682 391.792C304.817 391.396 304.885 390.964 304.885 390.496C304.885 389.508 304.625 388.753 304.104 388.233C303.594 387.712 302.866 387.452 301.919 387.452C301.503 387.452 301.118 387.515 300.764 387.64C300.42 387.754 300.108 387.915 299.827 388.123C299.557 388.332 299.322 388.576 299.125 388.857C298.927 389.138 298.781 389.445 298.688 389.778C298.49 390.298 298.235 390.647 297.923 390.824C297.611 390.99 297.158 391.027 296.565 390.933L294.301 390.527ZM328.271 395.46C328.271 397.437 328.057 399.154 327.631 400.611C327.204 402.068 326.616 403.275 325.867 404.233C325.117 405.18 324.228 405.887 323.197 406.356C322.178 406.814 321.075 407.042 319.888 407.042C318.702 407.042 317.599 406.814 316.579 406.356C315.559 405.887 314.68 405.18 313.941 404.233C313.202 403.275 312.619 402.068 312.193 400.611C311.776 399.154 311.568 397.437 311.568 395.46C311.568 393.483 311.776 391.771 312.193 390.324C312.619 388.868 313.202 387.666 313.941 386.719C314.68 385.761 315.559 385.054 316.579 384.596C317.599 384.127 318.702 383.893 319.888 383.893C321.075 383.893 322.178 384.127 323.197 384.596C324.228 385.054 325.117 385.761 325.867 386.719C326.616 387.666 327.204 388.868 327.631 390.324C328.057 391.771 328.271 393.483 328.271 395.46ZM323.822 395.46C323.822 393.857 323.707 392.536 323.478 391.495C323.26 390.455 322.968 389.632 322.604 389.029C322.24 388.425 321.819 388.004 321.34 387.764C320.872 387.525 320.388 387.405 319.888 387.405C319.389 387.405 318.905 387.525 318.436 387.764C317.979 388.004 317.568 388.425 317.203 389.029C316.849 389.632 316.563 390.455 316.345 391.495C316.126 392.536 316.017 393.857 316.017 395.46C316.017 397.073 316.126 398.4 316.345 399.441C316.563 400.481 316.849 401.303 317.203 401.907C317.568 402.51 317.979 402.932 318.436 403.171C318.905 403.411 319.389 403.53 319.888 403.53C320.388 403.53 320.872 403.411 321.34 403.171C321.819 402.932 322.24 402.51 322.604 401.907C322.968 401.303 323.26 400.481 323.478 399.441C323.707 398.4 323.822 397.073 323.822 395.46ZM346.38 395.46C346.38 397.437 346.167 399.154 345.74 400.611C345.314 402.068 344.726 403.275 343.976 404.233C343.227 405.18 342.337 405.887 341.307 406.356C340.287 406.814 339.184 407.042 337.998 407.042C336.812 407.042 335.708 406.814 334.689 406.356C333.669 405.887 332.789 405.18 332.051 404.233C331.312 403.275 330.729 402.068 330.302 400.611C329.886 399.154 329.678 397.437 329.678 395.46C329.678 393.483 329.886 391.771 330.302 390.324C330.729 388.868 331.312 387.666 332.051 386.719C332.789 385.761 333.669 385.054 334.689 384.596C335.708 384.127 336.812 383.893 337.998 383.893C339.184 383.893 340.287 384.127 341.307 384.596C342.337 385.054 343.227 385.761 343.976 386.719C344.726 387.666 345.314 388.868 345.74 390.324C346.167 391.771 346.38 393.483 346.38 395.46ZM341.932 395.46C341.932 393.857 341.817 392.536 341.588 391.495C341.37 390.455 341.078 389.632 340.714 389.029C340.35 388.425 339.928 388.004 339.45 387.764C338.981 387.525 338.497 387.405 337.998 387.405C337.498 387.405 337.015 387.525 336.546 387.764C336.088 388.004 335.677 388.425 335.313 389.029C334.959 389.632 334.673 390.455 334.455 391.495C334.236 392.536 334.127 393.857 334.127 395.46C334.127 397.073 334.236 398.4 334.455 399.441C334.673 400.481 334.959 401.303 335.313 401.907C335.677 402.51 336.088 402.932 336.546 403.171C337.015 403.411 337.498 403.53 337.998 403.53C338.497 403.53 338.981 403.411 339.45 403.171C339.928 402.932 340.35 402.51 340.714 401.907C341.078 401.303 341.37 400.481 341.588 399.441C341.817 398.4 341.932 397.073 341.932 395.46ZM363.803 397.88H357.872V404.202H354.375V397.88H348.475V394.742H354.375V388.436H357.872V394.742H363.803V397.88Z" fill="white"/>
<path d="M270.622 434.793H267.118V423.44H270.777C271.878 423.44 272.821 423.667 273.604 424.122C274.388 424.573 274.988 425.221 275.406 426.068C275.823 426.91 276.032 427.919 276.032 429.094C276.032 430.277 275.821 431.295 275.4 432.149C274.979 432.999 274.365 433.653 273.56 434.111C272.754 434.565 271.775 434.793 270.622 434.793ZM268.493 433.573H270.533C271.472 433.573 272.25 433.392 272.867 433.03C273.484 432.668 273.944 432.152 274.247 431.483C274.55 430.815 274.702 430.018 274.702 429.094C274.702 428.178 274.552 427.389 274.253 426.727C273.953 426.062 273.506 425.552 272.911 425.197C272.316 424.839 271.575 424.66 270.688 424.66H268.493V433.573ZM281.73 434.97C280.91 434.97 280.202 434.789 279.607 434.427C279.016 434.061 278.56 433.551 278.238 432.897C277.92 432.239 277.762 431.474 277.762 430.602C277.762 429.73 277.92 428.961 278.238 428.296C278.56 427.627 279.007 427.106 279.58 426.733C280.156 426.356 280.829 426.167 281.597 426.167C282.041 426.167 282.479 426.241 282.911 426.389C283.344 426.537 283.737 426.777 284.092 427.11C284.447 427.439 284.729 427.875 284.94 428.418C285.151 428.961 285.256 429.63 285.256 430.425V430.979H278.693V429.848H283.926C283.926 429.368 283.83 428.939 283.637 428.562C283.449 428.185 283.179 427.888 282.828 427.67C282.481 427.452 282.07 427.343 281.597 427.343C281.076 427.343 280.626 427.472 280.245 427.731C279.868 427.986 279.578 428.318 279.375 428.728C279.171 429.139 279.07 429.578 279.07 430.048V430.802C279.07 431.445 279.181 431.99 279.402 432.437C279.628 432.88 279.94 433.218 280.339 433.451C280.738 433.68 281.202 433.795 281.73 433.795C282.074 433.795 282.385 433.747 282.662 433.651C282.943 433.551 283.185 433.403 283.388 433.207C283.591 433.008 283.748 432.76 283.859 432.465L285.123 432.819C284.99 433.248 284.766 433.625 284.452 433.95C284.138 434.272 283.75 434.523 283.288 434.704C282.826 434.881 282.307 434.97 281.73 434.97ZM293.277 428.185L292.102 428.518C292.028 428.322 291.919 428.132 291.775 427.947C291.634 427.758 291.442 427.603 291.198 427.481C290.954 427.359 290.642 427.298 290.262 427.298C289.74 427.298 289.306 427.418 288.959 427.659C288.615 427.895 288.443 428.196 288.443 428.562C288.443 428.887 288.562 429.144 288.798 429.333C289.035 429.521 289.404 429.678 289.907 429.804L291.171 430.114C291.932 430.299 292.499 430.582 292.872 430.962C293.246 431.339 293.432 431.825 293.432 432.42C293.432 432.908 293.292 433.344 293.011 433.728C292.734 434.113 292.346 434.416 291.847 434.638C291.348 434.859 290.768 434.97 290.106 434.97C289.238 434.97 288.519 434.782 287.95 434.405C287.381 434.028 287.021 433.477 286.869 432.753L288.111 432.442C288.229 432.901 288.453 433.244 288.781 433.473C289.114 433.703 289.548 433.817 290.084 433.817C290.694 433.817 291.178 433.688 291.536 433.429C291.899 433.167 292.08 432.853 292.08 432.487C292.08 432.191 291.976 431.944 291.769 431.744C291.562 431.541 291.245 431.389 290.816 431.289L289.397 430.957C288.617 430.772 288.044 430.486 287.678 430.098C287.316 429.706 287.135 429.216 287.135 428.629C287.135 428.148 287.27 427.723 287.54 427.354C287.813 426.984 288.185 426.694 288.654 426.483C289.127 426.273 289.663 426.167 290.262 426.167C291.104 426.167 291.766 426.352 292.246 426.722C292.73 427.091 293.074 427.579 293.277 428.185ZM295.401 434.793V426.278H296.71V434.793H295.401ZM296.067 424.859C295.812 424.859 295.592 424.772 295.407 424.599C295.226 424.425 295.135 424.216 295.135 423.972C295.135 423.728 295.226 423.52 295.407 423.346C295.592 423.172 295.812 423.085 296.067 423.085C296.322 423.085 296.54 423.172 296.721 423.346C296.906 423.52 296.998 423.728 296.998 423.972C296.998 424.216 296.906 424.425 296.721 424.599C296.54 424.772 296.322 424.859 296.067 424.859ZM302.543 438.163C301.911 438.163 301.367 438.082 300.913 437.919C300.458 437.76 300.08 437.55 299.776 437.287C299.477 437.028 299.239 436.751 299.061 436.456L300.104 435.724C300.222 435.879 300.371 436.057 300.553 436.256C300.734 436.459 300.981 436.635 301.295 436.783C301.613 436.934 302.029 437.01 302.543 437.01C303.23 437.01 303.797 436.844 304.244 436.511C304.691 436.179 304.915 435.657 304.915 434.948V433.218H304.804C304.708 433.374 304.571 433.566 304.394 433.795C304.22 434.02 303.969 434.222 303.64 434.399C303.315 434.573 302.875 434.66 302.321 434.66C301.633 434.66 301.016 434.497 300.469 434.172C299.926 433.847 299.496 433.374 299.178 432.753C298.864 432.132 298.707 431.378 298.707 430.491C298.707 429.619 298.86 428.86 299.167 428.213C299.473 427.562 299.9 427.06 300.447 426.705C300.994 426.347 301.626 426.167 302.343 426.167C302.897 426.167 303.337 426.26 303.662 426.445C303.991 426.626 304.242 426.833 304.416 427.065C304.594 427.295 304.73 427.483 304.826 427.631H304.959V426.278H306.223V435.037C306.223 435.768 306.057 436.363 305.724 436.822C305.395 437.283 304.952 437.622 304.394 437.836C303.84 438.054 303.223 438.163 302.543 438.163ZM302.498 433.485C303.023 433.485 303.466 433.364 303.829 433.124C304.191 432.884 304.466 432.538 304.655 432.088C304.843 431.637 304.937 431.097 304.937 430.469C304.937 429.856 304.845 429.314 304.66 428.845C304.475 428.376 304.202 428.008 303.84 427.742C303.478 427.476 303.03 427.343 302.498 427.343C301.944 427.343 301.482 427.483 301.112 427.764C300.747 428.045 300.471 428.422 300.286 428.895C300.105 429.368 300.015 429.893 300.015 430.469C300.015 431.06 300.107 431.583 300.292 432.038C300.48 432.489 300.758 432.843 301.123 433.102C301.493 433.357 301.951 433.485 302.498 433.485ZM309.926 429.671V434.793H308.618V426.278H309.882V427.609H309.993C310.192 427.176 310.495 426.829 310.902 426.567C311.308 426.3 311.833 426.167 312.476 426.167C313.053 426.167 313.557 426.286 313.989 426.522C314.422 426.755 314.758 427.11 314.998 427.587C315.238 428.06 315.359 428.658 315.359 429.383V434.793H314.05V429.471C314.05 428.802 313.877 428.281 313.529 427.908C313.182 427.531 312.705 427.343 312.099 427.343C311.682 427.343 311.308 427.433 310.979 427.614C310.654 427.795 310.397 428.06 310.209 428.407C310.02 428.754 309.926 429.176 309.926 429.671ZM321.319 434.97C320.498 434.97 319.791 434.789 319.196 434.427C318.605 434.061 318.148 433.551 317.827 432.897C317.509 432.239 317.35 431.474 317.35 430.602C317.35 429.73 317.509 428.961 317.827 428.296C318.148 427.627 318.595 427.106 319.168 426.733C319.745 426.356 320.417 426.167 321.186 426.167C321.629 426.167 322.067 426.241 322.5 426.389C322.932 426.537 323.326 426.777 323.68 427.11C324.035 427.439 324.318 427.875 324.528 428.418C324.739 428.961 324.844 429.63 324.844 430.425V430.979H318.281V429.848H323.514C323.514 429.368 323.418 428.939 323.226 428.562C323.037 428.185 322.768 427.888 322.416 427.67C322.069 427.452 321.659 427.343 321.186 427.343C320.665 427.343 320.214 427.472 319.833 427.731C319.456 427.986 319.166 428.318 318.963 428.728C318.76 429.139 318.658 429.578 318.658 430.048V430.802C318.658 431.445 318.769 431.99 318.991 432.437C319.216 432.88 319.528 433.218 319.928 433.451C320.327 433.68 320.79 433.795 321.319 433.795C321.663 433.795 321.973 433.747 322.25 433.651C322.531 433.551 322.773 433.403 322.976 433.207C323.18 433.008 323.337 432.76 323.447 432.465L324.711 432.819C324.578 433.248 324.355 433.625 324.041 433.95C323.726 434.272 323.338 434.523 322.877 434.704C322.415 434.881 321.895 434.97 321.319 434.97ZM326.834 434.793V426.278H328.098V427.564H328.187C328.342 427.143 328.623 426.801 329.03 426.539C329.436 426.276 329.894 426.145 330.404 426.145C330.5 426.145 330.62 426.147 330.765 426.151C330.909 426.155 331.018 426.16 331.092 426.167V427.498C331.047 427.487 330.946 427.47 330.787 427.448C330.632 427.422 330.467 427.409 330.293 427.409C329.879 427.409 329.51 427.496 329.185 427.67C328.863 427.84 328.608 428.076 328.42 428.379C328.235 428.679 328.143 429.02 328.143 429.405V434.793H326.834ZM337.21 434.793V423.44H344.061V424.66H338.585V428.496H343.707V429.715H338.585V433.573H344.15V434.793H337.21ZM347.337 426.278L349.377 429.759L351.417 426.278H352.925L350.176 430.536L352.925 434.793H351.417L349.377 431.489L347.337 434.793H345.83L348.535 430.536L345.83 426.278H347.337ZM354.792 437.986V426.278H356.056V427.631H356.211C356.307 427.483 356.44 427.295 356.61 427.065C356.784 426.833 357.031 426.626 357.353 426.445C357.678 426.26 358.118 426.167 358.672 426.167C359.389 426.167 360.021 426.347 360.568 426.705C361.115 427.064 361.542 427.572 361.848 428.23C362.155 428.887 362.308 429.663 362.308 430.558C362.308 431.459 362.155 432.241 361.848 432.902C361.542 433.56 361.117 434.07 360.573 434.432C360.03 434.791 359.404 434.97 358.694 434.97C358.147 434.97 357.709 434.88 357.38 434.698C357.052 434.514 356.798 434.305 356.621 434.072C356.444 433.836 356.307 433.64 356.211 433.485H356.1V437.986H354.792ZM356.078 430.536C356.078 431.179 356.172 431.746 356.36 432.237C356.549 432.725 356.824 433.108 357.186 433.385C357.549 433.658 357.992 433.795 358.517 433.795C359.064 433.795 359.52 433.651 359.886 433.363C360.255 433.071 360.533 432.679 360.717 432.187C360.906 431.692 361 431.142 361 430.536C361 429.937 360.908 429.397 360.723 428.917C360.542 428.433 360.267 428.05 359.897 427.769C359.531 427.485 359.071 427.343 358.517 427.343C357.985 427.343 357.537 427.477 357.175 427.747C356.813 428.013 356.54 428.387 356.355 428.867C356.17 429.344 356.078 429.9 356.078 430.536ZM367.874 434.97C367.053 434.97 366.346 434.789 365.751 434.427C365.159 434.061 364.703 433.551 364.382 432.897C364.064 432.239 363.905 431.474 363.905 430.602C363.905 429.73 364.064 428.961 364.382 428.296C364.703 427.627 365.15 427.106 365.723 426.733C366.299 426.356 366.972 426.167 367.741 426.167C368.184 426.167 368.622 426.241 369.054 426.389C369.487 426.537 369.88 426.777 370.235 427.11C370.59 427.439 370.873 427.875 371.083 428.418C371.294 428.961 371.399 429.63 371.399 430.425V430.979H364.836V429.848H370.069C370.069 429.368 369.973 428.939 369.781 428.562C369.592 428.185 369.322 427.888 368.971 427.67C368.624 427.452 368.214 427.343 367.741 427.343C367.22 427.343 366.769 427.472 366.388 427.731C366.011 427.986 365.721 428.318 365.518 428.728C365.315 429.139 365.213 429.578 365.213 430.048V430.802C365.213 431.445 365.324 431.99 365.546 432.437C365.771 432.88 366.083 433.218 366.482 433.451C366.882 433.68 367.345 433.795 367.874 433.795C368.217 433.795 368.528 433.747 368.805 433.651C369.086 433.551 369.328 433.403 369.531 433.207C369.734 433.008 369.891 432.76 370.002 432.465L371.266 432.819C371.133 433.248 370.91 433.625 370.595 433.95C370.281 434.272 369.893 434.523 369.431 434.704C368.969 434.881 368.45 434.97 367.874 434.97ZM373.389 434.793V426.278H374.653V427.564H374.742C374.897 427.143 375.178 426.801 375.584 426.539C375.991 426.276 376.449 426.145 376.959 426.145C377.055 426.145 377.175 426.147 377.319 426.151C377.464 426.155 377.573 426.16 377.646 426.167V427.498C377.602 427.487 377.501 427.47 377.342 427.448C377.186 427.422 377.022 427.409 376.848 427.409C376.434 427.409 376.065 427.496 375.74 427.67C375.418 427.84 375.163 428.076 374.975 428.379C374.79 428.679 374.697 429.02 374.697 429.405V434.793H373.389ZM383.434 426.278V427.387H379.021V426.278H383.434ZM380.307 424.238H381.615V432.354C381.615 432.723 381.669 433 381.776 433.185C381.887 433.366 382.027 433.488 382.197 433.551C382.371 433.61 382.554 433.64 382.746 433.64C382.89 433.64 383.009 433.632 383.101 433.618C383.193 433.599 383.267 433.584 383.323 433.573L383.589 434.748C383.5 434.782 383.376 434.815 383.217 434.848C383.059 434.885 382.857 434.904 382.613 434.904C382.244 434.904 381.882 434.824 381.527 434.665C381.176 434.506 380.884 434.264 380.651 433.939C380.422 433.614 380.307 433.204 380.307 432.708V424.238ZM391.28 428.185L390.105 428.518C390.031 428.322 389.922 428.132 389.778 427.947C389.637 427.758 389.445 427.603 389.201 427.481C388.957 427.359 388.645 427.298 388.265 427.298C387.743 427.298 387.309 427.418 386.962 427.659C386.618 427.895 386.446 428.196 386.446 428.562C386.446 428.887 386.565 429.144 386.801 429.333C387.038 429.521 387.407 429.678 387.91 429.804L389.174 430.114C389.935 430.299 390.502 430.582 390.875 430.962C391.249 431.339 391.435 431.825 391.435 432.42C391.435 432.908 391.295 433.344 391.014 433.728C390.737 434.113 390.349 434.416 389.85 434.638C389.351 434.859 388.771 434.97 388.109 434.97C387.241 434.97 386.522 434.782 385.953 434.405C385.384 434.028 385.024 433.477 384.872 432.753L386.114 432.442C386.232 432.901 386.456 433.244 386.785 433.473C387.117 433.703 387.551 433.817 388.087 433.817C388.697 433.817 389.181 433.688 389.54 433.429C389.902 433.167 390.083 432.853 390.083 432.487C390.083 432.191 389.979 431.944 389.772 431.744C389.565 431.541 389.248 431.389 388.819 431.289L387.4 430.957C386.62 430.772 386.047 430.486 385.681 430.098C385.319 429.706 385.138 429.216 385.138 428.629C385.138 428.148 385.273 427.723 385.543 427.354C385.816 426.984 386.188 426.694 386.657 426.483C387.13 426.273 387.666 426.167 388.265 426.167C389.107 426.167 389.769 426.352 390.249 426.722C390.733 427.091 391.077 427.579 391.28 428.185Z" fill="white"/>
<path d="M510.314 405.965V409.134H497.608V405.965H502.103V393.571C502.103 393.301 502.109 393.025 502.119 392.744C502.129 392.463 502.145 392.177 502.166 391.885L499.2 394.352C498.992 394.508 498.789 394.607 498.591 394.648C498.394 394.69 498.206 394.695 498.029 394.664C497.852 394.622 497.696 394.56 497.561 394.477C497.426 394.383 497.322 394.289 497.249 394.196L495.891 392.369L502.853 386.469H506.396V405.965H510.314ZM527.441 405.185C527.909 405.185 528.273 405.315 528.533 405.575C528.804 405.835 528.939 406.179 528.939 406.605V409.134H513.236V407.729C513.236 407.459 513.293 407.167 513.407 406.855C513.522 406.533 513.714 406.241 513.985 405.981L520.697 399.253C521.269 398.681 521.774 398.135 522.211 397.614C522.648 397.084 523.013 396.568 523.304 396.069C523.595 395.559 523.814 395.044 523.96 394.524C524.105 394.003 524.178 393.457 524.178 392.885C524.178 391.875 523.918 391.11 523.398 390.59C522.877 390.059 522.144 389.794 521.197 389.794C520.78 389.794 520.395 389.856 520.042 389.981C519.698 390.096 519.386 390.257 519.105 390.465C518.834 390.673 518.6 390.918 518.402 391.199C518.205 391.48 518.059 391.787 517.965 392.12C517.778 392.64 517.523 392.989 517.201 393.165C516.888 393.332 516.441 393.368 515.858 393.275L513.579 392.869C513.746 391.766 514.058 390.798 514.516 389.965C514.974 389.133 515.546 388.441 516.233 387.889C516.92 387.338 517.705 386.927 518.59 386.656C519.474 386.375 520.427 386.235 521.446 386.235C522.518 386.235 523.491 386.396 524.365 386.719C525.25 387.031 526.004 387.473 526.629 388.045C527.253 388.607 527.737 389.289 528.081 390.09C528.424 390.892 528.596 391.776 528.596 392.744C528.596 393.577 528.476 394.347 528.237 395.054C527.997 395.762 527.669 396.438 527.253 397.084C526.847 397.718 526.374 398.338 525.833 398.941C525.292 399.545 524.719 400.153 524.116 400.767L519.308 405.685C519.839 405.528 520.364 405.409 520.884 405.325C521.405 405.232 521.894 405.185 522.352 405.185H527.441Z" fill="white"/>
<path d="M502.382 428.62C502.315 428.058 502.046 427.622 501.573 427.312C501.1 427.001 500.519 426.846 499.832 426.846C499.33 426.846 498.89 426.927 498.513 427.09C498.14 427.253 497.848 427.476 497.637 427.761C497.43 428.045 497.327 428.369 497.327 428.731C497.327 429.034 497.399 429.294 497.543 429.512C497.691 429.727 497.879 429.906 498.108 430.05C498.337 430.19 498.577 430.307 498.829 430.399C499.08 430.488 499.311 430.56 499.522 430.615L500.675 430.926C500.97 431.003 501.299 431.111 501.661 431.247C502.027 431.384 502.376 431.571 502.709 431.807C503.045 432.04 503.322 432.339 503.541 432.705C503.759 433.071 503.868 433.52 503.868 434.052C503.868 434.666 503.707 435.22 503.385 435.715C503.067 436.21 502.602 436.604 501.988 436.896C501.379 437.188 500.638 437.334 499.766 437.334C498.953 437.334 498.249 437.203 497.654 436.94C497.062 436.678 496.597 436.312 496.257 435.843C495.92 435.373 495.73 434.828 495.686 434.207H497.105C497.142 434.636 497.286 434.991 497.537 435.272C497.792 435.549 498.114 435.756 498.502 435.893C498.893 436.026 499.315 436.092 499.766 436.092C500.29 436.092 500.762 436.007 501.179 435.837C501.597 435.663 501.927 435.423 502.171 435.117C502.415 434.806 502.537 434.444 502.537 434.03C502.537 433.653 502.432 433.346 502.221 433.11C502.011 432.873 501.733 432.681 501.39 432.533C501.046 432.386 500.675 432.256 500.276 432.145L498.879 431.746C497.992 431.491 497.29 431.127 496.772 430.654C496.255 430.181 495.996 429.562 495.996 428.797C495.996 428.162 496.168 427.607 496.512 427.134C496.859 426.658 497.325 426.288 497.909 426.026C498.496 425.76 499.152 425.627 499.876 425.627C500.608 425.627 501.259 425.758 501.828 426.02C502.397 426.279 502.848 426.634 503.18 427.084C503.516 427.535 503.694 428.047 503.712 428.62H502.382ZM509.653 428.62V429.729H505.241V428.62H509.653ZM506.527 426.58H507.835V434.695C507.835 435.065 507.889 435.342 507.996 435.527C508.107 435.708 508.247 435.83 508.417 435.893C508.591 435.952 508.774 435.981 508.966 435.981C509.11 435.981 509.228 435.974 509.321 435.959C509.413 435.941 509.487 435.926 509.542 435.915L509.809 437.09C509.72 437.123 509.596 437.156 509.437 437.19C509.278 437.227 509.077 437.245 508.833 437.245C508.463 437.245 508.101 437.166 507.746 437.007C507.395 436.848 507.103 436.606 506.871 436.281C506.641 435.955 506.527 435.545 506.527 435.05V426.58ZM514.127 437.334C513.587 437.334 513.098 437.232 512.658 437.029C512.218 436.822 511.869 436.525 511.61 436.136C511.351 435.745 511.222 435.272 511.222 434.717C511.222 434.23 511.318 433.834 511.51 433.531C511.702 433.224 511.959 432.984 512.281 432.811C512.602 432.637 512.957 432.508 513.345 432.423C513.737 432.334 514.13 432.264 514.526 432.212C515.043 432.145 515.463 432.095 515.784 432.062C516.109 432.025 516.346 431.964 516.494 431.879C516.645 431.794 516.721 431.646 516.721 431.436V431.391C516.721 430.845 516.571 430.42 516.272 430.117C515.976 429.814 515.527 429.662 514.925 429.662C514.3 429.662 513.811 429.799 513.456 430.072C513.101 430.346 512.852 430.638 512.708 430.948L511.466 430.505C511.688 429.987 511.983 429.584 512.353 429.296C512.726 429.004 513.133 428.801 513.572 428.686C514.016 428.568 514.452 428.509 514.881 428.509C515.154 428.509 515.468 428.542 515.823 428.609C516.181 428.672 516.527 428.803 516.86 429.002C517.196 429.202 517.475 429.503 517.697 429.906C517.918 430.309 518.029 430.848 518.029 431.525V437.134H516.721V435.981H516.654C516.566 436.166 516.418 436.364 516.211 436.574C516.004 436.785 515.729 436.964 515.385 437.112C515.041 437.26 514.622 437.334 514.127 437.334ZM514.326 436.159C514.844 436.159 515.28 436.057 515.634 435.854C515.993 435.651 516.263 435.388 516.444 435.067C516.629 434.745 516.721 434.407 516.721 434.052V432.855C516.666 432.921 516.544 432.982 516.355 433.038C516.17 433.09 515.956 433.136 515.712 433.176C515.472 433.213 515.237 433.247 515.008 433.276C514.783 433.302 514.6 433.324 514.459 433.343C514.119 433.387 513.802 433.459 513.506 433.559C513.214 433.655 512.977 433.801 512.796 433.997C512.619 434.189 512.53 434.451 512.53 434.784C512.53 435.238 512.698 435.582 513.035 435.815C513.375 436.044 513.805 436.159 514.326 436.159ZM524.12 428.62V429.729H519.707V428.62H524.12ZM520.993 426.58H522.302V434.695C522.302 435.065 522.355 435.342 522.462 435.527C522.573 435.708 522.714 435.83 522.884 435.893C523.057 435.952 523.24 435.981 523.432 435.981C523.577 435.981 523.695 435.974 523.787 435.959C523.88 435.941 523.953 435.926 524.009 435.915L524.275 437.09C524.186 437.123 524.063 437.156 523.904 437.19C523.745 437.227 523.543 437.245 523.299 437.245C522.93 437.245 522.568 437.166 522.213 437.007C521.862 436.848 521.57 436.606 521.337 436.281C521.108 435.955 520.993 435.545 520.993 435.05V426.58ZM529.566 437.312C528.746 437.312 528.038 437.131 527.443 436.768C526.852 436.403 526.395 435.893 526.074 435.238C525.756 434.581 525.597 433.816 525.597 432.944C525.597 432.071 525.756 431.303 526.074 430.638C526.395 429.969 526.842 429.448 527.415 429.074C527.992 428.697 528.664 428.509 529.433 428.509C529.876 428.509 530.314 428.583 530.747 428.731C531.179 428.879 531.573 429.119 531.927 429.451C532.282 429.78 532.565 430.216 532.776 430.76C532.986 431.303 533.092 431.972 533.092 432.766V433.321H526.528V432.19H531.761C531.761 431.709 531.665 431.281 531.473 430.904C531.284 430.527 531.015 430.229 530.664 430.011C530.316 429.793 529.906 429.684 529.433 429.684C528.912 429.684 528.461 429.814 528.08 430.072C527.703 430.327 527.413 430.66 527.21 431.07C527.007 431.48 526.905 431.92 526.905 432.389V433.143C526.905 433.786 527.016 434.331 527.238 434.778C527.463 435.222 527.776 435.56 528.175 435.793C528.574 436.022 529.038 436.136 529.566 436.136C529.91 436.136 530.22 436.088 530.497 435.992C530.778 435.893 531.02 435.745 531.223 435.549C531.427 435.349 531.584 435.102 531.695 434.806L532.958 435.161C532.825 435.59 532.602 435.967 532.288 436.292C531.974 436.613 531.586 436.865 531.124 437.046C530.662 437.223 530.143 437.312 529.566 437.312Z" fill="white"/>
<path d="M662.306 405.185C662.775 405.185 663.139 405.315 663.399 405.575C663.67 405.835 663.805 406.179 663.805 406.605V409.134H648.101V407.729C648.101 407.459 648.159 407.167 648.273 406.855C648.388 406.533 648.58 406.241 648.851 405.981L655.563 399.253C656.135 398.681 656.64 398.135 657.077 397.614C657.514 397.084 657.878 396.568 658.17 396.069C658.461 395.559 658.68 395.044 658.825 394.524C658.971 394.003 659.044 393.457 659.044 392.885C659.044 391.875 658.784 391.11 658.263 390.59C657.743 390.059 657.009 389.794 656.062 389.794C655.646 389.794 655.261 389.856 654.907 389.981C654.564 390.096 654.252 390.257 653.971 390.465C653.7 390.673 653.466 390.918 653.268 391.199C653.071 391.48 652.925 391.787 652.831 392.12C652.644 392.64 652.389 392.989 652.066 393.165C651.754 393.332 651.307 393.368 650.724 393.275L648.445 392.869C648.611 391.766 648.924 390.798 649.381 389.965C649.839 389.133 650.412 388.441 651.099 387.889C651.785 387.338 652.571 386.927 653.456 386.656C654.34 386.375 655.292 386.235 656.312 386.235C657.384 386.235 658.357 386.396 659.231 386.719C660.116 387.031 660.87 387.473 661.495 388.045C662.119 388.607 662.603 389.289 662.946 390.09C663.29 390.892 663.461 391.776 663.461 392.744C663.461 393.577 663.342 394.347 663.102 395.054C662.863 395.762 662.535 396.438 662.119 397.084C661.713 397.718 661.24 398.338 660.699 398.941C660.157 399.545 659.585 400.153 658.981 400.767L654.174 405.685C654.704 405.528 655.23 405.409 655.75 405.325C656.271 405.232 656.76 405.185 657.218 405.185H662.306ZM678.662 385.86V409.134H674.353V385.86H678.662ZM690.663 402.406C689.612 402.459 688.738 402.552 688.04 402.687C687.343 402.812 686.786 402.979 686.37 403.187C685.964 403.395 685.673 403.634 685.496 403.905C685.329 404.165 685.246 404.451 685.246 404.764C685.246 405.388 685.418 405.83 685.761 406.09C686.115 406.351 686.604 406.481 687.229 406.481C687.947 406.481 688.566 406.356 689.086 406.106C689.617 405.846 690.142 405.445 690.663 404.904V402.406ZM681.89 395.273C682.837 394.419 683.883 393.785 685.028 393.368C686.172 392.942 687.411 392.728 688.743 392.728C689.7 392.728 690.553 392.885 691.303 393.197C692.062 393.509 692.702 393.946 693.223 394.508C693.753 395.059 694.159 395.72 694.44 396.49C694.721 397.26 694.862 398.103 694.862 399.019V409.134H692.895C692.489 409.134 692.177 409.077 691.958 408.963C691.75 408.848 691.578 408.609 691.443 408.245L691.1 407.214C690.694 407.568 690.298 407.88 689.913 408.151C689.539 408.421 689.149 408.65 688.743 408.838C688.337 409.015 687.9 409.15 687.431 409.244C686.974 409.337 686.458 409.384 685.886 409.384C685.178 409.384 684.533 409.29 683.951 409.103C683.368 408.916 682.863 408.64 682.436 408.276C682.02 407.901 681.698 407.438 681.469 406.886C681.24 406.335 681.125 405.7 681.125 404.982C681.125 404.389 681.276 403.796 681.578 403.203C681.88 402.609 682.395 402.073 683.123 401.595C683.862 401.106 684.84 400.705 686.058 400.393C687.286 400.07 688.821 399.888 690.663 399.846V399.019C690.663 398.01 690.449 397.271 690.023 396.803C689.596 396.324 688.982 396.085 688.181 396.085C687.588 396.085 687.093 396.157 686.698 396.303C686.302 396.438 685.954 396.589 685.652 396.756C685.361 396.912 685.085 397.063 684.825 397.208C684.564 397.344 684.263 397.411 683.919 397.411C683.618 397.411 683.363 397.339 683.154 397.193C682.957 397.037 682.79 396.855 682.655 396.646L681.89 395.273ZM702.533 385.86V399.066H703.251C703.522 399.066 703.735 399.03 703.891 398.957C704.047 398.873 704.203 398.728 704.359 398.52L707.918 393.774C708.095 393.535 708.293 393.353 708.511 393.228C708.74 393.103 709.027 393.041 709.37 393.041H713.304L708.683 398.91C708.319 399.399 707.898 399.784 707.419 400.065C707.658 400.232 707.866 400.424 708.043 400.643C708.22 400.861 708.392 401.106 708.558 401.376L713.538 409.134H709.667C709.334 409.134 709.047 409.082 708.808 408.978C708.569 408.864 708.371 408.666 708.215 408.385L704.593 402.469C704.448 402.219 704.297 402.058 704.141 401.985C703.985 401.912 703.751 401.876 703.438 401.876H702.533V409.134H698.225V385.86H702.533ZM719.576 394.617C719.877 394.347 720.19 394.102 720.512 393.884C720.845 393.655 721.194 393.462 721.558 393.306C721.933 393.139 722.328 393.015 722.744 392.931C723.171 392.838 723.629 392.791 724.118 392.791C724.992 392.791 725.767 392.942 726.444 393.244C727.12 393.545 727.687 393.967 728.145 394.508C728.614 395.049 728.962 395.694 729.191 396.444C729.431 397.193 729.55 398.015 729.55 398.91V409.134H725.258V398.91C725.258 398.015 725.049 397.323 724.633 396.834C724.217 396.334 723.603 396.085 722.791 396.085C722.188 396.085 721.621 396.215 721.09 396.475C720.559 396.735 720.054 397.099 719.576 397.567V409.134H715.267V385.86H719.576V394.617ZM747.919 400.221H741.988V406.543H738.491V400.221H732.591V397.084H738.491V390.777H741.988V397.084H747.919V400.221Z" fill="white"/>
<path d="M651.902 437.134H648.399V425.782H652.058C653.159 425.782 654.101 426.009 654.885 426.464C655.668 426.914 656.269 427.563 656.686 428.409C657.104 429.252 657.313 430.261 657.313 431.436C657.313 432.618 657.102 433.636 656.681 434.49C656.259 435.34 655.646 435.994 654.84 436.452C654.035 436.907 653.055 437.134 651.902 437.134ZM649.774 435.915H651.814C652.752 435.915 653.53 435.734 654.147 435.372C654.765 435.009 655.225 434.494 655.528 433.825C655.831 433.156 655.982 432.36 655.982 431.436C655.982 430.519 655.833 429.73 655.533 429.069C655.234 428.404 654.787 427.894 654.192 427.539C653.597 427.18 652.856 427.001 651.969 427.001H649.774V435.915ZM663.011 437.312C662.191 437.312 661.483 437.131 660.888 436.768C660.297 436.403 659.84 435.893 659.519 435.238C659.201 434.581 659.042 433.816 659.042 432.944C659.042 432.071 659.201 431.303 659.519 430.638C659.84 429.969 660.288 429.448 660.86 429.074C661.437 428.697 662.109 428.509 662.878 428.509C663.322 428.509 663.759 428.583 664.192 428.731C664.624 428.879 665.018 429.119 665.373 429.451C665.727 429.78 666.01 430.216 666.221 430.76C666.431 431.303 666.537 431.972 666.537 432.766V433.321H659.973V432.19H665.206C665.206 431.709 665.11 431.281 664.918 430.904C664.73 430.527 664.46 430.229 664.109 430.011C663.761 429.793 663.351 429.684 662.878 429.684C662.357 429.684 661.906 429.814 661.526 430.072C661.149 430.327 660.858 430.66 660.655 431.07C660.452 431.48 660.35 431.92 660.35 432.389V433.143C660.35 433.786 660.461 434.331 660.683 434.778C660.908 435.222 661.221 435.56 661.62 435.793C662.019 436.022 662.483 436.136 663.011 436.136C663.355 436.136 663.665 436.088 663.942 435.992C664.223 435.893 664.465 435.745 664.669 435.549C664.872 435.349 665.029 435.102 665.14 434.806L666.404 435.161C666.271 435.59 666.047 435.967 665.733 436.292C665.419 436.613 665.031 436.865 664.569 437.046C664.107 437.223 663.588 437.312 663.011 437.312ZM674.558 430.527L673.383 430.859C673.309 430.663 673.2 430.473 673.055 430.288C672.915 430.1 672.723 429.945 672.479 429.823C672.235 429.701 671.923 429.64 671.542 429.64C671.021 429.64 670.587 429.76 670.239 430C669.896 430.237 669.724 430.538 669.724 430.904C669.724 431.229 669.842 431.486 670.079 431.674C670.315 431.863 670.685 432.02 671.187 432.145L672.451 432.456C673.213 432.641 673.78 432.923 674.153 433.304C674.526 433.681 674.713 434.167 674.713 434.762C674.713 435.25 674.572 435.686 674.292 436.07C674.014 436.454 673.626 436.757 673.128 436.979C672.629 437.201 672.048 437.312 671.387 437.312C670.519 437.312 669.8 437.123 669.231 436.746C668.662 436.369 668.301 435.819 668.15 435.094L669.391 434.784C669.51 435.242 669.733 435.586 670.062 435.815C670.395 436.044 670.829 436.159 671.365 436.159C671.975 436.159 672.459 436.029 672.817 435.771C673.179 435.508 673.36 435.194 673.36 434.828C673.36 434.533 673.257 434.285 673.05 434.085C672.843 433.882 672.525 433.731 672.096 433.631L670.677 433.298C669.898 433.114 669.325 432.827 668.959 432.439C668.597 432.047 668.416 431.558 668.416 430.97C668.416 430.49 668.551 430.065 668.82 429.695C669.094 429.326 669.465 429.036 669.935 428.825C670.408 428.614 670.943 428.509 671.542 428.509C672.385 428.509 673.046 428.694 673.527 429.063C674.011 429.433 674.354 429.921 674.558 430.527ZM676.682 437.134V428.62H677.99V437.134H676.682ZM677.347 427.201C677.092 427.201 676.872 427.114 676.688 426.94C676.507 426.767 676.416 426.558 676.416 426.314C676.416 426.07 676.507 425.861 676.688 425.687C676.872 425.514 677.092 425.427 677.347 425.427C677.602 425.427 677.82 425.514 678.001 425.687C678.186 425.861 678.279 426.07 678.279 426.314C678.279 426.558 678.186 426.767 678.001 426.94C677.82 427.114 677.602 427.201 677.347 427.201ZM683.823 440.505C683.191 440.505 682.648 440.423 682.193 440.261C681.739 440.102 681.36 439.891 681.057 439.629C680.758 439.37 680.519 439.093 680.342 438.797L681.384 438.066C681.502 438.221 681.652 438.398 681.833 438.598C682.014 438.801 682.262 438.976 682.576 439.124C682.894 439.276 683.31 439.352 683.823 439.352C684.511 439.352 685.078 439.185 685.525 438.853C685.972 438.52 686.196 437.999 686.196 437.289V435.56H686.085C685.989 435.715 685.852 435.907 685.675 436.136C685.501 436.362 685.25 436.563 684.921 436.741C684.596 436.914 684.156 437.001 683.601 437.001C682.914 437.001 682.297 436.839 681.75 436.513C681.207 436.188 680.776 435.715 680.458 435.094C680.144 434.474 679.987 433.72 679.987 432.833C679.987 431.961 680.141 431.201 680.447 430.554C680.754 429.904 681.181 429.401 681.728 429.047C682.275 428.688 682.907 428.509 683.624 428.509C684.178 428.509 684.618 428.601 684.943 428.786C685.272 428.967 685.523 429.174 685.697 429.407C685.874 429.636 686.011 429.825 686.107 429.972H686.24V428.62H687.504V437.378C687.504 438.11 687.338 438.705 687.005 439.163C686.676 439.625 686.233 439.963 685.675 440.178C685.12 440.396 684.503 440.505 683.823 440.505ZM683.779 435.826C684.304 435.826 684.747 435.706 685.109 435.466C685.471 435.226 685.747 434.88 685.935 434.429C686.124 433.978 686.218 433.439 686.218 432.811C686.218 432.197 686.125 431.656 685.941 431.186C685.756 430.717 685.482 430.349 685.12 430.083C684.758 429.817 684.311 429.684 683.779 429.684C683.225 429.684 682.763 429.825 682.393 430.105C682.027 430.386 681.752 430.763 681.567 431.236C681.386 431.709 681.295 432.234 681.295 432.811C681.295 433.402 681.388 433.925 681.573 434.379C681.761 434.83 682.038 435.185 682.404 435.444C682.774 435.699 683.232 435.826 683.779 435.826ZM691.207 432.012V437.134H689.899V428.62H691.162V429.95H691.273C691.473 429.518 691.776 429.17 692.182 428.908C692.589 428.642 693.114 428.509 693.757 428.509C694.333 428.509 694.838 428.627 695.27 428.864C695.702 429.097 696.039 429.451 696.279 429.928C696.519 430.401 696.639 431 696.639 431.724V437.134H695.331V431.813C695.331 431.144 695.157 430.623 694.81 430.25C694.463 429.873 693.986 429.684 693.38 429.684C692.962 429.684 692.589 429.775 692.26 429.956C691.935 430.137 691.678 430.401 691.489 430.748C691.301 431.096 691.207 431.517 691.207 432.012ZM706.879 437.312C706.11 437.312 705.436 437.129 704.856 436.763C704.279 436.397 703.828 435.885 703.503 435.227C703.182 434.57 703.021 433.801 703.021 432.921C703.021 432.034 703.182 431.26 703.503 430.599C703.828 429.937 704.279 429.424 704.856 429.058C705.436 428.692 706.11 428.509 706.879 428.509C707.648 428.509 708.32 428.692 708.897 429.058C709.477 429.424 709.928 429.937 710.249 430.599C710.574 431.26 710.737 432.034 710.737 432.921C710.737 433.801 710.574 434.57 710.249 435.227C709.928 435.885 709.477 436.397 708.897 436.763C708.32 437.129 707.648 437.312 706.879 437.312ZM706.879 436.136C707.463 436.136 707.943 435.987 708.32 435.687C708.697 435.388 708.976 434.995 709.157 434.507C709.338 434.019 709.429 433.491 709.429 432.921C709.429 432.352 709.338 431.822 709.157 431.331C708.976 430.839 708.697 430.442 708.32 430.139C707.943 429.836 707.463 429.684 706.879 429.684C706.295 429.684 705.815 429.836 705.438 430.139C705.061 430.442 704.782 430.839 704.601 431.331C704.42 431.822 704.329 432.352 704.329 432.921C704.329 433.491 704.42 434.019 704.601 434.507C704.782 434.995 705.061 435.388 705.438 435.687C705.815 435.987 706.295 436.136 706.879 436.136ZM712.734 440.327V428.62H713.998V429.972H714.153C714.249 429.825 714.382 429.636 714.552 429.407C714.726 429.174 714.973 428.967 715.295 428.786C715.62 428.601 716.06 428.509 716.614 428.509C717.331 428.509 717.963 428.688 718.51 429.047C719.057 429.405 719.484 429.913 719.79 430.571C720.097 431.229 720.251 432.005 720.251 432.899C720.251 433.801 720.097 434.583 719.79 435.244C719.484 435.902 719.059 436.412 718.516 436.774C717.972 437.132 717.346 437.312 716.636 437.312C716.089 437.312 715.652 437.221 715.323 437.04C714.994 436.855 714.741 436.646 714.563 436.414C714.386 436.177 714.249 435.981 714.153 435.826H714.042V440.327H712.734ZM714.02 432.877C714.02 433.52 714.114 434.087 714.303 434.579C714.491 435.067 714.766 435.449 715.129 435.726C715.491 436 715.934 436.136 716.459 436.136C717.006 436.136 717.462 435.992 717.828 435.704C718.198 435.412 718.475 435.02 718.66 434.529C718.848 434.034 718.942 433.483 718.942 432.877C718.942 432.278 718.85 431.739 718.665 431.258C718.484 430.774 718.209 430.392 717.839 430.111C717.473 429.826 717.013 429.684 716.459 429.684C715.927 429.684 715.48 429.819 715.118 430.089C714.755 430.355 714.482 430.728 714.297 431.209C714.112 431.685 714.02 432.241 714.02 432.877ZM725.949 428.62V429.729H721.537V428.62H725.949ZM722.823 426.58H724.131V434.695C724.131 435.065 724.184 435.342 724.292 435.527C724.402 435.708 724.543 435.83 724.713 435.893C724.887 435.952 725.069 435.981 725.262 435.981C725.406 435.981 725.524 435.974 725.616 435.959C725.709 435.941 725.783 435.926 725.838 435.915L726.104 437.09C726.016 437.123 725.892 437.156 725.733 437.19C725.574 437.227 725.373 437.245 725.129 437.245C724.759 437.245 724.397 437.166 724.042 437.007C723.691 436.848 723.399 436.606 723.166 436.281C722.937 435.955 722.823 435.545 722.823 435.05V426.58ZM727.917 437.134V428.62H729.225V437.134H727.917ZM728.582 427.201C728.327 427.201 728.107 427.114 727.922 426.94C727.741 426.767 727.651 426.558 727.651 426.314C727.651 426.07 727.741 425.861 727.922 425.687C728.107 425.514 728.327 425.427 728.582 425.427C728.837 425.427 729.055 425.514 729.236 425.687C729.421 425.861 729.513 426.07 729.513 426.314C729.513 426.558 729.421 426.767 729.236 426.94C729.055 427.114 728.837 427.201 728.582 427.201ZM735.08 437.312C734.311 437.312 733.637 437.129 733.057 436.763C732.48 436.397 732.029 435.885 731.704 435.227C731.383 434.57 731.222 433.801 731.222 432.921C731.222 432.034 731.383 431.26 731.704 430.599C732.029 429.937 732.48 429.424 733.057 429.058C733.637 428.692 734.311 428.509 735.08 428.509C735.849 428.509 736.521 428.692 737.098 429.058C737.678 429.424 738.129 429.937 738.45 430.599C738.776 431.26 738.938 432.034 738.938 432.921C738.938 433.801 738.776 434.57 738.45 435.227C738.129 435.885 737.678 436.397 737.098 436.763C736.521 437.129 735.849 437.312 735.08 437.312ZM735.08 436.136C735.664 436.136 736.144 435.987 736.521 435.687C736.898 435.388 737.177 434.995 737.358 434.507C737.539 434.019 737.63 433.491 737.63 432.921C737.63 432.352 737.539 431.822 737.358 431.331C737.177 430.839 736.898 430.442 736.521 430.139C736.144 429.836 735.664 429.684 735.08 429.684C734.496 429.684 734.016 429.836 733.639 430.139C733.262 430.442 732.983 430.839 732.802 431.331C732.621 431.822 732.53 432.352 732.53 432.921C732.53 433.491 732.621 434.019 732.802 434.507C732.983 434.995 733.262 435.388 733.639 435.687C734.016 435.987 734.496 436.136 735.08 436.136ZM742.243 432.012V437.134H740.935V428.62H742.199V429.95H742.31C742.509 429.518 742.812 429.17 743.219 428.908C743.625 428.642 744.15 428.509 744.793 428.509C745.37 428.509 745.874 428.627 746.307 428.864C746.739 429.097 747.075 429.451 747.315 429.928C747.556 430.401 747.676 431 747.676 431.724V437.134H746.368V431.813C746.368 431.144 746.194 430.623 745.846 430.25C745.499 429.873 745.022 429.684 744.416 429.684C743.999 429.684 743.625 429.775 743.297 429.956C742.971 430.137 742.715 430.401 742.526 430.748C742.338 431.096 742.243 431.517 742.243 432.012Z" fill="white"/>
</svg>
