<svg width="360" height="60" viewBox="0 0 360 60" fill="none" xmlns="http://www.w3.org/2000/svg">
<rect width="360" height="60" rx="8" fill="#B07100"/>
<path d="M27.1134 27.6467V29H21.6867V27.6467H23.6067V22.3533C23.6067 22.2378 23.609 22.12 23.6134 22C23.6179 21.88 23.6245 21.7578 23.6334 21.6333L22.3667 22.6867C22.2779 22.7533 22.1912 22.7956 22.1067 22.8133C22.0223 22.8311 21.9423 22.8333 21.8667 22.82C21.7912 22.8022 21.7245 22.7756 21.6667 22.74C21.609 22.7 21.5645 22.66 21.5334 22.62L20.9534 21.84L23.9267 19.32H25.4401V27.6467H27.1134ZM35.3345 24.16C35.3345 25.0044 35.2433 25.7378 35.0611 26.36C34.8789 26.9822 34.6278 27.4978 34.3078 27.9067C33.9878 28.3111 33.6078 28.6133 33.1678 28.8133C32.7322 29.0089 32.2611 29.1067 31.7545 29.1067C31.2478 29.1067 30.7767 29.0089 30.3411 28.8133C29.9056 28.6133 29.53 28.3111 29.2145 27.9067C28.8989 27.4978 28.65 26.9822 28.4678 26.36C28.29 25.7378 28.2011 25.0044 28.2011 24.16C28.2011 23.3156 28.29 22.5844 28.4678 21.9667C28.65 21.3444 28.8989 20.8311 29.2145 20.4267C29.53 20.0178 29.9056 19.7156 30.3411 19.52C30.7767 19.32 31.2478 19.22 31.7545 19.22C32.2611 19.22 32.7322 19.32 33.1678 19.52C33.6078 19.7156 33.9878 20.0178 34.3078 20.4267C34.6278 20.8311 34.8789 21.3444 35.0611 21.9667C35.2433 22.5844 35.3345 23.3156 35.3345 24.16ZM33.4345 24.16C33.4345 23.4756 33.3856 22.9111 33.2878 22.4667C33.1945 22.0222 33.07 21.6711 32.9145 21.4133C32.7589 21.1556 32.5789 20.9756 32.3745 20.8733C32.1745 20.7711 31.9678 20.72 31.7545 20.72C31.5411 20.72 31.3345 20.7711 31.1345 20.8733C30.9389 20.9756 30.7633 21.1556 30.6078 21.4133C30.4567 21.6711 30.3345 22.0222 30.2411 22.4667C30.1478 22.9111 30.1011 23.4756 30.1011 24.16C30.1011 24.8489 30.1478 25.4156 30.2411 25.86C30.3345 26.3044 30.4567 26.6556 30.6078 26.9133C30.7633 27.1711 30.9389 27.3511 31.1345 27.4533C31.3345 27.5556 31.5411 27.6067 31.7545 27.6067C31.9678 27.6067 32.1745 27.5556 32.3745 27.4533C32.5789 27.3511 32.7589 27.1711 32.9145 26.9133C33.07 26.6556 33.1945 26.3044 33.2878 25.86C33.3856 25.4156 33.4345 24.8489 33.4345 24.16ZM36.3888 30.64C36.3399 30.6 36.3044 30.56 36.2822 30.52C36.2644 30.48 36.2555 30.4311 36.2555 30.3733C36.2555 30.3333 36.2688 30.2889 36.2955 30.24C36.3266 30.1956 36.3622 30.1533 36.4022 30.1133C36.4511 30.06 36.5111 29.9933 36.5822 29.9133C36.6533 29.8378 36.7244 29.7511 36.7955 29.6533C36.8666 29.56 36.9311 29.4556 36.9888 29.34C37.0511 29.2244 37.0977 29.1022 37.1288 28.9733C36.9822 28.9689 36.8488 28.9378 36.7288 28.88C36.6088 28.8222 36.5066 28.7467 36.4222 28.6533C36.3377 28.56 36.2711 28.4511 36.2222 28.3267C36.1777 28.1978 36.1555 28.06 36.1555 27.9133C36.1555 27.78 36.1799 27.6556 36.2288 27.54C36.2777 27.4244 36.3466 27.3244 36.4355 27.24C36.5288 27.1556 36.6377 27.0889 36.7622 27.04C36.8911 26.9911 37.0333 26.9667 37.1888 26.9667C37.3711 26.9667 37.5288 27 37.6622 27.0667C37.7999 27.1289 37.9133 27.2133 38.0022 27.32C38.0911 27.4267 38.1577 27.5533 38.2022 27.7C38.2466 27.8422 38.2688 27.9933 38.2688 28.1533C38.2688 28.3711 38.2355 28.6022 38.1688 28.8467C38.1022 29.0867 38.0022 29.3289 37.8688 29.5733C37.7355 29.8178 37.5711 30.0556 37.3755 30.2867C37.1844 30.5222 36.9622 30.7356 36.7088 30.9267L36.3888 30.64ZM46.2199 24.16C46.2199 25.0044 46.1288 25.7378 45.9465 26.36C45.7643 26.9822 45.5132 27.4978 45.1932 27.9067C44.8732 28.3111 44.4932 28.6133 44.0532 28.8133C43.6177 29.0089 43.1465 29.1067 42.6399 29.1067C42.1332 29.1067 41.6621 29.0089 41.2265 28.8133C40.791 28.6133 40.4154 28.3111 40.0999 27.9067C39.7843 27.4978 39.5354 26.9822 39.3532 26.36C39.1754 25.7378 39.0865 25.0044 39.0865 24.16C39.0865 23.3156 39.1754 22.5844 39.3532 21.9667C39.5354 21.3444 39.7843 20.8311 40.0999 20.4267C40.4154 20.0178 40.791 19.7156 41.2265 19.52C41.6621 19.32 42.1332 19.22 42.6399 19.22C43.1465 19.22 43.6177 19.32 44.0532 19.52C44.4932 19.7156 44.8732 20.0178 45.1932 20.4267C45.5132 20.8311 45.7643 21.3444 45.9465 21.9667C46.1288 22.5844 46.2199 23.3156 46.2199 24.16ZM44.3199 24.16C44.3199 23.4756 44.271 22.9111 44.1732 22.4667C44.0799 22.0222 43.9554 21.6711 43.7999 21.4133C43.6443 21.1556 43.4643 20.9756 43.2599 20.8733C43.0599 20.7711 42.8532 20.72 42.6399 20.72C42.4265 20.72 42.2199 20.7711 42.0199 20.8733C41.8243 20.9756 41.6488 21.1556 41.4932 21.4133C41.3421 21.6711 41.2199 22.0222 41.1265 22.4667C41.0332 22.9111 40.9865 23.4756 40.9865 24.16C40.9865 24.8489 41.0332 25.4156 41.1265 25.86C41.2199 26.3044 41.3421 26.6556 41.4932 26.9133C41.6488 27.1711 41.8243 27.3511 42.0199 27.4533C42.2199 27.5556 42.4265 27.6067 42.6399 27.6067C42.8532 27.6067 43.0599 27.5556 43.2599 27.4533C43.4643 27.3511 43.6443 27.1711 43.7999 26.9133C43.9554 26.6556 44.0799 26.3044 44.1732 25.86C44.271 25.4156 44.3199 24.8489 44.3199 24.16ZM53.9542 24.16C53.9542 25.0044 53.8631 25.7378 53.6809 26.36C53.4987 26.9822 53.2476 27.4978 52.9276 27.9067C52.6076 28.3111 52.2276 28.6133 51.7876 28.8133C51.352 29.0089 50.8809 29.1067 50.3742 29.1067C49.8676 29.1067 49.3965 29.0089 48.9609 28.8133C48.5254 28.6133 48.1498 28.3111 47.8342 27.9067C47.5187 27.4978 47.2698 26.9822 47.0876 26.36C46.9098 25.7378 46.8209 25.0044 46.8209 24.16C46.8209 23.3156 46.9098 22.5844 47.0876 21.9667C47.2698 21.3444 47.5187 20.8311 47.8342 20.4267C48.1498 20.0178 48.5254 19.7156 48.9609 19.52C49.3965 19.32 49.8676 19.22 50.3742 19.22C50.8809 19.22 51.352 19.32 51.7876 19.52C52.2276 19.7156 52.6076 20.0178 52.9276 20.4267C53.2476 20.8311 53.4987 21.3444 53.6809 21.9667C53.8631 22.5844 53.9542 23.3156 53.9542 24.16ZM52.0542 24.16C52.0542 23.4756 52.0054 22.9111 51.9076 22.4667C51.8142 22.0222 51.6898 21.6711 51.5342 21.4133C51.3787 21.1556 51.1987 20.9756 50.9942 20.8733C50.7942 20.7711 50.5876 20.72 50.3742 20.72C50.1609 20.72 49.9542 20.7711 49.7542 20.8733C49.5587 20.9756 49.3831 21.1556 49.2276 21.4133C49.0765 21.6711 48.9542 22.0222 48.8609 22.4667C48.7676 22.9111 48.7209 23.4756 48.7209 24.16C48.7209 24.8489 48.7676 25.4156 48.8609 25.86C48.9542 26.3044 49.0765 26.6556 49.2276 26.9133C49.3831 27.1711 49.5587 27.3511 49.7542 27.4533C49.9542 27.5556 50.1609 27.6067 50.3742 27.6067C50.5876 27.6067 50.7942 27.5556 50.9942 27.4533C51.1987 27.3511 51.3787 27.1711 51.5342 26.9133C51.6898 26.6556 51.8142 26.3044 51.9076 25.86C52.0054 25.4156 52.0542 24.8489 52.0542 24.16ZM61.6886 24.16C61.6886 25.0044 61.5975 25.7378 61.4153 26.36C61.2331 26.9822 60.982 27.4978 60.662 27.9067C60.342 28.3111 59.962 28.6133 59.522 28.8133C59.0864 29.0089 58.6153 29.1067 58.1086 29.1067C57.602 29.1067 57.1308 29.0089 56.6953 28.8133C56.2597 28.6133 55.8842 28.3111 55.5686 27.9067C55.2531 27.4978 55.0042 26.9822 54.822 26.36C54.6442 25.7378 54.5553 25.0044 54.5553 24.16C54.5553 23.3156 54.6442 22.5844 54.822 21.9667C55.0042 21.3444 55.2531 20.8311 55.5686 20.4267C55.8842 20.0178 56.2597 19.7156 56.6953 19.52C57.1308 19.32 57.602 19.22 58.1086 19.22C58.6153 19.22 59.0864 19.32 59.522 19.52C59.962 19.7156 60.342 20.0178 60.662 20.4267C60.982 20.8311 61.2331 21.3444 61.4153 21.9667C61.5975 22.5844 61.6886 23.3156 61.6886 24.16ZM59.7886 24.16C59.7886 23.4756 59.7397 22.9111 59.642 22.4667C59.5486 22.0222 59.4242 21.6711 59.2686 21.4133C59.1131 21.1556 58.9331 20.9756 58.7286 20.8733C58.5286 20.7711 58.322 20.72 58.1086 20.72C57.8953 20.72 57.6886 20.7711 57.4886 20.8733C57.2931 20.9756 57.1175 21.1556 56.962 21.4133C56.8108 21.6711 56.6886 22.0222 56.5953 22.4667C56.502 22.9111 56.4553 23.4756 56.4553 24.16C56.4553 24.8489 56.502 25.4156 56.5953 25.86C56.6886 26.3044 56.8108 26.6556 56.962 26.9133C57.1175 27.1711 57.2931 27.3511 57.4886 27.4533C57.6886 27.5556 57.8953 27.6067 58.1086 27.6067C58.322 27.6067 58.5286 27.5556 58.7286 27.4533C58.9331 27.3511 59.1131 27.1711 59.2686 26.9133C59.4242 26.6556 59.5486 26.3044 59.642 25.86C59.7397 25.4156 59.7886 24.8489 59.7886 24.16ZM69.1297 25.1933H66.5963V27.8933H65.103V25.1933H62.583V23.8533H65.103V21.16H66.5963V23.8533H69.1297V25.1933Z" fill="white"/>
<path d="M23.3299 36.1515V41H22.7428V36.1515H23.3299ZM24.9901 38.8125V41H24.4314V37.3636H24.9711V37.9318H25.0185C25.1037 37.7472 25.2331 37.5988 25.4067 37.4867C25.5804 37.3731 25.8045 37.3163 26.0791 37.3163C26.3253 37.3163 26.5407 37.3668 26.7254 37.4678C26.9101 37.5672 27.0537 37.7187 27.1563 37.9223C27.2589 38.1244 27.3102 38.3801 27.3102 38.6894V41H26.7514V38.7273C26.7514 38.4416 26.6773 38.2191 26.5289 38.0597C26.3805 37.8987 26.1769 37.8182 25.9181 37.8182C25.7398 37.8182 25.5804 37.8568 25.4399 37.9342C25.301 38.0115 25.1913 38.1244 25.1108 38.2727C25.0303 38.4211 24.9901 38.601 24.9901 38.8125ZM29.9125 37.3636V37.8371H28.0281V37.3636H29.9125ZM28.5773 36.4924H29.136V39.9583C29.136 40.1162 29.1589 40.2345 29.2047 40.3134C29.252 40.3908 29.312 40.4429 29.3846 40.4697C29.4588 40.4949 29.5369 40.5076 29.619 40.5076C29.6805 40.5076 29.731 40.5044 29.7705 40.4981C29.81 40.4902 29.8415 40.4839 29.8652 40.4792L29.9788 40.9811C29.941 40.9953 29.8881 41.0095 29.8202 41.0237C29.7523 41.0395 29.6663 41.0473 29.5622 41.0473C29.4043 41.0473 29.2497 41.0134 29.0982 40.9455C28.9482 40.8777 28.8235 40.7743 28.7241 40.6354C28.6262 40.4965 28.5773 40.3213 28.5773 40.1098V36.4924ZM32.2385 41.0758C31.8882 41.0758 31.5859 40.9984 31.3318 40.8437C31.0793 40.6875 30.8844 40.4697 30.7471 40.1903C30.6113 39.9094 30.5435 39.5827 30.5435 39.2102C30.5435 38.8378 30.6113 38.5095 30.7471 38.2254C30.8844 37.9397 31.0753 37.7172 31.32 37.5578C31.5662 37.3968 31.8534 37.3163 32.1817 37.3163C32.3711 37.3163 32.5581 37.3479 32.7428 37.411C32.9275 37.4741 33.0955 37.5767 33.2471 37.7187C33.3986 37.8592 33.5193 38.0455 33.6093 38.2775C33.6992 38.5095 33.7442 38.7951 33.7442 39.1345V39.3712H30.9412V38.8883H33.176C33.176 38.6831 33.135 38.5 33.0529 38.339C32.9724 38.178 32.8572 38.051 32.7073 37.9579C32.5589 37.8647 32.3837 37.8182 32.1817 37.8182C31.9592 37.8182 31.7666 37.8734 31.6041 37.9839C31.4431 38.0928 31.3192 38.2348 31.2324 38.41C31.1456 38.5852 31.1022 38.773 31.1022 38.9735V39.2955C31.1022 39.5701 31.1495 39.8029 31.2442 39.9938C31.3405 40.1832 31.4739 40.3277 31.6443 40.4271C31.8148 40.5249 32.0128 40.5739 32.2385 40.5739C32.3853 40.5739 32.5179 40.5533 32.6363 40.5123C32.7562 40.4697 32.8596 40.4066 32.9464 40.3229C33.0332 40.2377 33.1003 40.1319 33.1476 40.0057L33.6874 40.1572C33.6306 40.3403 33.5351 40.5013 33.4009 40.6402C33.2668 40.7775 33.1011 40.8848 32.9038 40.9621C32.7065 41.0379 32.4848 41.0758 32.2385 41.0758ZM34.5941 41V37.3636H35.1339V37.9129H35.1718C35.2381 37.733 35.358 37.587 35.5316 37.4749C35.7052 37.3628 35.9009 37.3068 36.1187 37.3068C36.1598 37.3068 36.2111 37.3076 36.2726 37.3092C36.3342 37.3108 36.3807 37.3131 36.4123 37.3163V37.8845C36.3934 37.8797 36.35 37.8726 36.2821 37.8632C36.2158 37.8521 36.1456 37.8466 36.0714 37.8466C35.8946 37.8466 35.7368 37.8837 35.5979 37.9579C35.4606 38.0305 35.3517 38.1315 35.2712 38.2609C35.1923 38.3887 35.1528 38.5347 35.1528 38.6989V41H34.5941ZM37.0746 41V37.3636H37.6333V41H37.0746ZM37.3587 36.7576C37.2498 36.7576 37.1559 36.7205 37.077 36.6463C36.9996 36.5721 36.961 36.483 36.961 36.3788C36.961 36.2746 36.9996 36.1854 37.077 36.1113C37.1559 36.0371 37.2498 36 37.3587 36C37.4676 36 37.5607 36.0371 37.638 36.1113C37.717 36.1854 37.7564 36.2746 37.7564 36.3788C37.7564 36.483 37.717 36.5721 37.638 36.6463C37.5607 36.7205 37.4676 36.7576 37.3587 36.7576ZM40.1339 41.0758C39.8056 41.0758 39.5176 40.9976 39.2698 40.8414C39.0236 40.6851 38.831 40.4665 38.6921 40.1856C38.5548 39.9047 38.4862 39.5764 38.4862 39.2008C38.4862 38.822 38.5548 38.4913 38.6921 38.2088C38.831 37.9263 39.0236 37.7069 39.2698 37.5507C39.5176 37.3944 39.8056 37.3163 40.1339 37.3163C40.4622 37.3163 40.7494 37.3944 40.9956 37.5507C41.2434 37.7069 41.436 37.9263 41.5733 38.2088C41.7122 38.4913 41.7816 38.822 41.7816 39.2008C41.7816 39.5764 41.7122 39.9047 41.5733 40.1856C41.436 40.4665 41.2434 40.6851 40.9956 40.8414C40.7494 40.9976 40.4622 41.0758 40.1339 41.0758ZM40.1339 40.5739C40.3833 40.5739 40.5884 40.5099 40.7494 40.3821C40.9104 40.2543 41.0296 40.0862 41.1069 39.8778C41.1842 39.6695 41.2229 39.4438 41.2229 39.2008C41.2229 38.9577 41.1842 38.7312 41.1069 38.5213C41.0296 38.3114 40.9104 38.1417 40.7494 38.0123C40.5884 37.8829 40.3833 37.8182 40.1339 37.8182C39.8845 37.8182 39.6794 37.8829 39.5184 38.0123C39.3574 38.1417 39.2382 38.3114 39.1609 38.5213C39.0836 38.7312 39.0449 38.9577 39.0449 39.2008C39.0449 39.4438 39.0836 39.6695 39.1609 39.8778C39.2382 40.0862 39.3574 40.2543 39.5184 40.3821C39.6794 40.5099 39.8845 40.5739 40.1339 40.5739ZM42.6345 41V37.3636H43.1743V37.9129H43.2121C43.2784 37.733 43.3984 37.587 43.572 37.4749C43.7456 37.3628 43.9413 37.3068 44.1591 37.3068C44.2001 37.3068 44.2514 37.3076 44.313 37.3092C44.3745 37.3108 44.4211 37.3131 44.4527 37.3163V37.8845C44.4337 37.8797 44.3903 37.8726 44.3225 37.8632C44.2562 37.8521 44.1859 37.8466 44.1118 37.8466C43.935 37.8466 43.7772 37.8837 43.6383 37.9579C43.501 38.0305 43.3921 38.1315 43.3116 38.2609C43.2327 38.3887 43.1932 38.5347 43.1932 38.6989V41H42.6345ZM48.5619 41H47.0657V36.1515H48.6282C49.0985 36.1515 49.501 36.2486 49.8356 36.4427C50.1702 36.6353 50.4267 36.9122 50.605 37.2737C50.7834 37.6335 50.8725 38.0644 50.8725 38.5663C50.8725 39.0713 50.7826 39.5062 50.6027 39.8707C50.4227 40.2337 50.1607 40.5131 49.8167 40.7088C49.4726 40.9029 49.0544 41 48.5619 41ZM47.6528 40.4792H48.5241C48.9249 40.4792 49.2572 40.4018 49.5207 40.2472C49.7843 40.0925 49.9808 39.8723 50.1102 39.5866C50.2396 39.301 50.3044 38.9609 50.3044 38.5663C50.3044 38.1749 50.2404 37.8379 50.1126 37.5554C49.9848 37.2713 49.7938 37.0535 49.5397 36.902C49.2856 36.7489 48.9691 36.6723 48.5903 36.6723H47.6528V40.4792ZM53.3062 41.0758C52.9559 41.0758 52.6536 40.9984 52.3995 40.8437C52.147 40.6875 51.9521 40.4697 51.8148 40.1903C51.679 39.9094 51.6112 39.5827 51.6112 39.2102C51.6112 38.8378 51.679 38.5095 51.8148 38.2254C51.9521 37.9397 52.1431 37.7172 52.3877 37.5578C52.6339 37.3968 52.9211 37.3163 53.2494 37.3163C53.4388 37.3163 53.6259 37.3479 53.8105 37.411C53.9952 37.4741 54.1633 37.5767 54.3148 37.7187C54.4663 37.8592 54.587 38.0455 54.677 38.2775C54.7669 38.5095 54.8119 38.7951 54.8119 39.1345V39.3712H52.0089V38.8883H54.2437C54.2437 38.6831 54.2027 38.5 54.1206 38.339C54.0402 38.178 53.9249 38.051 53.775 37.9579C53.6266 37.8647 53.4515 37.8182 53.2494 37.8182C53.0269 37.8182 52.8343 37.8734 52.6718 37.9839C52.5108 38.0928 52.3869 38.2348 52.3001 38.41C52.2133 38.5852 52.1699 38.773 52.1699 38.9735V39.2955C52.1699 39.5701 52.2172 39.8029 52.3119 39.9938C52.4082 40.1832 52.5416 40.3277 52.712 40.4271C52.8825 40.5249 53.0806 40.5739 53.3062 40.5739C53.453 40.5739 53.5856 40.5533 53.704 40.5123C53.8239 40.4697 53.9273 40.4066 54.0141 40.3229C54.1009 40.2377 54.168 40.1319 54.2153 40.0057L54.7551 40.1572C54.6983 40.3403 54.6028 40.5013 54.4687 40.6402C54.3345 40.7775 54.1688 40.8848 53.9715 40.9621C53.7742 41.0379 53.5525 41.0758 53.3062 41.0758ZM58.2376 38.178L57.7357 38.3201C57.7041 38.2364 57.6576 38.1551 57.596 38.0762C57.536 37.9957 57.454 37.9295 57.3498 37.8774C57.2456 37.8253 57.1123 37.7992 56.9497 37.7992C56.7272 37.7992 56.5417 37.8505 56.3934 37.9531C56.2466 38.0541 56.1732 38.1828 56.1732 38.339C56.1732 38.4779 56.2237 38.5876 56.3247 38.6681C56.4257 38.7486 56.5836 38.8157 56.7982 38.8693L57.338 39.0019C57.6631 39.0808 57.9054 39.2015 58.0648 39.3641C58.2242 39.5251 58.3039 39.7326 58.3039 39.9867C58.3039 40.1951 58.2439 40.3813 58.124 40.5455C58.0056 40.7096 57.8399 40.839 57.6268 40.9337C57.4137 41.0284 57.1659 41.0758 56.8834 41.0758C56.5125 41.0758 56.2056 40.9953 55.9625 40.8343C55.7194 40.6733 55.5656 40.4381 55.5009 40.1288L56.0312 39.9962C56.0817 40.1919 56.1771 40.3387 56.3176 40.4366C56.4597 40.5344 56.6451 40.5833 56.874 40.5833C57.1344 40.5833 57.3411 40.5281 57.4942 40.4176C57.6489 40.3056 57.7262 40.1714 57.7262 40.0152C57.7262 39.8889 57.682 39.7831 57.5937 39.6979C57.5053 39.6111 57.3695 39.5464 57.1865 39.5038L56.5804 39.3617C56.2474 39.2828 56.0027 39.1605 55.8465 38.9948C55.6918 38.8275 55.6145 38.6184 55.6145 38.3674C55.6145 38.1622 55.6721 37.9807 55.7873 37.8229C55.9041 37.6651 56.0627 37.5412 56.2632 37.4512C56.4652 37.3613 56.694 37.3163 56.9497 37.3163C57.3096 37.3163 57.5921 37.3952 57.7973 37.553C58.004 37.7109 58.1508 37.9192 58.2376 38.178ZM59.1449 41V37.3636H59.7036V41H59.1449ZM59.429 36.7576C59.3201 36.7576 59.2262 36.7205 59.1473 36.6463C59.0699 36.5721 59.0313 36.483 59.0313 36.3788C59.0313 36.2746 59.0699 36.1854 59.1473 36.1113C59.2262 36.0371 59.3201 36 59.429 36C59.5379 36 59.631 36.0371 59.7084 36.1113C59.7873 36.1854 59.8267 36.2746 59.8267 36.3788C59.8267 36.483 59.7873 36.5721 59.7084 36.6463C59.631 36.7205 59.5379 36.7576 59.429 36.7576ZM62.1947 42.4394C61.9249 42.4394 61.6928 42.4047 61.4987 42.3352C61.3046 42.2674 61.1428 42.1774 61.0134 42.0653C60.8856 41.9549 60.7838 41.8365 60.708 41.7102L61.1531 41.3977C61.2036 41.464 61.2675 41.5398 61.3448 41.625C61.4222 41.7118 61.5279 41.7868 61.6621 41.8499C61.7978 41.9146 61.9754 41.947 62.1947 41.947C62.4883 41.947 62.7306 41.8759 62.9215 41.7339C63.1125 41.5919 63.208 41.3693 63.208 41.0663V40.3277H63.1607C63.1196 40.3939 63.0612 40.476 62.9855 40.5739C62.9113 40.6701 62.804 40.7562 62.6635 40.8319C62.5246 40.9061 62.3368 40.9432 62.1 40.9432C61.8065 40.9432 61.5429 40.8737 61.3093 40.7348C61.0773 40.596 60.8934 40.3939 60.7577 40.1288C60.6236 39.8636 60.5565 39.5417 60.5565 39.1629C60.5565 38.7904 60.622 38.4661 60.753 38.1899C60.884 37.9121 61.0663 37.6974 61.2999 37.5459C61.5334 37.3928 61.8033 37.3163 62.1095 37.3163C62.3463 37.3163 62.5341 37.3557 62.673 37.4347C62.8134 37.512 62.9208 37.6004 62.9949 37.6998C63.0707 37.7977 63.1291 37.8782 63.1701 37.9413H63.2269V37.3636H63.7667V41.1042C63.7667 41.4167 63.6957 41.6708 63.5536 41.8665C63.4132 42.0638 63.2238 42.2082 62.9855 42.2997C62.7487 42.3928 62.4851 42.4394 62.1947 42.4394ZM62.1758 40.4413C62.3999 40.4413 62.5893 40.39 62.744 40.2874C62.8987 40.1848 63.0162 40.0372 63.0967 39.8447C63.1772 39.6521 63.2175 39.4217 63.2175 39.1534C63.2175 38.8914 63.178 38.6602 63.0991 38.4598C63.0202 38.2593 62.9034 38.1023 62.7487 37.9886C62.594 37.875 62.4031 37.8182 62.1758 37.8182C61.9391 37.8182 61.7418 37.8782 61.5839 37.9981C61.4277 38.1181 61.3101 38.279 61.2312 38.4811C61.1539 38.6831 61.1152 38.9072 61.1152 39.1534C61.1152 39.4059 61.1547 39.6293 61.2336 39.8234C61.3141 40.0159 61.4324 40.1675 61.5887 40.2779C61.7465 40.3868 61.9422 40.4413 62.1758 40.4413ZM65.3482 38.8125V41H64.7894V37.3636H65.3292V37.9318H65.3766C65.4618 37.7472 65.5912 37.5988 65.7648 37.4867C65.9384 37.3731 66.1625 37.3163 66.4372 37.3163C66.6834 37.3163 66.8988 37.3668 67.0835 37.4678C67.2681 37.5672 67.4118 37.7187 67.5143 37.9223C67.6169 38.1244 67.6682 38.3801 67.6682 38.6894V41H67.1095V38.7273C67.1095 38.4416 67.0353 38.2191 66.887 38.0597C66.7386 37.8987 66.535 37.8182 66.2762 37.8182C66.0978 37.8182 65.9384 37.8568 65.798 37.9342C65.6591 38.0115 65.5494 38.1244 65.4689 38.2727C65.3884 38.4211 65.3482 38.601 65.3482 38.8125Z" fill="white"/>
<path d="M125.691 23.0533C125.762 22.5822 125.896 22.1689 126.091 21.8133C126.287 21.4578 126.531 21.1622 126.825 20.9267C127.118 20.6911 127.451 20.5156 127.825 20.4C128.202 20.28 128.609 20.22 129.045 20.22C129.507 20.22 129.92 20.2867 130.285 20.42C130.654 20.5489 130.965 20.7267 131.218 20.9533C131.471 21.18 131.665 21.4444 131.798 21.7467C131.936 22.0489 132.005 22.3733 132.005 22.72C132.005 23.0267 131.971 23.2978 131.905 23.5333C131.842 23.7644 131.747 23.9667 131.618 24.14C131.494 24.3133 131.338 24.46 131.151 24.58C130.969 24.7 130.758 24.8 130.518 24.88C131.629 25.2444 132.185 25.9844 132.185 27.1C132.185 27.5933 132.094 28.0289 131.911 28.4067C131.729 28.78 131.485 29.0933 131.178 29.3467C130.871 29.6 130.514 29.7911 130.105 29.92C129.7 30.0444 129.276 30.1067 128.831 30.1067C128.36 30.1067 127.945 30.0533 127.585 29.9467C127.225 29.84 126.907 29.68 126.631 29.4667C126.36 29.2533 126.127 28.9867 125.931 28.6667C125.736 28.3422 125.565 27.9644 125.418 27.5333L126.231 27.2C126.445 27.1111 126.642 27.0867 126.825 27.1267C127.011 27.1667 127.145 27.2644 127.225 27.42C127.314 27.5889 127.407 27.7444 127.505 27.8867C127.607 28.0289 127.72 28.1533 127.845 28.26C127.969 28.3622 128.109 28.4422 128.265 28.5C128.425 28.5578 128.607 28.5867 128.811 28.5867C129.069 28.5867 129.294 28.5444 129.485 28.46C129.676 28.3756 129.836 28.2667 129.965 28.1333C130.094 27.9956 130.189 27.8422 130.251 27.6733C130.318 27.5 130.351 27.3289 130.351 27.16C130.351 26.9378 130.331 26.7378 130.291 26.56C130.251 26.3778 130.158 26.2244 130.011 26.1C129.869 25.9711 129.656 25.8733 129.371 25.8067C129.091 25.7356 128.709 25.7 128.225 25.7V24.4067C128.629 24.4067 128.96 24.3733 129.218 24.3067C129.476 24.24 129.678 24.1467 129.825 24.0267C129.971 23.9067 130.071 23.7622 130.125 23.5933C130.182 23.4244 130.211 23.24 130.211 23.04C130.211 22.6178 130.1 22.2956 129.878 22.0733C129.66 21.8511 129.349 21.74 128.945 21.74C128.767 21.74 128.602 21.7667 128.451 21.82C128.305 21.8689 128.171 21.9378 128.051 22.0267C127.936 22.1156 127.836 22.22 127.751 22.34C127.667 22.46 127.605 22.5911 127.565 22.7333C127.48 22.9556 127.371 23.1044 127.238 23.18C127.105 23.2511 126.911 23.2667 126.658 23.2267L125.691 23.0533ZM140.199 25.16C140.199 26.0044 140.108 26.7378 139.926 27.36C139.743 27.9822 139.492 28.4978 139.172 28.9067C138.852 29.3111 138.472 29.6133 138.032 29.8133C137.597 30.0089 137.126 30.1067 136.619 30.1067C136.112 30.1067 135.641 30.0089 135.206 29.8133C134.77 29.6133 134.395 29.3111 134.079 28.9067C133.763 28.4978 133.515 27.9822 133.332 27.36C133.155 26.7378 133.066 26.0044 133.066 25.16C133.066 24.3156 133.155 23.5844 133.332 22.9667C133.515 22.3444 133.763 21.8311 134.079 21.4267C134.395 21.0178 134.77 20.7156 135.206 20.52C135.641 20.32 136.112 20.22 136.619 20.22C137.126 20.22 137.597 20.32 138.032 20.52C138.472 20.7156 138.852 21.0178 139.172 21.4267C139.492 21.8311 139.743 22.3444 139.926 22.9667C140.108 23.5844 140.199 24.3156 140.199 25.16ZM138.299 25.16C138.299 24.4756 138.25 23.9111 138.152 23.4667C138.059 23.0222 137.935 22.6711 137.779 22.4133C137.623 22.1556 137.443 21.9756 137.239 21.8733C137.039 21.7711 136.832 21.72 136.619 21.72C136.406 21.72 136.199 21.7711 135.999 21.8733C135.803 21.9756 135.628 22.1556 135.472 22.4133C135.321 22.6711 135.199 23.0222 135.106 23.4667C135.012 23.9111 134.966 24.4756 134.966 25.16C134.966 25.8489 135.012 26.4156 135.106 26.86C135.199 27.3044 135.321 27.6556 135.472 27.9133C135.628 28.1711 135.803 28.3511 135.999 28.4533C136.199 28.5556 136.406 28.6067 136.619 28.6067C136.832 28.6067 137.039 28.5556 137.239 28.4533C137.443 28.3511 137.623 28.1711 137.779 27.9133C137.935 27.6556 138.059 27.3044 138.152 26.86C138.25 26.4156 138.299 25.8489 138.299 25.16ZM147.933 25.16C147.933 26.0044 147.842 26.7378 147.66 27.36C147.478 27.9822 147.227 28.4978 146.907 28.9067C146.587 29.3111 146.207 29.6133 145.767 29.8133C145.331 30.0089 144.86 30.1067 144.353 30.1067C143.847 30.1067 143.376 30.0089 142.94 29.8133C142.504 29.6133 142.129 29.3111 141.813 28.9067C141.498 28.4978 141.249 27.9822 141.067 27.36C140.889 26.7378 140.8 26.0044 140.8 25.16C140.8 24.3156 140.889 23.5844 141.067 22.9667C141.249 22.3444 141.498 21.8311 141.813 21.4267C142.129 21.0178 142.504 20.7156 142.94 20.52C143.376 20.32 143.847 20.22 144.353 20.22C144.86 20.22 145.331 20.32 145.767 20.52C146.207 20.7156 146.587 21.0178 146.907 21.4267C147.227 21.8311 147.478 22.3444 147.66 22.9667C147.842 23.5844 147.933 24.3156 147.933 25.16ZM146.033 25.16C146.033 24.4756 145.984 23.9111 145.887 23.4667C145.793 23.0222 145.669 22.6711 145.513 22.4133C145.358 22.1556 145.178 21.9756 144.973 21.8733C144.773 21.7711 144.567 21.72 144.353 21.72C144.14 21.72 143.933 21.7711 143.733 21.8733C143.538 21.9756 143.362 22.1556 143.207 22.4133C143.056 22.6711 142.933 23.0222 142.84 23.4667C142.747 23.9111 142.7 24.4756 142.7 25.16C142.7 25.8489 142.747 26.4156 142.84 26.86C142.933 27.3044 143.056 27.6556 143.207 27.9133C143.362 28.1711 143.538 28.3511 143.733 28.4533C143.933 28.5556 144.14 28.6067 144.353 28.6067C144.567 28.6067 144.773 28.5556 144.973 28.4533C145.178 28.3511 145.358 28.1711 145.513 27.9133C145.669 27.6556 145.793 27.3044 145.887 26.86C145.984 26.4156 146.033 25.8489 146.033 25.16ZM155.374 26.1933H152.841V28.8933H151.348V26.1933H148.828V24.8533H151.348V22.16H152.841V24.8533H155.374V26.1933Z" fill="white"/>
<path d="M115.578 42H114.082V37.1515H115.644C116.115 37.1515 116.517 37.2486 116.852 37.4427C117.186 37.6353 117.443 37.9122 117.621 38.2737C117.8 38.6335 117.889 39.0644 117.889 39.5663C117.889 40.0713 117.799 40.5062 117.619 40.8707C117.439 41.2337 117.177 41.5131 116.833 41.7088C116.489 41.9029 116.071 42 115.578 42ZM114.669 41.4792H115.54C115.941 41.4792 116.273 41.4018 116.537 41.2472C116.801 41.0925 116.997 40.8723 117.126 40.5866C117.256 40.301 117.321 39.9609 117.321 39.5663C117.321 39.1749 117.257 38.8379 117.129 38.5554C117.001 38.2713 116.81 38.0535 116.556 37.902C116.302 37.7489 115.985 37.6723 115.607 37.6723H114.669V41.4792ZM120.322 42.0758C119.972 42.0758 119.67 41.9984 119.416 41.8437C119.163 41.6875 118.968 41.4697 118.831 41.1903C118.695 40.9094 118.627 40.5827 118.627 40.2102C118.627 39.8378 118.695 39.5095 118.831 39.2254C118.968 38.9397 119.159 38.7172 119.404 38.5578C119.65 38.3968 119.937 38.3163 120.266 38.3163C120.455 38.3163 120.642 38.3479 120.827 38.411C121.011 38.4741 121.179 38.5767 121.331 38.7187C121.483 38.8592 121.603 39.0455 121.693 39.2775C121.783 39.5095 121.828 39.7951 121.828 40.1345V40.3712H119.025V39.8883H121.26C121.26 39.6831 121.219 39.5 121.137 39.339C121.056 39.178 120.941 39.051 120.791 38.9579C120.643 38.8647 120.468 38.8182 120.266 38.8182C120.043 38.8182 119.851 38.8734 119.688 38.9839C119.527 39.0928 119.403 39.2348 119.316 39.41C119.23 39.5852 119.186 39.773 119.186 39.9735V40.2955C119.186 40.5701 119.233 40.8029 119.328 40.9938C119.424 41.1832 119.558 41.3277 119.728 41.4271C119.899 41.5249 120.097 41.5739 120.322 41.5739C120.469 41.5739 120.602 41.5533 120.72 41.5123C120.84 41.4697 120.944 41.4066 121.03 41.3229C121.117 41.2377 121.184 41.1319 121.232 41.0057L121.771 41.1572C121.715 41.3403 121.619 41.5013 121.485 41.6402C121.351 41.7775 121.185 41.8848 120.988 41.9621C120.79 42.0379 120.569 42.0758 120.322 42.0758ZM125.254 39.178L124.752 39.3201C124.72 39.2364 124.674 39.1551 124.612 39.0762C124.552 38.9957 124.47 38.9295 124.366 38.8774C124.262 38.8253 124.129 38.7992 123.966 38.7992C123.743 38.7992 123.558 38.8505 123.41 38.9531C123.263 39.0541 123.189 39.1828 123.189 39.339C123.189 39.4779 123.24 39.5876 123.341 39.6681C123.442 39.7486 123.6 39.8157 123.814 39.8693L124.354 40.0019C124.679 40.0808 124.922 40.2015 125.081 40.3641C125.24 40.5251 125.32 40.7326 125.32 40.9867C125.32 41.1951 125.26 41.3813 125.14 41.5455C125.022 41.7096 124.856 41.839 124.643 41.9337C124.43 42.0284 124.182 42.0758 123.9 42.0758C123.529 42.0758 123.222 41.9953 122.979 41.8343C122.736 41.6733 122.582 41.4381 122.517 41.1288L123.047 40.9962C123.098 41.1919 123.193 41.3387 123.334 41.4366C123.476 41.5344 123.661 41.5833 123.89 41.5833C124.151 41.5833 124.357 41.5281 124.51 41.4176C124.665 41.3056 124.742 41.1714 124.742 41.0152C124.742 40.8889 124.698 40.7831 124.61 40.6979C124.522 40.6111 124.386 40.5464 124.203 40.5038L123.597 40.3617C123.264 40.2828 123.019 40.1605 122.863 39.9948C122.708 39.8275 122.631 39.6184 122.631 39.3674C122.631 39.1622 122.688 38.9807 122.804 38.8229C122.92 38.6651 123.079 38.5412 123.279 38.4512C123.481 38.3613 123.71 38.3163 123.966 38.3163C124.326 38.3163 124.608 38.3952 124.813 38.553C125.02 38.7109 125.167 38.9192 125.254 39.178ZM126.161 42V38.3636H126.72V42H126.161ZM126.445 37.7576C126.336 37.7576 126.242 37.7205 126.164 37.6463C126.086 37.5721 126.048 37.483 126.048 37.3788C126.048 37.2746 126.086 37.1854 126.164 37.1113C126.242 37.0371 126.336 37 126.445 37C126.554 37 126.647 37.0371 126.725 37.1113C126.804 37.1854 126.843 37.2746 126.843 37.3788C126.843 37.483 126.804 37.5721 126.725 37.6463C126.647 37.7205 126.554 37.7576 126.445 37.7576ZM129.211 43.4394C128.941 43.4394 128.709 43.4047 128.515 43.3352C128.321 43.2674 128.159 43.1774 128.03 43.0653C127.902 42.9549 127.8 42.8365 127.724 42.7102L128.169 42.3977C128.22 42.464 128.284 42.5398 128.361 42.625C128.438 42.7118 128.544 42.7868 128.678 42.8499C128.814 42.9146 128.992 42.947 129.211 42.947C129.505 42.947 129.747 42.8759 129.938 42.7339C130.129 42.5919 130.224 42.3693 130.224 42.0663V41.3277H130.177C130.136 41.3939 130.077 41.476 130.002 41.5739C129.928 41.6701 129.82 41.7562 129.68 41.8319C129.541 41.9061 129.353 41.9432 129.116 41.9432C128.823 41.9432 128.559 41.8737 128.326 41.7348C128.094 41.596 127.91 41.3939 127.774 41.1288C127.64 40.8636 127.573 40.5417 127.573 40.1629C127.573 39.7904 127.638 39.4661 127.769 39.1899C127.9 38.9121 128.083 38.6974 128.316 38.5459C128.55 38.3928 128.82 38.3163 129.126 38.3163C129.362 38.3163 129.55 38.3557 129.689 38.4347C129.83 38.512 129.937 38.6004 130.011 38.6998C130.087 38.7977 130.145 38.8782 130.186 38.9413H130.243V38.3636H130.783V42.1042C130.783 42.4167 130.712 42.6708 130.57 42.8665C130.429 43.0638 130.24 43.2082 130.002 43.2997C129.765 43.3928 129.501 43.4394 129.211 43.4394ZM129.192 41.4413C129.416 41.4413 129.606 41.39 129.76 41.2874C129.915 41.1848 130.032 41.0372 130.113 40.8447C130.193 40.6521 130.234 40.4217 130.234 40.1534C130.234 39.8914 130.194 39.6602 130.115 39.4598C130.036 39.2593 129.92 39.1023 129.765 38.9886C129.61 38.875 129.419 38.8182 129.192 38.8182C128.955 38.8182 128.758 38.8782 128.6 38.9981C128.444 39.1181 128.326 39.279 128.247 39.4811C128.17 39.6831 128.131 39.9072 128.131 40.1534C128.131 40.4059 128.171 40.6293 128.25 40.8234C128.33 41.0159 128.449 41.1675 128.605 41.2779C128.763 41.3868 128.958 41.4413 129.192 41.4413ZM132.364 39.8125V42H131.806V38.3636H132.345V38.9318H132.393C132.478 38.7472 132.607 38.5988 132.781 38.4867C132.955 38.3731 133.179 38.3163 133.453 38.3163C133.7 38.3163 133.915 38.3668 134.1 38.4678C134.284 38.5672 134.428 38.7187 134.531 38.9223C134.633 39.1244 134.684 39.3801 134.684 39.6894V42H134.126V39.7273C134.126 39.4416 134.052 39.2191 133.903 39.0597C133.755 38.8987 133.551 38.8182 133.292 38.8182C133.114 38.8182 132.955 38.8568 132.814 38.9342C132.675 39.0115 132.566 39.1244 132.485 39.2727C132.405 39.4211 132.364 39.601 132.364 39.8125ZM137.23 42.0758C136.88 42.0758 136.577 41.9984 136.323 41.8437C136.071 41.6875 135.876 41.4697 135.739 41.1903C135.603 40.9094 135.535 40.5827 135.535 40.2102C135.535 39.8378 135.603 39.5095 135.739 39.2254C135.876 38.9397 136.067 38.7172 136.311 38.5578C136.558 38.3968 136.845 38.3163 137.173 38.3163C137.363 38.3163 137.55 38.3479 137.734 38.411C137.919 38.4741 138.087 38.5767 138.239 38.7187C138.39 38.8592 138.511 39.0455 138.601 39.2775C138.691 39.5095 138.736 39.7951 138.736 40.1345V40.3712H135.933V39.8883H138.168C138.168 39.6831 138.126 39.5 138.044 39.339C137.964 39.178 137.849 39.051 137.699 38.9579C137.55 38.8647 137.375 38.8182 137.173 38.8182C136.951 38.8182 136.758 38.8734 136.596 38.9839C136.435 39.0928 136.311 39.2348 136.224 39.41C136.137 39.5852 136.094 39.773 136.094 39.9735V40.2955C136.094 40.5701 136.141 40.8029 136.236 40.9938C136.332 41.1832 136.465 41.3277 136.636 41.4271C136.806 41.5249 137.004 41.5739 137.23 41.5739C137.377 41.5739 137.509 41.5533 137.628 41.5123C137.748 41.4697 137.851 41.4066 137.938 41.3229C138.025 41.2377 138.092 41.1319 138.139 41.0057L138.679 41.1572C138.622 41.3403 138.527 41.5013 138.392 41.6402C138.258 41.7775 138.093 41.8848 137.895 41.9621C137.698 42.0379 137.476 42.0758 137.23 42.0758ZM139.586 42V38.3636H140.125V38.9129H140.163C140.23 38.733 140.35 38.587 140.523 38.4749C140.697 38.3628 140.892 38.3068 141.11 38.3068C141.151 38.3068 141.203 38.3076 141.264 38.3092C141.326 38.3108 141.372 38.3131 141.404 38.3163V38.8845C141.385 38.8797 141.341 38.8726 141.274 38.8632C141.207 38.8521 141.137 38.8466 141.063 38.8466C140.886 38.8466 140.728 38.8837 140.589 38.9579C140.452 39.0305 140.343 39.1315 140.263 39.2609C140.184 39.3887 140.144 39.5347 140.144 39.6989V42H139.586ZM144.017 42V37.1515H146.943V37.6723H144.604V39.3106H146.791V39.8314H144.604V41.4792H146.981V42H144.017ZM148.342 38.3636L149.213 39.8504L150.085 38.3636H150.728L149.554 40.1818L150.728 42H150.085L149.213 40.589L148.342 42H147.698L148.853 40.1818L147.698 38.3636H148.342ZM151.526 43.3636V38.3636H152.065V38.9413H152.132C152.173 38.8782 152.23 38.7977 152.302 38.6998C152.376 38.6004 152.482 38.512 152.619 38.4347C152.758 38.3557 152.946 38.3163 153.183 38.3163C153.489 38.3163 153.759 38.3928 153.993 38.5459C154.226 38.699 154.408 38.916 154.539 39.197C154.67 39.4779 154.736 39.8093 154.736 40.1913C154.736 40.5764 154.67 40.9102 154.539 41.1927C154.408 41.4736 154.227 41.6914 153.995 41.8461C153.763 41.9992 153.495 42.0758 153.192 42.0758C152.959 42.0758 152.772 42.0371 152.631 41.9598C152.491 41.8808 152.383 41.7917 152.307 41.6922C152.231 41.5912 152.173 41.5076 152.132 41.4413H152.084V43.3636H151.526ZM152.075 40.1818C152.075 40.4564 152.115 40.6987 152.196 40.9086C152.276 41.117 152.394 41.2803 152.548 41.3987C152.703 41.5155 152.893 41.5739 153.117 41.5739C153.35 41.5739 153.545 41.5123 153.701 41.3892C153.859 41.2645 153.978 41.0972 154.057 40.8873C154.137 40.6758 154.177 40.4407 154.177 40.1818C154.177 39.9261 154.138 39.6957 154.059 39.4905C153.982 39.2838 153.864 39.1204 153.706 39.0005C153.55 38.8789 153.353 38.8182 153.117 38.8182C152.889 38.8182 152.698 38.8758 152.544 38.991C152.389 39.1046 152.272 39.264 152.193 39.4692C152.114 39.6728 152.075 39.9104 152.075 40.1818ZM157.113 42.0758C156.762 42.0758 156.46 41.9984 156.206 41.8437C155.954 41.6875 155.759 41.4697 155.621 41.1903C155.486 40.9094 155.418 40.5827 155.418 40.2102C155.418 39.8378 155.486 39.5095 155.621 39.2254C155.759 38.9397 155.95 38.7172 156.194 38.5578C156.44 38.3968 156.728 38.3163 157.056 38.3163C157.245 38.3163 157.432 38.3479 157.617 38.411C157.802 38.4741 157.97 38.5767 158.121 38.7187C158.273 38.8592 158.394 39.0455 158.484 39.2775C158.574 39.5095 158.619 39.7951 158.619 40.1345V40.3712H155.815V39.8883H158.05C158.05 39.6831 158.009 39.5 157.927 39.339C157.847 39.178 157.732 39.051 157.582 38.9579C157.433 38.8647 157.258 38.8182 157.056 38.8182C156.833 38.8182 156.641 38.8734 156.478 38.9839C156.317 39.0928 156.193 39.2348 156.107 39.41C156.02 39.5852 155.976 39.773 155.976 39.9735V40.2955C155.976 40.5701 156.024 40.8029 156.119 40.9938C156.215 41.1832 156.348 41.3277 156.519 41.4271C156.689 41.5249 156.887 41.5739 157.113 41.5739C157.26 41.5739 157.392 41.5533 157.511 41.5123C157.631 41.4697 157.734 41.4066 157.821 41.3229C157.908 41.2377 157.975 41.1319 158.022 41.0057L158.562 41.1572C158.505 41.3403 158.409 41.5013 158.275 41.6402C158.141 41.7775 157.975 41.8848 157.778 41.9621C157.581 42.0379 157.359 42.0758 157.113 42.0758ZM159.468 42V38.3636H160.008V38.9129H160.046C160.112 38.733 160.232 38.587 160.406 38.4749C160.58 38.3628 160.775 38.3068 160.993 38.3068C161.034 38.3068 161.085 38.3076 161.147 38.3092C161.208 38.3108 161.255 38.3131 161.287 38.3163V38.8845C161.268 38.8797 161.224 38.8726 161.156 38.8632C161.09 38.8521 161.02 38.8466 160.946 38.8466C160.769 38.8466 160.611 38.8837 160.472 38.9579C160.335 39.0305 160.226 39.1315 160.146 39.2609C160.067 39.3887 160.027 39.5347 160.027 39.6989V42H159.468ZM163.758 38.3636V38.8371H161.874V38.3636H163.758ZM162.423 37.4924H162.982V40.9583C162.982 41.1162 163.005 41.2345 163.05 41.3134C163.098 41.3908 163.158 41.4429 163.23 41.4697C163.304 41.4949 163.383 41.5076 163.465 41.5076C163.526 41.5076 163.577 41.5044 163.616 41.4981C163.656 41.4902 163.687 41.4839 163.711 41.4792L163.824 41.9811C163.787 41.9953 163.734 42.0095 163.666 42.0237C163.598 42.0395 163.512 42.0473 163.408 42.0473C163.25 42.0473 163.095 42.0134 162.944 41.9455C162.794 41.8777 162.669 41.7743 162.57 41.6354C162.472 41.4965 162.423 41.3213 162.423 41.1098V37.4924ZM167.109 39.178L166.607 39.3201C166.576 39.2364 166.529 39.1551 166.468 39.0762C166.408 38.9957 166.326 38.9295 166.222 38.8774C166.117 38.8253 165.984 38.7992 165.821 38.7992C165.599 38.7992 165.413 38.8505 165.265 38.9531C165.118 39.0541 165.045 39.1828 165.045 39.339C165.045 39.4779 165.095 39.5876 165.196 39.6681C165.297 39.7486 165.455 39.8157 165.67 39.8693L166.21 40.0019C166.535 40.0808 166.777 40.2015 166.936 40.3641C167.096 40.5251 167.176 40.7326 167.176 40.9867C167.176 41.1951 167.116 41.3813 166.996 41.5455C166.877 41.7096 166.712 41.839 166.499 41.9337C166.285 42.0284 166.038 42.0758 165.755 42.0758C165.384 42.0758 165.077 41.9953 164.834 41.8343C164.591 41.6733 164.437 41.4381 164.373 41.1288L164.903 40.9962C164.953 41.1919 165.049 41.3387 165.189 41.4366C165.331 41.5344 165.517 41.5833 165.746 41.5833C166.006 41.5833 166.213 41.5281 166.366 41.4176C166.521 41.3056 166.598 41.1714 166.598 41.0152C166.598 40.8889 166.554 40.7831 166.465 40.6979C166.377 40.6111 166.241 40.5464 166.058 40.5038L165.452 40.3617C165.119 40.2828 164.874 40.1605 164.718 39.9948C164.564 39.8275 164.486 39.6184 164.486 39.3674C164.486 39.1622 164.544 38.9807 164.659 38.8229C164.776 38.6651 164.934 38.5412 165.135 38.4512C165.337 38.3613 165.566 38.3163 165.821 38.3163C166.181 38.3163 166.464 38.3952 166.669 38.553C166.876 38.7109 167.022 38.9192 167.109 39.178Z" fill="white"/>
<path d="M217.947 29.6467V31H212.52V29.6467H214.44V24.3533C214.44 24.2378 214.442 24.12 214.447 24C214.451 23.88 214.458 23.7578 214.467 23.6333L213.2 24.6867C213.111 24.7533 213.024 24.7956 212.94 24.8133C212.856 24.8311 212.776 24.8333 212.7 24.82C212.624 24.8022 212.558 24.7756 212.5 24.74C212.442 24.7 212.398 24.66 212.367 24.62L211.787 23.84L214.76 21.32H216.273V29.6467H217.947ZM225.261 29.3133C225.461 29.3133 225.617 29.3689 225.728 29.48C225.843 29.5911 225.901 29.7378 225.901 29.92V31H219.194V30.4C219.194 30.2844 219.219 30.16 219.268 30.0267C219.317 29.8889 219.399 29.7644 219.514 29.6533L222.381 26.78C222.625 26.5356 222.841 26.3022 223.028 26.08C223.214 25.8533 223.37 25.6333 223.494 25.42C223.619 25.2022 223.712 24.9822 223.774 24.76C223.837 24.5378 223.868 24.3044 223.868 24.06C223.868 23.6289 223.757 23.3022 223.534 23.08C223.312 22.8533 222.999 22.74 222.594 22.74C222.417 22.74 222.252 22.7667 222.101 22.82C221.954 22.8689 221.821 22.9378 221.701 23.0267C221.585 23.1156 221.485 23.22 221.401 23.34C221.317 23.46 221.254 23.5911 221.214 23.7333C221.134 23.9556 221.025 24.1044 220.888 24.18C220.754 24.2511 220.563 24.2667 220.314 24.2267L219.341 24.0533C219.412 23.5822 219.545 23.1689 219.741 22.8133C219.937 22.4578 220.181 22.1622 220.474 21.9267C220.768 21.6911 221.103 21.5156 221.481 21.4C221.859 21.28 222.265 21.22 222.701 21.22C223.159 21.22 223.574 21.2889 223.948 21.4267C224.325 21.56 224.648 21.7489 224.914 21.9933C225.181 22.2333 225.388 22.5244 225.534 22.8667C225.681 23.2089 225.754 23.5867 225.754 24C225.754 24.3556 225.703 24.6844 225.601 24.9867C225.499 25.2889 225.359 25.5778 225.181 25.8533C225.008 26.1244 224.805 26.3889 224.574 26.6467C224.343 26.9044 224.099 27.1644 223.841 27.4267L221.788 29.5267C222.014 29.46 222.239 29.4089 222.461 29.3733C222.683 29.3333 222.892 29.3133 223.088 29.3133H225.261Z" fill="white"/>
<path d="M214.559 39.3636C214.531 39.1237 214.415 38.9375 214.213 38.8049C214.011 38.6723 213.763 38.6061 213.47 38.6061C213.255 38.6061 213.067 38.6408 212.906 38.7102C212.747 38.7797 212.622 38.8752 212.532 38.9967C212.444 39.1182 212.4 39.2563 212.4 39.411C212.4 39.5404 212.431 39.6517 212.492 39.7448C212.555 39.8363 212.636 39.9129 212.734 39.9744C212.832 40.0344 212.934 40.0841 213.041 40.1236C213.149 40.1615 213.247 40.1922 213.337 40.2159L213.83 40.3485C213.956 40.3816 214.097 40.4274 214.251 40.4858C214.407 40.5442 214.557 40.6239 214.699 40.7249C214.842 40.8243 214.961 40.9522 215.054 41.1084C215.147 41.2647 215.193 41.4564 215.193 41.6837C215.193 41.9457 215.125 42.1824 214.987 42.3939C214.852 42.6054 214.653 42.7735 214.391 42.8982C214.13 43.0229 213.814 43.0852 213.442 43.0852C213.094 43.0852 212.794 43.0292 212.54 42.9171C212.287 42.8051 212.088 42.6488 211.943 42.4484C211.799 42.2479 211.718 42.0152 211.699 41.75H212.305C212.321 41.9331 212.382 42.0846 212.49 42.2045C212.599 42.3229 212.736 42.4113 212.902 42.4697C213.069 42.5265 213.249 42.5549 213.442 42.5549C213.666 42.5549 213.867 42.5186 214.045 42.446C214.224 42.3718 214.365 42.2693 214.469 42.1383C214.573 42.0057 214.625 41.851 214.625 41.6742C214.625 41.5133 214.58 41.3823 214.49 41.2812C214.4 41.1802 214.282 41.0982 214.135 41.035C213.988 40.9719 213.83 40.9167 213.659 40.8693L213.063 40.6989C212.684 40.59 212.384 40.4345 212.163 40.2325C211.942 40.0305 211.832 39.7661 211.832 39.4394C211.832 39.1679 211.905 38.9312 212.052 38.7292C212.2 38.5256 212.399 38.3677 212.648 38.2557C212.899 38.142 213.18 38.0852 213.489 38.0852C213.801 38.0852 214.079 38.1413 214.322 38.2533C214.565 38.3638 214.758 38.5153 214.9 38.7079C215.043 38.9004 215.119 39.119 215.127 39.3636H214.559ZM217.664 39.3636V39.8371H215.78V39.3636H217.664ZM216.329 38.4924H216.888V41.9583C216.888 42.1162 216.911 42.2345 216.957 42.3134C217.004 42.3908 217.064 42.4429 217.136 42.4697C217.211 42.4949 217.289 42.5076 217.371 42.5076C217.432 42.5076 217.483 42.5044 217.522 42.4981C217.562 42.4902 217.593 42.4839 217.617 42.4792L217.731 42.9811C217.693 42.9953 217.64 43.0095 217.572 43.0237C217.504 43.0395 217.418 43.0473 217.314 43.0473C217.156 43.0473 217.002 43.0134 216.85 42.9455C216.7 42.8777 216.575 42.7743 216.476 42.6354C216.378 42.4965 216.329 42.3213 216.329 42.1098V38.4924ZM219.575 43.0852C219.344 43.0852 219.135 43.0418 218.948 42.955C218.76 42.8666 218.611 42.7396 218.5 42.5739C218.39 42.4066 218.334 42.2045 218.334 41.9678C218.334 41.7595 218.375 41.5906 218.458 41.4612C218.54 41.3302 218.649 41.2276 218.787 41.1534C218.924 41.0792 219.075 41.024 219.241 40.9877C219.408 40.9498 219.577 40.9198 219.745 40.8977C219.966 40.8693 220.145 40.848 220.283 40.8338C220.422 40.818 220.523 40.792 220.586 40.7557C220.651 40.7194 220.683 40.6562 220.683 40.5663V40.5473C220.683 40.3138 220.619 40.1323 220.491 40.0028C220.365 39.8734 220.173 39.8087 219.916 39.8087C219.649 39.8087 219.44 39.8671 219.288 39.9839C219.137 40.1007 219.03 40.2254 218.969 40.358L218.439 40.1686C218.533 39.9476 218.66 39.7756 218.817 39.6525C218.977 39.5278 219.15 39.441 219.338 39.392C219.528 39.3415 219.714 39.3163 219.897 39.3163C220.014 39.3163 220.148 39.3305 220.299 39.3589C220.452 39.3857 220.6 39.4418 220.742 39.527C220.886 39.6122 221.005 39.7408 221.1 39.9129C221.194 40.0849 221.242 40.3153 221.242 40.6042V43H220.683V42.5076H220.654C220.617 42.5865 220.553 42.6709 220.465 42.7609C220.377 42.8509 220.259 42.9274 220.112 42.9905C219.966 43.0537 219.786 43.0852 219.575 43.0852ZM219.66 42.5833C219.881 42.5833 220.067 42.5399 220.219 42.4531C220.372 42.3663 220.487 42.2543 220.565 42.117C220.643 41.9796 220.683 41.8352 220.683 41.6837V41.1723C220.659 41.2008 220.607 41.2268 220.527 41.2505C220.448 41.2726 220.356 41.2923 220.252 41.3097C220.149 41.3254 220.049 41.3396 219.951 41.3523C219.855 41.3633 219.777 41.3728 219.717 41.3807C219.572 41.3996 219.436 41.4304 219.31 41.473C219.185 41.514 219.084 41.5764 219.007 41.66C218.931 41.7421 218.893 41.8542 218.893 41.9962C218.893 42.1903 218.965 42.3371 219.109 42.4366C219.254 42.5344 219.438 42.5833 219.66 42.5833ZM223.843 39.3636V39.8371H221.958V39.3636H223.843ZM222.508 38.4924H223.066V41.9583C223.066 42.1162 223.089 42.2345 223.135 42.3134C223.182 42.3908 223.242 42.4429 223.315 42.4697C223.389 42.4949 223.467 42.5076 223.549 42.5076C223.611 42.5076 223.661 42.5044 223.701 42.4981C223.74 42.4902 223.772 42.4839 223.795 42.4792L223.909 42.9811C223.871 42.9953 223.818 43.0095 223.75 43.0237C223.683 43.0395 223.597 43.0473 223.492 43.0473C223.335 43.0473 223.18 43.0134 223.028 42.9455C222.878 42.8777 222.754 42.7743 222.654 42.6354C222.557 42.4965 222.508 42.3213 222.508 42.1098V38.4924ZM226.169 43.0758C225.818 43.0758 225.516 42.9984 225.262 42.8437C225.01 42.6875 224.815 42.4697 224.677 42.1903C224.542 41.9094 224.474 41.5827 224.474 41.2102C224.474 40.8378 224.542 40.5095 224.677 40.2254C224.815 39.9397 225.006 39.7172 225.25 39.5578C225.496 39.3968 225.784 39.3163 226.112 39.3163C226.301 39.3163 226.488 39.3479 226.673 39.411C226.858 39.4741 227.026 39.5767 227.177 39.7187C227.329 39.8592 227.45 40.0455 227.54 40.2775C227.629 40.5095 227.674 40.7951 227.674 41.1345V41.3712H224.871V40.8883H227.106C227.106 40.6831 227.065 40.5 226.983 40.339C226.903 40.178 226.787 40.051 226.638 39.9579C226.489 39.8647 226.314 39.8182 226.112 39.8182C225.889 39.8182 225.697 39.8734 225.534 39.9839C225.373 40.0928 225.249 40.2348 225.163 40.41C225.076 40.5852 225.032 40.773 225.032 40.9735V41.2955C225.032 41.5701 225.08 41.8029 225.174 41.9938C225.271 42.1832 225.404 42.3277 225.575 42.4271C225.745 42.5249 225.943 42.5739 226.169 42.5739C226.316 42.5739 226.448 42.5533 226.567 42.5123C226.686 42.4697 226.79 42.4066 226.877 42.3229C226.963 42.2377 227.031 42.1319 227.078 42.0057L227.618 42.1572C227.561 42.3403 227.465 42.5013 227.331 42.6402C227.197 42.7775 227.031 42.8848 226.834 42.9621C226.637 43.0379 226.415 43.0758 226.169 43.0758Z" fill="white"/>
<path d="M282.86 29.3133C283.06 29.3133 283.216 29.3689 283.327 29.48C283.442 29.5911 283.5 29.7378 283.5 29.92V31H276.793V30.4C276.793 30.2844 276.818 30.16 276.867 30.0267C276.916 29.8889 276.998 29.7644 277.113 29.6533L279.98 26.78C280.224 26.5356 280.44 26.3022 280.627 26.08C280.813 25.8533 280.969 25.6333 281.093 25.42C281.218 25.2022 281.311 24.9822 281.373 24.76C281.436 24.5378 281.467 24.3044 281.467 24.06C281.467 23.6289 281.356 23.3022 281.133 23.08C280.911 22.8533 280.598 22.74 280.193 22.74C280.016 22.74 279.851 22.7667 279.7 22.82C279.553 22.8689 279.42 22.9378 279.3 23.0267C279.184 23.1156 279.084 23.22 279 23.34C278.916 23.46 278.853 23.5911 278.813 23.7333C278.733 23.9556 278.624 24.1044 278.487 24.18C278.353 24.2511 278.162 24.2667 277.913 24.2267L276.94 24.0533C277.011 23.5822 277.144 23.1689 277.34 22.8133C277.536 22.4578 277.78 22.1622 278.073 21.9267C278.367 21.6911 278.702 21.5156 279.08 21.4C279.458 21.28 279.864 21.22 280.3 21.22C280.758 21.22 281.173 21.2889 281.547 21.4267C281.924 21.56 282.247 21.7489 282.513 21.9933C282.78 22.2333 282.987 22.5244 283.133 22.8667C283.28 23.2089 283.353 23.5867 283.353 24C283.353 24.3556 283.302 24.6844 283.2 24.9867C283.098 25.2889 282.958 25.5778 282.78 25.8533C282.607 26.1244 282.404 26.3889 282.173 26.6467C281.942 26.9044 281.698 27.1644 281.44 27.4267L279.387 29.5267C279.613 29.46 279.838 29.4089 280.06 29.3733C280.282 29.3333 280.491 29.3133 280.687 29.3133H282.86ZM289.845 21.06V31H288.005V21.06H289.845ZM294.971 28.1267C294.522 28.1489 294.148 28.1889 293.851 28.2467C293.553 28.3 293.315 28.3711 293.137 28.46C292.964 28.5489 292.839 28.6511 292.764 28.7667C292.693 28.8778 292.657 29 292.657 29.1333C292.657 29.4 292.731 29.5889 292.877 29.7C293.028 29.8111 293.237 29.8667 293.504 29.8667C293.811 29.8667 294.075 29.8133 294.297 29.7067C294.524 29.5956 294.748 29.4244 294.971 29.1933V28.1267ZM291.224 25.08C291.628 24.7156 292.075 24.4444 292.564 24.2667C293.053 24.0844 293.582 23.9933 294.151 23.9933C294.559 23.9933 294.924 24.06 295.244 24.1933C295.568 24.3267 295.842 24.5133 296.064 24.7533C296.291 24.9889 296.464 25.2711 296.584 25.6C296.704 25.9289 296.764 26.2889 296.764 26.68V31H295.924C295.751 31 295.617 30.9756 295.524 30.9267C295.435 30.8778 295.362 30.7756 295.304 30.62L295.157 30.18C294.984 30.3311 294.815 30.4644 294.651 30.58C294.491 30.6956 294.324 30.7933 294.151 30.8733C293.977 30.9489 293.791 31.0067 293.591 31.0467C293.395 31.0867 293.175 31.1067 292.931 31.1067C292.628 31.1067 292.353 31.0667 292.104 30.9867C291.855 30.9067 291.639 30.7889 291.457 30.6333C291.279 30.4733 291.142 30.2756 291.044 30.04C290.946 29.8044 290.897 29.5333 290.897 29.2267C290.897 28.9733 290.962 28.72 291.091 28.4667C291.219 28.2133 291.439 27.9844 291.751 27.78C292.066 27.5711 292.484 27.4 293.004 27.2667C293.528 27.1289 294.184 27.0511 294.971 27.0333V26.68C294.971 26.2489 294.879 25.9333 294.697 25.7333C294.515 25.5289 294.253 25.4267 293.911 25.4267C293.657 25.4267 293.446 25.4578 293.277 25.52C293.108 25.5778 292.959 25.6422 292.831 25.7133C292.706 25.78 292.588 25.8444 292.477 25.9067C292.366 25.9644 292.237 25.9933 292.091 25.9933C291.962 25.9933 291.853 25.9622 291.764 25.9C291.679 25.8333 291.608 25.7556 291.551 25.6667L291.224 25.08ZM300.04 21.06V26.7H300.347C300.462 26.7 300.553 26.6844 300.62 26.6533C300.687 26.6178 300.753 26.5556 300.82 26.4667L302.34 24.44C302.416 24.3378 302.5 24.26 302.593 24.2067C302.691 24.1533 302.813 24.1267 302.96 24.1267H304.64L302.667 26.6333C302.511 26.8422 302.331 27.0067 302.127 27.1267C302.229 27.1978 302.318 27.28 302.393 27.3733C302.469 27.4667 302.542 27.5711 302.613 27.6867L304.74 31H303.087C302.945 31 302.822 30.9778 302.72 30.9333C302.618 30.8844 302.533 30.8 302.467 30.68L300.92 28.1533C300.858 28.0467 300.793 27.9778 300.727 27.9467C300.66 27.9156 300.56 27.9 300.427 27.9H300.04V31H298.2V21.06H300.04ZM307.319 24.8C307.448 24.6844 307.581 24.58 307.719 24.4867C307.861 24.3889 308.01 24.3067 308.165 24.24C308.325 24.1689 308.494 24.1156 308.672 24.08C308.854 24.04 309.05 24.02 309.259 24.02C309.632 24.02 309.963 24.0844 310.252 24.2133C310.541 24.3422 310.783 24.5222 310.979 24.7533C311.179 24.9844 311.328 25.26 311.425 25.58C311.528 25.9 311.579 26.2511 311.579 26.6333V31H309.745V26.6333C309.745 26.2511 309.657 25.9556 309.479 25.7467C309.301 25.5333 309.039 25.4267 308.692 25.4267C308.434 25.4267 308.192 25.4822 307.965 25.5933C307.739 25.7044 307.523 25.86 307.319 26.06V31H305.479V21.06H307.319V24.8ZM319.424 27.1933H316.891V29.8933H315.397V27.1933H312.877V25.8533H315.397V23.16H316.891V25.8533H319.424V27.1933Z" fill="white"/>
<path d="M278.417 43H276.92V38.1515H278.483C278.953 38.1515 279.356 38.2486 279.69 38.4427C280.025 38.6353 280.281 38.9122 280.46 39.2737C280.638 39.6335 280.727 40.0644 280.727 40.5663C280.727 41.0713 280.637 41.5062 280.457 41.8707C280.278 42.2337 280.016 42.5131 279.671 42.7088C279.327 42.9029 278.909 43 278.417 43ZM277.508 42.4792H278.379C278.78 42.4792 279.112 42.4018 279.376 42.2472C279.639 42.0925 279.836 41.8723 279.965 41.5866C280.094 41.301 280.159 40.9609 280.159 40.5663C280.159 40.1749 280.095 39.8379 279.967 39.5554C279.84 39.2713 279.649 39.0535 279.394 38.902C279.14 38.7489 278.824 38.6723 278.445 38.6723H277.508V42.4792ZM283.161 43.0758C282.811 43.0758 282.508 42.9984 282.254 42.8437C282.002 42.6875 281.807 42.4697 281.67 42.1903C281.534 41.9094 281.466 41.5827 281.466 41.2102C281.466 40.8378 281.534 40.5095 281.67 40.2254C281.807 39.9397 281.998 39.7172 282.242 39.5578C282.489 39.3968 282.776 39.3163 283.104 39.3163C283.294 39.3163 283.481 39.3479 283.665 39.411C283.85 39.4741 284.018 39.5767 284.17 39.7187C284.321 39.8592 284.442 40.0455 284.532 40.2775C284.622 40.5095 284.667 40.7951 284.667 41.1345V41.3712H281.864V40.8883H284.099C284.099 40.6831 284.057 40.5 283.975 40.339C283.895 40.178 283.78 40.051 283.63 39.9579C283.481 39.8647 283.306 39.8182 283.104 39.8182C282.882 39.8182 282.689 39.8734 282.527 39.9839C282.366 40.0928 282.242 40.2348 282.155 40.41C282.068 40.5852 282.025 40.773 282.025 40.9735V41.2955C282.025 41.5701 282.072 41.8029 282.167 41.9938C282.263 42.1832 282.396 42.3277 282.567 42.4271C282.737 42.5249 282.935 42.5739 283.161 42.5739C283.308 42.5739 283.44 42.5533 283.559 42.5123C283.679 42.4697 283.782 42.4066 283.869 42.3229C283.956 42.2377 284.023 42.1319 284.07 42.0057L284.61 42.1572C284.553 42.3403 284.458 42.5013 284.323 42.6402C284.189 42.7775 284.024 42.8848 283.826 42.9621C283.629 43.0379 283.407 43.0758 283.161 43.0758ZM288.092 40.178L287.59 40.3201C287.559 40.2364 287.512 40.1551 287.451 40.0762C287.391 39.9957 287.309 39.9295 287.205 39.8774C287.1 39.8253 286.967 39.7992 286.804 39.7992C286.582 39.7992 286.397 39.8505 286.248 39.9531C286.101 40.0541 286.028 40.1828 286.028 40.339C286.028 40.4779 286.078 40.5876 286.179 40.6681C286.281 40.7486 286.438 40.8157 286.653 40.8693L287.193 41.0019C287.518 41.0808 287.76 41.2015 287.92 41.3641C288.079 41.5251 288.159 41.7326 288.159 41.9867C288.159 42.1951 288.099 42.3813 287.979 42.5455C287.86 42.7096 287.695 42.839 287.482 42.9337C287.269 43.0284 287.021 43.0758 286.738 43.0758C286.367 43.0758 286.06 42.9953 285.817 42.8343C285.574 42.6733 285.42 42.4381 285.356 42.1288L285.886 41.9962C285.936 42.1919 286.032 42.3387 286.172 42.4366C286.314 42.5344 286.5 42.5833 286.729 42.5833C286.989 42.5833 287.196 42.5281 287.349 42.4176C287.504 42.3056 287.581 42.1714 287.581 42.0152C287.581 41.8889 287.537 41.7831 287.448 41.6979C287.36 41.6111 287.224 41.5464 287.041 41.5038L286.435 41.3617C286.102 41.2828 285.858 41.1605 285.701 40.9948C285.547 40.8275 285.469 40.6184 285.469 40.3674C285.469 40.1622 285.527 39.9807 285.642 39.8229C285.759 39.6651 285.917 39.5412 286.118 39.4512C286.32 39.3613 286.549 39.3163 286.804 39.3163C287.164 39.3163 287.447 39.3952 287.652 39.553C287.859 39.7109 288.006 39.9192 288.092 40.178ZM289 43V39.3636H289.558V43H289ZM289.284 38.7576C289.175 38.7576 289.081 38.7205 289.002 38.6463C288.925 38.5721 288.886 38.483 288.886 38.3788C288.886 38.2746 288.925 38.1854 289.002 38.1113C289.081 38.0371 289.175 38 289.284 38C289.393 38 289.486 38.0371 289.563 38.1113C289.642 38.1854 289.682 38.2746 289.682 38.3788C289.682 38.483 289.642 38.5721 289.563 38.6463C289.486 38.7205 289.393 38.7576 289.284 38.7576ZM292.05 44.4394C291.78 44.4394 291.548 44.4047 291.353 44.3352C291.159 44.2674 290.998 44.1774 290.868 44.0653C290.74 43.9549 290.639 43.8365 290.563 43.7102L291.008 43.3977C291.058 43.464 291.122 43.5398 291.2 43.625C291.277 43.7118 291.383 43.7868 291.517 43.8499C291.653 43.9146 291.83 43.947 292.05 43.947C292.343 43.947 292.585 43.8759 292.776 43.7339C292.967 43.5919 293.063 43.3693 293.063 43.0663V42.3277H293.015C292.974 42.3939 292.916 42.476 292.84 42.5739C292.766 42.6701 292.659 42.7562 292.518 42.8319C292.379 42.9061 292.192 42.9432 291.955 42.9432C291.661 42.9432 291.398 42.8737 291.164 42.7348C290.932 42.596 290.748 42.3939 290.612 42.1288C290.478 41.8636 290.411 41.5417 290.411 41.1629C290.411 40.7904 290.477 40.4661 290.608 40.1899C290.739 39.9121 290.921 39.6974 291.155 39.5459C291.388 39.3928 291.658 39.3163 291.964 39.3163C292.201 39.3163 292.389 39.3557 292.528 39.4347C292.668 39.512 292.776 39.6004 292.85 39.6998C292.925 39.7977 292.984 39.8782 293.025 39.9413H293.082V39.3636H293.621V43.1042C293.621 43.4167 293.55 43.6708 293.408 43.8665C293.268 44.0638 293.079 44.2082 292.84 44.2997C292.603 44.3928 292.34 44.4394 292.05 44.4394ZM292.031 42.4413C292.255 42.4413 292.444 42.39 292.599 42.2874C292.753 42.1848 292.871 42.0372 292.952 41.8447C293.032 41.6521 293.072 41.4217 293.072 41.1534C293.072 40.8914 293.033 40.6602 292.954 40.4598C292.875 40.2593 292.758 40.1023 292.603 39.9886C292.449 39.875 292.258 39.8182 292.031 39.8182C291.794 39.8182 291.597 39.8782 291.439 39.9981C291.282 40.1181 291.165 40.279 291.086 40.4811C291.009 40.6831 290.97 40.9072 290.97 41.1534C290.97 41.4059 291.009 41.6293 291.088 41.8234C291.169 42.0159 291.287 42.1675 291.443 42.2779C291.601 42.3868 291.797 42.4413 292.031 42.4413ZM295.203 40.8125V43H294.644V39.3636H295.184V39.9318H295.231C295.317 39.7472 295.446 39.5988 295.62 39.4867C295.793 39.3731 296.017 39.3163 296.292 39.3163C296.538 39.3163 296.754 39.3668 296.938 39.4678C297.123 39.5672 297.267 39.7187 297.369 39.9223C297.472 40.1244 297.523 40.3801 297.523 40.6894V43H296.964V40.7273C296.964 40.4416 296.89 40.2191 296.742 40.0597C296.593 39.8987 296.39 39.8182 296.131 39.8182C295.953 39.8182 295.793 39.8568 295.653 39.9342C295.514 40.0115 295.404 40.1244 295.324 40.2727C295.243 40.4211 295.203 40.601 295.203 40.8125ZM301.896 43.0758C301.568 43.0758 301.28 42.9976 301.032 42.8414C300.786 42.6851 300.593 42.4665 300.454 42.1856C300.317 41.9047 300.249 41.5764 300.249 41.2008C300.249 40.822 300.317 40.4913 300.454 40.2088C300.593 39.9263 300.786 39.7069 301.032 39.5507C301.28 39.3944 301.568 39.3163 301.896 39.3163C302.225 39.3163 302.512 39.3944 302.758 39.5507C303.006 39.7069 303.198 39.9263 303.336 40.2088C303.475 40.4913 303.544 40.822 303.544 41.2008C303.544 41.5764 303.475 41.9047 303.336 42.1856C303.198 42.4665 303.006 42.6851 302.758 42.8414C302.512 42.9976 302.225 43.0758 301.896 43.0758ZM301.896 42.5739C302.146 42.5739 302.351 42.5099 302.512 42.3821C302.673 42.2543 302.792 42.0862 302.869 41.8778C302.947 41.6695 302.985 41.4438 302.985 41.2008C302.985 40.9577 302.947 40.7312 302.869 40.5213C302.792 40.3114 302.673 40.1417 302.512 40.0123C302.351 39.8829 302.146 39.8182 301.896 39.8182C301.647 39.8182 301.442 39.8829 301.281 40.0123C301.12 40.1417 301.001 40.3114 300.923 40.5213C300.846 40.7312 300.807 40.9577 300.807 41.2008C300.807 41.4438 300.846 41.6695 300.923 41.8778C301.001 42.0862 301.12 42.2543 301.281 42.3821C301.442 42.5099 301.647 42.5739 301.896 42.5739ZM304.397 44.3636V39.3636H304.937V39.9413H305.003C305.044 39.8782 305.101 39.7977 305.173 39.6998C305.248 39.6004 305.353 39.512 305.491 39.4347C305.629 39.3557 305.817 39.3163 306.054 39.3163C306.36 39.3163 306.63 39.3928 306.864 39.5459C307.097 39.699 307.28 39.916 307.411 40.197C307.542 40.4779 307.607 40.8093 307.607 41.1913C307.607 41.5764 307.542 41.9102 307.411 42.1927C307.28 42.4736 307.098 42.6914 306.866 42.8461C306.634 42.9992 306.367 43.0758 306.063 43.0758C305.83 43.0758 305.643 43.0371 305.502 42.9598C305.362 42.8808 305.254 42.7917 305.178 42.6922C305.102 42.5912 305.044 42.5076 305.003 42.4413H304.956V44.3636H304.397ZM304.946 41.1818C304.946 41.4564 304.986 41.6987 305.067 41.9086C305.147 42.117 305.265 42.2803 305.42 42.3987C305.574 42.5155 305.764 42.5739 305.988 42.5739C306.221 42.5739 306.416 42.5123 306.572 42.3892C306.73 42.2645 306.849 42.0972 306.928 41.8873C307.008 41.6758 307.048 41.4407 307.048 41.1818C307.048 40.9261 307.009 40.6957 306.93 40.4905C306.853 40.2838 306.735 40.1204 306.577 40.0005C306.421 39.8789 306.224 39.8182 305.988 39.8182C305.76 39.8182 305.569 39.8758 305.415 39.991C305.26 40.1046 305.143 40.264 305.064 40.4692C304.986 40.6728 304.946 40.9104 304.946 41.1818ZM310.041 39.3636V39.8371H308.156V39.3636H310.041ZM308.706 38.4924H309.264V41.9583C309.264 42.1162 309.287 42.2345 309.333 42.3134C309.38 42.3908 309.44 42.4429 309.513 42.4697C309.587 42.4949 309.665 42.5076 309.747 42.5076C309.809 42.5076 309.859 42.5044 309.899 42.4981C309.938 42.4902 309.97 42.4839 309.993 42.4792L310.107 42.9811C310.069 42.9953 310.016 43.0095 309.948 43.0237C309.881 43.0395 309.795 43.0473 309.69 43.0473C309.533 43.0473 309.378 43.0134 309.226 42.9455C309.076 42.8777 308.952 42.7743 308.852 42.6354C308.754 42.4965 308.706 42.3213 308.706 42.1098V38.4924ZM310.881 43V39.3636H311.44V43H310.881ZM311.165 38.7576C311.056 38.7576 310.962 38.7205 310.884 38.6463C310.806 38.5721 310.768 38.483 310.768 38.3788C310.768 38.2746 310.806 38.1854 310.884 38.1113C310.962 38.0371 311.056 38 311.165 38C311.274 38 311.367 38.0371 311.445 38.1113C311.524 38.1854 311.563 38.2746 311.563 38.3788C311.563 38.483 311.524 38.5721 311.445 38.6463C311.367 38.7205 311.274 38.7576 311.165 38.7576ZM313.941 43.0758C313.612 43.0758 313.324 42.9976 313.076 42.8414C312.83 42.6851 312.638 42.4665 312.499 42.1856C312.361 41.9047 312.293 41.5764 312.293 41.2008C312.293 40.822 312.361 40.4913 312.499 40.2088C312.638 39.9263 312.83 39.7069 313.076 39.5507C313.324 39.3944 313.612 39.3163 313.941 39.3163C314.269 39.3163 314.556 39.3944 314.802 39.5507C315.05 39.7069 315.243 39.9263 315.38 40.2088C315.519 40.4913 315.588 40.822 315.588 41.2008C315.588 41.5764 315.519 41.9047 315.38 42.1856C315.243 42.4665 315.05 42.6851 314.802 42.8414C314.556 42.9976 314.269 43.0758 313.941 43.0758ZM313.941 42.5739C314.19 42.5739 314.395 42.5099 314.556 42.3821C314.717 42.2543 314.836 42.0862 314.914 41.8778C314.991 41.6695 315.03 41.4438 315.03 41.2008C315.03 40.9577 314.991 40.7312 314.914 40.5213C314.836 40.3114 314.717 40.1417 314.556 40.0123C314.395 39.8829 314.19 39.8182 313.941 39.8182C313.691 39.8182 313.486 39.8829 313.325 40.0123C313.164 40.1417 313.045 40.3114 312.967 40.5213C312.89 40.7312 312.851 40.9577 312.851 41.2008C312.851 41.4438 312.89 41.6695 312.967 41.8778C313.045 42.0862 313.164 42.2543 313.325 42.3821C313.486 42.5099 313.691 42.5739 313.941 42.5739ZM317 40.8125V43H316.441V39.3636H316.981V39.9318H317.028C317.113 39.7472 317.243 39.5988 317.416 39.4867C317.59 39.3731 317.814 39.3163 318.089 39.3163C318.335 39.3163 318.55 39.3668 318.735 39.4678C318.92 39.5672 319.063 39.7187 319.166 39.9223C319.269 40.1244 319.32 40.3801 319.32 40.6894V43H318.761V40.7273C318.761 40.4416 318.687 40.2191 318.539 40.0597C318.39 39.8987 318.187 39.8182 317.928 39.8182C317.749 39.8182 317.59 39.8568 317.45 39.9342C317.311 40.0115 317.201 40.1244 317.121 40.2727C317.04 40.4211 317 40.601 317 40.8125Z" fill="white"/>
</svg>
