<svg width="211" height="127" viewBox="0 0 211 127" fill="none" xmlns="http://www.w3.org/2000/svg">
<path d="M199.8 121.5C199.8 118.849 197.651 116.7 195 116.7C192.349 116.7 190.2 118.849 190.2 121.5C190.2 124.151 192.349 126.3 195 126.3C197.651 126.3 199.8 124.151 199.8 121.5ZM5 0.5L0.120804 9.6757L10.5068 9.31335L5 0.5ZM108 65.3396L108.004 64.4396L108 65.3396ZM199.6 118.547C199.948 118.192 199.943 117.623 199.588 117.274C199.233 116.926 198.663 116.932 198.315 117.286L199.6 118.547ZM204.743 109.033C204.489 109.461 204.63 110.013 205.058 110.267C205.485 110.52 206.037 110.38 206.291 109.952L204.743 109.033ZM210.265 99.7384C210.356 99.2498 210.033 98.78 209.545 98.6892C209.056 98.5984 208.586 98.921 208.495 99.4097L210.265 99.7384ZM208.084 89.2187C208.216 89.698 208.711 89.9799 209.191 89.8482C209.67 89.7166 209.952 89.2213 209.82 88.742L208.084 89.2187ZM203.746 77.5808C203.419 77.2065 202.85 77.1681 202.476 77.4952C202.102 77.8222 202.063 78.3907 202.39 78.7651L203.746 77.5808ZM191.302 70.9741C191.76 71.1669 192.288 70.9519 192.481 70.4937C192.674 70.0356 192.459 69.5079 192 69.3151L191.302 70.9741ZM178.164 65.7753C177.671 65.7094 177.218 66.0555 177.153 66.5481C177.087 67.0408 177.433 67.4936 177.925 67.5594L178.164 65.7753ZM163.968 66.5965C164.465 66.613 164.881 66.2237 164.898 65.7269C164.914 65.2301 164.525 64.814 164.028 64.7975L163.968 66.5965ZM150.863 63.9716C150.366 63.9745 149.965 64.3798 149.968 64.8769C149.971 65.3739 150.376 65.7745 150.873 65.7715L150.863 63.9716ZM138.656 66.1355C139.153 66.1271 139.55 65.7175 139.541 65.2205C139.533 64.7235 139.123 64.3274 138.626 64.3357L138.656 66.1355ZM126.411 64.4517C125.914 64.4538 125.513 64.8584 125.515 65.3554C125.517 65.8525 125.921 66.2537 126.418 66.2517L126.411 64.4517ZM114.164 66.26C114.661 66.2611 115.065 65.859 115.066 65.362C115.067 64.8649 114.665 64.4611 114.168 64.46L114.164 66.26ZM102.265 64.3713C101.768 64.3615 101.357 64.7564 101.347 65.2534C101.337 65.7503 101.732 66.1611 102.229 66.171L102.265 64.3713ZM90.6978 65.7382C91.1941 65.7664 91.6192 65.3869 91.6474 64.8907C91.6756 64.3944 91.2962 63.9693 90.7999 63.9411L90.6978 65.7382ZM79.3788 63.0331C78.8845 62.9816 78.4419 63.3406 78.3904 63.8349C78.3389 64.3293 78.6979 64.7719 79.1923 64.8234L79.3788 63.0331ZM67.7309 63.2926C68.2212 63.3738 68.6846 63.0422 68.7659 62.5518C68.8472 62.0615 68.5156 61.5981 68.0252 61.5168L67.7309 63.2926ZM56.8336 59.2284C56.3512 59.109 55.8632 59.4033 55.7438 59.8858C55.6243 60.3683 55.9187 60.8562 56.4012 60.9757L56.8336 59.2284ZM45.2919 57.6371C45.7595 57.8057 46.2753 57.5633 46.4438 57.0957C46.6124 56.6281 46.37 56.1124 45.9024 55.9438L45.2919 57.6371ZM35.4786 51.3973C35.0384 51.1664 34.4944 51.3361 34.2635 51.7763C34.0327 52.2164 34.2023 52.7604 34.6425 52.9913L35.4786 51.3973ZM24.8293 46.7185C25.2214 47.0239 25.7869 46.9536 26.0923 46.5614C26.3977 46.1692 26.3274 45.6037 25.9352 45.2983L24.8293 46.7185ZM17.8193 37.4627C17.5024 37.0798 16.935 37.0263 16.5521 37.3432C16.1692 37.6602 16.1158 38.2275 16.4327 38.6104L17.8193 37.4627ZM10.084 28.8054C10.3039 29.2512 10.8435 29.4343 11.2893 29.2144C11.7351 28.9945 11.9182 28.4549 11.6983 28.0091L10.084 28.8054ZM7.84283 17.401C7.72237 16.9188 7.23378 16.6255 6.75154 16.746C6.2693 16.8665 5.97603 17.355 6.0965 17.8373L7.84283 17.401ZM4.30338 6.32792C4.33882 6.82372 4.76947 7.1969 5.26526 7.16145C5.76105 7.12601 6.13425 6.69536 6.0988 6.19956L4.30338 6.32792ZM195 121.5C195.543 122.218 195.543 122.218 195.543 122.218C195.543 122.218 195.543 122.218 195.543 122.218C195.543 122.218 195.543 122.218 195.544 122.217C195.544 122.217 195.544 122.217 195.545 122.216C195.546 122.215 195.548 122.214 195.55 122.212C195.554 122.209 195.56 122.205 195.567 122.199C195.582 122.188 195.603 122.172 195.63 122.15C195.685 122.108 195.764 122.046 195.865 121.965C196.068 121.802 196.359 121.563 196.721 121.251C197.445 120.628 198.453 119.715 199.6 118.547L198.958 117.917L198.315 117.286C197.209 118.413 196.239 119.292 195.547 119.887C195.201 120.184 194.926 120.41 194.738 120.561C194.644 120.636 194.572 120.693 194.525 120.73C194.501 120.748 194.483 120.762 194.472 120.771C194.466 120.775 194.462 120.778 194.46 120.78C194.459 120.781 194.458 120.782 194.457 120.782C194.457 120.782 194.457 120.782 194.457 120.782C194.457 120.782 194.457 120.782 194.457 120.782C194.457 120.782 194.457 120.782 194.457 120.782C194.457 120.782 194.457 120.782 195 121.5ZM205.517 109.493L206.291 109.952C208.063 106.966 209.563 103.52 210.265 99.7384L209.38 99.5741L208.495 99.4097C207.841 102.935 206.435 106.181 204.743 109.033L205.517 109.493ZM208.952 88.9804L209.82 88.742C209.355 87.0495 208.692 85.3294 207.801 83.5898L207 84.0001L206.199 84.4104C207.035 86.0433 207.653 87.6484 208.084 89.2187L208.952 88.9804ZM207 84.0001L207.801 83.5898C206.64 81.3225 205.274 79.3304 203.746 77.5808L203.068 78.1729L202.39 78.7651C203.822 80.4036 205.104 82.2734 206.199 84.4104L207 84.0001ZM191.651 70.1446L192 69.3151C187.558 67.4449 182.793 66.394 178.164 65.7753L178.045 66.6674L177.925 67.5594C182.458 68.1653 187.054 69.1861 191.302 70.9741L191.651 70.1446ZM163.998 65.697L164.028 64.7975C161.356 64.7086 158.998 64.6308 157.059 64.4438L156.973 65.3396L156.886 66.2355C158.894 66.4291 161.315 66.5082 163.968 66.5965L163.998 65.697ZM156.973 65.3396L157.059 64.4438C153.337 64.0846 152.207 63.9636 150.863 63.9716L150.868 64.8715L150.873 65.7715C152.101 65.7643 153.109 65.871 156.886 66.2355L156.973 65.3396ZM138.641 65.2356L138.626 64.3357C135.519 64.3877 131.547 64.4307 126.411 64.4517L126.415 65.3517L126.418 66.2517C131.56 66.2306 135.541 66.1876 138.656 66.1355L138.641 65.2356ZM114.166 65.36L114.168 64.46C112.225 64.4558 110.172 64.4491 108.004 64.4396L108 65.3396L107.996 66.2396C110.166 66.2491 112.219 66.2558 114.164 66.26L114.166 65.36ZM108 65.3396L108.004 64.4396C106.087 64.4313 104.173 64.409 102.265 64.3713L102.247 65.2711L102.229 66.171C104.148 66.2089 106.071 66.2312 107.996 66.2396L108 65.3396ZM90.7489 64.8396L90.7999 63.9411C86.9429 63.7219 83.1291 63.4239 79.3788 63.0331L79.2856 63.9282L79.1923 64.8234C82.9736 65.2174 86.8158 65.5176 90.6978 65.7382L90.7489 64.8396ZM67.878 62.4047L68.0252 61.5168C64.1889 60.8809 60.4503 60.1236 56.8336 59.2284L56.6174 60.102L56.4012 60.9757C60.0685 61.8834 63.8536 62.6499 67.7309 63.2926L67.878 62.4047ZM45.5972 56.7905L45.9024 55.9438C42.2364 54.6221 38.7513 53.1137 35.4786 51.3973L35.0606 52.1943L34.6425 52.9913C37.9962 54.7503 41.5577 56.2909 45.2919 57.6371L45.5972 56.7905ZM25.3822 46.0084L25.9352 45.2983C22.9344 42.9615 20.2164 40.3587 17.8193 37.4627L17.126 38.0366L16.4327 38.6104C18.9187 41.6139 21.7324 44.3069 24.8293 46.7185L25.3822 46.0084ZM10.8912 28.4073L11.6983 28.0091C10.0969 24.7625 8.80045 21.2345 7.84283 17.401L6.96967 17.6192L6.0965 17.8373C7.08398 21.7903 8.42374 25.4395 10.084 28.8054L10.8912 28.4073Z" fill="white"/>
</svg>
